%TF.GenerationSoftware,KiCad,Pcbnew,5.1.6*%
%TF.CreationDate,2020-09-04T21:44:15-07:00*%
%TF.ProjectId,sniffer,736e6966-6665-4722-9e6b-696361645f70,rev?*%
%TF.SameCoordinates,Original*%
%TF.FileFunction,Copper,L1,Top*%
%TF.FilePolarity,Positive*%
%FSLAX46Y46*%
G04 Gerber Fmt 4.6, Leading zero omitted, Abs format (unit mm)*
G04 Created by KiCad (PCBNEW 5.1.6) date 2020-09-04 21:44:15*
%MOMM*%
%LPD*%
G01*
G04 APERTURE LIST*
%TA.AperFunction,ComponentPad*%
%ADD10O,1.700000X1.700000*%
%TD*%
%TA.AperFunction,ComponentPad*%
%ADD11R,1.700000X1.700000*%
%TD*%
%TA.AperFunction,ComponentPad*%
%ADD12O,1.000000X1.000000*%
%TD*%
%TA.AperFunction,ComponentPad*%
%ADD13R,1.000000X1.000000*%
%TD*%
%TA.AperFunction,ComponentPad*%
%ADD14C,1.700000*%
%TD*%
%TA.AperFunction,SMDPad,CuDef*%
%ADD15R,0.900000X0.800000*%
%TD*%
%TA.AperFunction,SMDPad,CuDef*%
%ADD16R,0.800000X0.900000*%
%TD*%
%TA.AperFunction,ViaPad*%
%ADD17C,0.800000*%
%TD*%
%TA.AperFunction,Conductor*%
%ADD18C,0.400000*%
%TD*%
%TA.AperFunction,Conductor*%
%ADD19C,0.200000*%
%TD*%
G04 APERTURE END LIST*
D10*
%TO.P,J1,6*%
%TO.N,Net-(J1-Pad6)*%
X126350000Y-84000000D03*
%TO.P,J1,5*%
%TO.N,Net-(J1-Pad5)*%
X123810000Y-84000000D03*
%TO.P,J1,4*%
%TO.N,Net-(J1-Pad4)*%
X121270000Y-84000000D03*
%TO.P,J1,3*%
%TO.N,Net-(J1-Pad3)*%
X118730000Y-84000000D03*
%TO.P,J1,2*%
%TO.N,GND*%
X116190000Y-84000000D03*
D11*
%TO.P,J1,1*%
%TO.N,Net-(C1-Pad1)*%
X113650000Y-84000000D03*
%TD*%
D12*
%TO.P,J2,4*%
%TO.N,GND*%
X107230000Y-70900000D03*
%TO.P,J2,2*%
%TO.N,Net-(C2-Pad1)*%
X105960000Y-70900000D03*
%TO.P,J2,8*%
%TO.N,Net-(J2-Pad8)*%
X109770000Y-70900000D03*
%TO.P,J2,9*%
%TO.N,/PMS_TX*%
X111040000Y-72170000D03*
%TO.P,J2,10*%
%TO.N,/PMS_SET*%
X111040000Y-70900000D03*
%TO.P,J2,3*%
%TO.N,GND*%
X107230000Y-72170000D03*
%TO.P,J2,6*%
%TO.N,Net-(J2-Pad6)*%
X108500000Y-70900000D03*
%TO.P,J2,7*%
%TO.N,/PMS_RX*%
X109770000Y-72170000D03*
D13*
%TO.P,J2,1*%
%TO.N,Net-(C2-Pad1)*%
X105960000Y-72170000D03*
D12*
%TO.P,J2,5*%
%TO.N,/PMS_RESET*%
X108500000Y-72170000D03*
%TD*%
D14*
%TO.P,U1,3V3_0*%
%TO.N,+3V3*%
X108570000Y-65240000D03*
%TO.P,U1,GND_3*%
%TO.N,GND*%
X108570000Y-62700000D03*
%TO.P,U1,GND_2*%
X108570000Y-60160000D03*
%TO.P,U1,12*%
%TO.N,/PMS_PWR*%
X108570000Y-57620000D03*
%TO.P,U1,13*%
%TO.N,/BME_PWR*%
X108570000Y-55080000D03*
%TO.P,U1,15*%
%TO.N,Net-(U1-Pad15)*%
X108570000Y-52540000D03*
%TO.P,U1,2*%
%TO.N,Net-(U1-Pad2)*%
X108570000Y-50000000D03*
%TO.P,U1,17*%
%TO.N,Net-(U1-Pad17)*%
X108570000Y-47460000D03*
%TO.P,U1,22*%
%TO.N,/SCL*%
X108570000Y-44920000D03*
%TO.P,U1,21*%
%TO.N,/SDA*%
X108570000Y-42380000D03*
%TO.P,U1,GND_1*%
%TO.N,GND*%
X108570000Y-39840000D03*
%TO.P,U1,GND_0*%
X108570000Y-37300000D03*
%TO.P,U1,5V*%
%TO.N,+5V*%
X131430000Y-65240000D03*
%TO.P,U1,GND_4*%
%TO.N,GND*%
X131430000Y-62700000D03*
%TO.P,U1,27*%
%TO.N,Net-(JP7-Pad1)*%
X131430000Y-60160000D03*
%TO.P,U1,26*%
%TO.N,Net-(JP6-Pad1)*%
X131430000Y-57620000D03*
%TO.P,U1,25*%
%TO.N,Net-(JP5-Pad1)*%
X131430000Y-55080000D03*
%TO.P,U1,33*%
%TO.N,Net-(JP4-Pad1)*%
X131430000Y-52540000D03*
%TO.P,U1,32*%
%TO.N,Net-(U1-Pad32)*%
X131430000Y-50000000D03*
%TO.P,U1,39*%
%TO.N,Net-(U1-Pad39)*%
X131430000Y-47460000D03*
%TO.P,U1,38*%
%TO.N,Net-(U1-Pad38)*%
X131430000Y-44920000D03*
%TO.P,U1,37*%
%TO.N,Net-(U1-Pad37)*%
X131430000Y-42380000D03*
%TO.P,U1,36*%
%TO.N,Net-(U1-Pad36)*%
X131430000Y-39840000D03*
%TO.P,U1,3V3_1*%
%TO.N,+3V3*%
X131430000Y-37300000D03*
%TD*%
%TO.P,C1,2*%
%TO.N,GND*%
%TA.AperFunction,SMDPad,CuDef*%
G36*
G01*
X109375000Y-86375000D02*
X110625000Y-86375000D01*
G75*
G02*
X110875000Y-86625000I0J-250000D01*
G01*
X110875000Y-87550000D01*
G75*
G02*
X110625000Y-87800000I-250000J0D01*
G01*
X109375000Y-87800000D01*
G75*
G02*
X109125000Y-87550000I0J250000D01*
G01*
X109125000Y-86625000D01*
G75*
G02*
X109375000Y-86375000I250000J0D01*
G01*
G37*
%TD.AperFunction*%
%TO.P,C1,1*%
%TO.N,Net-(C1-Pad1)*%
%TA.AperFunction,SMDPad,CuDef*%
G36*
G01*
X109375000Y-83400000D02*
X110625000Y-83400000D01*
G75*
G02*
X110875000Y-83650000I0J-250000D01*
G01*
X110875000Y-84575000D01*
G75*
G02*
X110625000Y-84825000I-250000J0D01*
G01*
X109375000Y-84825000D01*
G75*
G02*
X109125000Y-84575000I0J250000D01*
G01*
X109125000Y-83650000D01*
G75*
G02*
X109375000Y-83400000I250000J0D01*
G01*
G37*
%TD.AperFunction*%
%TD*%
%TO.P,C2,2*%
%TO.N,GND*%
%TA.AperFunction,SMDPad,CuDef*%
G36*
G01*
X104575000Y-75425000D02*
X104575000Y-74175000D01*
G75*
G02*
X104825000Y-73925000I250000J0D01*
G01*
X105750000Y-73925000D01*
G75*
G02*
X106000000Y-74175000I0J-250000D01*
G01*
X106000000Y-75425000D01*
G75*
G02*
X105750000Y-75675000I-250000J0D01*
G01*
X104825000Y-75675000D01*
G75*
G02*
X104575000Y-75425000I0J250000D01*
G01*
G37*
%TD.AperFunction*%
%TO.P,C2,1*%
%TO.N,Net-(C2-Pad1)*%
%TA.AperFunction,SMDPad,CuDef*%
G36*
G01*
X101600000Y-75425000D02*
X101600000Y-74175000D01*
G75*
G02*
X101850000Y-73925000I250000J0D01*
G01*
X102775000Y-73925000D01*
G75*
G02*
X103025000Y-74175000I0J-250000D01*
G01*
X103025000Y-75425000D01*
G75*
G02*
X102775000Y-75675000I-250000J0D01*
G01*
X101850000Y-75675000D01*
G75*
G02*
X101600000Y-75425000I0J250000D01*
G01*
G37*
%TD.AperFunction*%
%TD*%
%TO.P,C3,2*%
%TO.N,GND*%
%TA.AperFunction,SMDPad,CuDef*%
G36*
G01*
X104575000Y-68925000D02*
X104575000Y-67675000D01*
G75*
G02*
X104825000Y-67425000I250000J0D01*
G01*
X105750000Y-67425000D01*
G75*
G02*
X106000000Y-67675000I0J-250000D01*
G01*
X106000000Y-68925000D01*
G75*
G02*
X105750000Y-69175000I-250000J0D01*
G01*
X104825000Y-69175000D01*
G75*
G02*
X104575000Y-68925000I0J250000D01*
G01*
G37*
%TD.AperFunction*%
%TO.P,C3,1*%
%TO.N,Net-(C2-Pad1)*%
%TA.AperFunction,SMDPad,CuDef*%
G36*
G01*
X101600000Y-68925000D02*
X101600000Y-67675000D01*
G75*
G02*
X101850000Y-67425000I250000J0D01*
G01*
X102775000Y-67425000D01*
G75*
G02*
X103025000Y-67675000I0J-250000D01*
G01*
X103025000Y-68925000D01*
G75*
G02*
X102775000Y-69175000I-250000J0D01*
G01*
X101850000Y-69175000D01*
G75*
G02*
X101600000Y-68925000I0J250000D01*
G01*
G37*
%TD.AperFunction*%
%TD*%
D15*
%TO.P,Q1,3*%
%TO.N,Net-(C1-Pad1)*%
X107800000Y-84200000D03*
%TO.P,Q1,2*%
%TO.N,+3V3*%
X105800000Y-85150000D03*
%TO.P,Q1,1*%
%TO.N,/BME_PWR*%
X105800000Y-83250000D03*
%TD*%
D16*
%TO.P,Q2,3*%
%TO.N,Net-(C2-Pad1)*%
X103600000Y-63800000D03*
%TO.P,Q2,2*%
%TO.N,+5V*%
X104550000Y-65800000D03*
%TO.P,Q2,1*%
%TO.N,/PMS_PWR*%
X102650000Y-65800000D03*
%TD*%
%TO.P,R1,2*%
%TO.N,+3V3*%
%TA.AperFunction,SMDPad,CuDef*%
G36*
G01*
X103549999Y-84650000D02*
X104450001Y-84650000D01*
G75*
G02*
X104700000Y-84899999I0J-249999D01*
G01*
X104700000Y-85550001D01*
G75*
G02*
X104450001Y-85800000I-249999J0D01*
G01*
X103549999Y-85800000D01*
G75*
G02*
X103300000Y-85550001I0J249999D01*
G01*
X103300000Y-84899999D01*
G75*
G02*
X103549999Y-84650000I249999J0D01*
G01*
G37*
%TD.AperFunction*%
%TO.P,R1,1*%
%TO.N,/BME_PWR*%
%TA.AperFunction,SMDPad,CuDef*%
G36*
G01*
X103549999Y-82600000D02*
X104450001Y-82600000D01*
G75*
G02*
X104700000Y-82849999I0J-249999D01*
G01*
X104700000Y-83500001D01*
G75*
G02*
X104450001Y-83750000I-249999J0D01*
G01*
X103549999Y-83750000D01*
G75*
G02*
X103300000Y-83500001I0J249999D01*
G01*
X103300000Y-82849999D01*
G75*
G02*
X103549999Y-82600000I249999J0D01*
G01*
G37*
%TD.AperFunction*%
%TD*%
%TO.P,R2,2*%
%TO.N,+5V*%
%TA.AperFunction,SMDPad,CuDef*%
G36*
G01*
X104050000Y-62450001D02*
X104050000Y-61549999D01*
G75*
G02*
X104299999Y-61300000I249999J0D01*
G01*
X104950001Y-61300000D01*
G75*
G02*
X105200000Y-61549999I0J-249999D01*
G01*
X105200000Y-62450001D01*
G75*
G02*
X104950001Y-62700000I-249999J0D01*
G01*
X104299999Y-62700000D01*
G75*
G02*
X104050000Y-62450001I0J249999D01*
G01*
G37*
%TD.AperFunction*%
%TO.P,R2,1*%
%TO.N,/PMS_PWR*%
%TA.AperFunction,SMDPad,CuDef*%
G36*
G01*
X102000000Y-62450001D02*
X102000000Y-61549999D01*
G75*
G02*
X102249999Y-61300000I249999J0D01*
G01*
X102900001Y-61300000D01*
G75*
G02*
X103150000Y-61549999I0J-249999D01*
G01*
X103150000Y-62450001D01*
G75*
G02*
X102900001Y-62700000I-249999J0D01*
G01*
X102249999Y-62700000D01*
G75*
G02*
X102000000Y-62450001I0J249999D01*
G01*
G37*
%TD.AperFunction*%
%TD*%
D17*
%TO.N,+3V3*%
X105000000Y-84200000D03*
%TO.N,+5V*%
X105400000Y-65600000D03*
%TO.N,/PMS_RESET*%
X125600000Y-74000000D03*
%TO.N,/PMS_RX*%
X126800000Y-73000000D03*
%TO.N,/PMS_TX*%
X128000000Y-72000000D03*
%TO.N,/PMS_SET*%
X124800000Y-71000000D03*
%TO.N,Net-(C1-Pad1)*%
X108600000Y-84200000D03*
%TO.N,Net-(C2-Pad1)*%
X103600000Y-67000000D03*
%TO.N,/BME_PWR*%
X111000000Y-76800000D03*
%TD*%
D18*
%TO.N,+3V3*%
X121100000Y-47630000D02*
X131430000Y-37300000D01*
X121100000Y-53500000D02*
X121100000Y-47630000D01*
X109360000Y-65240000D02*
X121100000Y-53500000D01*
X108570000Y-65240000D02*
X109360000Y-65240000D01*
X104075000Y-85150000D02*
X104000000Y-85225000D01*
X104000000Y-85200000D02*
X105000000Y-84200000D01*
X104000000Y-85225000D02*
X104000000Y-85200000D01*
X105800000Y-85000000D02*
X105000000Y-84200000D01*
X105800000Y-85150000D02*
X105800000Y-85000000D01*
%TO.N,+5V*%
X104550000Y-62075000D02*
X104625000Y-62000000D01*
X104800000Y-62175000D02*
X104625000Y-62000000D01*
X104550000Y-65800000D02*
X104550000Y-63850000D01*
X104550000Y-63750000D02*
X104550000Y-63550000D01*
X104550000Y-63550000D02*
X104550000Y-62075000D01*
X104550000Y-63850000D02*
X104550000Y-63550000D01*
X104700000Y-65950000D02*
X104550000Y-65800000D01*
X105400000Y-66200000D02*
X105400000Y-65600000D01*
X104550000Y-65800000D02*
X104800000Y-65800000D01*
X105000000Y-65800000D02*
X105400000Y-66200000D01*
X104550000Y-65800000D02*
X105000000Y-65800000D01*
X104750000Y-65600000D02*
X104550000Y-65800000D01*
X105400000Y-65600000D02*
X104750000Y-65600000D01*
X107200000Y-68000000D02*
X105400000Y-66200000D01*
X128800000Y-68000000D02*
X107200000Y-68000000D01*
X131430000Y-65370000D02*
X128800000Y-68000000D01*
X131430000Y-65240000D02*
X131430000Y-65370000D01*
%TO.N,/PMS_RESET*%
X108500000Y-72700000D02*
X108500000Y-72170000D01*
X109800000Y-74000000D02*
X108500000Y-72700000D01*
X125600000Y-74000000D02*
X109800000Y-74000000D01*
%TO.N,/PMS_RX*%
X109770000Y-72170000D02*
X109770000Y-72770000D01*
X109770000Y-72770000D02*
X110200000Y-73200000D01*
X126600000Y-73200000D02*
X126800000Y-73000000D01*
X110200000Y-73200000D02*
X126600000Y-73200000D01*
%TO.N,/PMS_TX*%
X127830000Y-72170000D02*
X128000000Y-72000000D01*
X111040000Y-72170000D02*
X127830000Y-72170000D01*
%TO.N,/PMS_SET*%
X124600000Y-71200000D02*
X124800000Y-71000000D01*
X111340000Y-71200000D02*
X124600000Y-71200000D01*
X111040000Y-70900000D02*
X111340000Y-71200000D01*
%TO.N,Net-(C1-Pad1)*%
X113537500Y-84112500D02*
X113650000Y-84000000D01*
X110000000Y-84112500D02*
X113537500Y-84112500D01*
X109912500Y-84200000D02*
X110000000Y-84112500D01*
X107800000Y-84200000D02*
X108600000Y-84200000D01*
X108600000Y-84200000D02*
X109912500Y-84200000D01*
%TO.N,Net-(C2-Pad1)*%
X103600000Y-63800000D02*
X103600000Y-67000000D01*
%TO.N,/BME_PWR*%
X105850000Y-81950000D02*
X111000000Y-76800000D01*
X105850000Y-83050000D02*
X105850000Y-81950000D01*
X104075000Y-83250000D02*
X104000000Y-83175000D01*
X105800000Y-83250000D02*
X104075000Y-83250000D01*
%TO.N,/PMS_PWR*%
X102650000Y-62075000D02*
X102575000Y-62000000D01*
X102650000Y-65800000D02*
X102650000Y-62075000D01*
X102575000Y-62000000D02*
X102575000Y-60625000D01*
X105580000Y-57620000D02*
X108570000Y-57620000D01*
X102575000Y-60625000D02*
X105580000Y-57620000D01*
%TD*%
D19*
%TO.N,GND*%
G36*
X107416750Y-36585722D02*
G01*
X107299560Y-36824435D01*
X107231193Y-37081423D01*
X107214275Y-37346810D01*
X107249458Y-37610399D01*
X107335387Y-37862061D01*
X107416750Y-38014278D01*
X107631340Y-38097238D01*
X108428579Y-37300000D01*
X108414436Y-37285858D01*
X108555858Y-37144436D01*
X108570000Y-37158579D01*
X108584142Y-37144436D01*
X108725564Y-37285858D01*
X108711421Y-37300000D01*
X109508660Y-38097238D01*
X109723250Y-38014278D01*
X109840440Y-37775565D01*
X109908807Y-37518577D01*
X109925725Y-37253190D01*
X109890542Y-36989601D01*
X109804613Y-36737939D01*
X109723250Y-36585722D01*
X109566182Y-36525000D01*
X130324208Y-36525000D01*
X130233646Y-36660535D01*
X130131880Y-36906220D01*
X130080000Y-37167037D01*
X130080000Y-37432963D01*
X130117676Y-37622374D01*
X120629342Y-47110709D01*
X120602631Y-47132630D01*
X120580710Y-47159341D01*
X120580708Y-47159343D01*
X120515155Y-47239219D01*
X120450155Y-47360826D01*
X120410129Y-47492777D01*
X120396613Y-47630000D01*
X120400001Y-47664397D01*
X120400000Y-53210051D01*
X109423435Y-64186616D01*
X109209465Y-64043646D01*
X109030201Y-63969393D01*
X109132061Y-63934613D01*
X109284278Y-63853250D01*
X109367238Y-63638660D01*
X108570000Y-62841421D01*
X107772762Y-63638660D01*
X107855722Y-63853250D01*
X108094435Y-63970440D01*
X108102250Y-63972519D01*
X107930535Y-64043646D01*
X107709425Y-64191387D01*
X107521387Y-64379425D01*
X107373646Y-64600535D01*
X107271880Y-64846220D01*
X107220000Y-65107037D01*
X107220000Y-65372963D01*
X107271880Y-65633780D01*
X107373646Y-65879465D01*
X107521387Y-66100575D01*
X107709425Y-66288613D01*
X107930535Y-66436354D01*
X108176220Y-66538120D01*
X108437037Y-66590000D01*
X108702963Y-66590000D01*
X108963780Y-66538120D01*
X109209465Y-66436354D01*
X109430575Y-66288613D01*
X109618613Y-66100575D01*
X109766354Y-65879465D01*
X109808650Y-65777353D01*
X109857370Y-65737370D01*
X109879296Y-65710653D01*
X112843139Y-62746810D01*
X130074275Y-62746810D01*
X130109458Y-63010399D01*
X130195387Y-63262061D01*
X130276750Y-63414278D01*
X130491340Y-63497238D01*
X131288579Y-62700000D01*
X131571421Y-62700000D01*
X132368660Y-63497238D01*
X132583250Y-63414278D01*
X132700440Y-63175565D01*
X132768807Y-62918577D01*
X132785725Y-62653190D01*
X132750542Y-62389601D01*
X132664613Y-62137939D01*
X132583250Y-61985722D01*
X132368660Y-61902762D01*
X131571421Y-62700000D01*
X131288579Y-62700000D01*
X130491340Y-61902762D01*
X130276750Y-61985722D01*
X130159560Y-62224435D01*
X130091193Y-62481423D01*
X130074275Y-62746810D01*
X112843139Y-62746810D01*
X121570658Y-54019291D01*
X121597369Y-53997370D01*
X121628807Y-53959063D01*
X121684845Y-53890782D01*
X121749845Y-53769175D01*
X121759801Y-53736354D01*
X121789872Y-53637224D01*
X121800000Y-53534390D01*
X121800000Y-53534388D01*
X121803387Y-53500001D01*
X121800000Y-53465614D01*
X121800000Y-47919949D01*
X130096658Y-39623292D01*
X130080000Y-39707037D01*
X130080000Y-39972963D01*
X130131880Y-40233780D01*
X130233646Y-40479465D01*
X130381387Y-40700575D01*
X130569425Y-40888613D01*
X130790535Y-41036354D01*
X130968332Y-41110000D01*
X130790535Y-41183646D01*
X130569425Y-41331387D01*
X130381387Y-41519425D01*
X130233646Y-41740535D01*
X130131880Y-41986220D01*
X130080000Y-42247037D01*
X130080000Y-42512963D01*
X130131880Y-42773780D01*
X130233646Y-43019465D01*
X130381387Y-43240575D01*
X130569425Y-43428613D01*
X130790535Y-43576354D01*
X130968332Y-43650000D01*
X130790535Y-43723646D01*
X130569425Y-43871387D01*
X130381387Y-44059425D01*
X130233646Y-44280535D01*
X130131880Y-44526220D01*
X130080000Y-44787037D01*
X130080000Y-45052963D01*
X130131880Y-45313780D01*
X130233646Y-45559465D01*
X130381387Y-45780575D01*
X130569425Y-45968613D01*
X130790535Y-46116354D01*
X130968332Y-46190000D01*
X130790535Y-46263646D01*
X130569425Y-46411387D01*
X130381387Y-46599425D01*
X130233646Y-46820535D01*
X130131880Y-47066220D01*
X130080000Y-47327037D01*
X130080000Y-47592963D01*
X130131880Y-47853780D01*
X130233646Y-48099465D01*
X130381387Y-48320575D01*
X130569425Y-48508613D01*
X130790535Y-48656354D01*
X130968332Y-48730000D01*
X130790535Y-48803646D01*
X130569425Y-48951387D01*
X130381387Y-49139425D01*
X130233646Y-49360535D01*
X130131880Y-49606220D01*
X130080000Y-49867037D01*
X130080000Y-50132963D01*
X130131880Y-50393780D01*
X130233646Y-50639465D01*
X130381387Y-50860575D01*
X130569425Y-51048613D01*
X130790535Y-51196354D01*
X130968332Y-51270000D01*
X130790535Y-51343646D01*
X130569425Y-51491387D01*
X130381387Y-51679425D01*
X130233646Y-51900535D01*
X130131880Y-52146220D01*
X130080000Y-52407037D01*
X130080000Y-52672963D01*
X130131880Y-52933780D01*
X130233646Y-53179465D01*
X130381387Y-53400575D01*
X130569425Y-53588613D01*
X130790535Y-53736354D01*
X130968332Y-53810000D01*
X130790535Y-53883646D01*
X130569425Y-54031387D01*
X130381387Y-54219425D01*
X130233646Y-54440535D01*
X130131880Y-54686220D01*
X130080000Y-54947037D01*
X130080000Y-55212963D01*
X130131880Y-55473780D01*
X130233646Y-55719465D01*
X130381387Y-55940575D01*
X130569425Y-56128613D01*
X130790535Y-56276354D01*
X130968332Y-56350000D01*
X130790535Y-56423646D01*
X130569425Y-56571387D01*
X130381387Y-56759425D01*
X130233646Y-56980535D01*
X130131880Y-57226220D01*
X130080000Y-57487037D01*
X130080000Y-57752963D01*
X130131880Y-58013780D01*
X130233646Y-58259465D01*
X130381387Y-58480575D01*
X130569425Y-58668613D01*
X130790535Y-58816354D01*
X130968332Y-58890000D01*
X130790535Y-58963646D01*
X130569425Y-59111387D01*
X130381387Y-59299425D01*
X130233646Y-59520535D01*
X130131880Y-59766220D01*
X130080000Y-60027037D01*
X130080000Y-60292963D01*
X130131880Y-60553780D01*
X130233646Y-60799465D01*
X130381387Y-61020575D01*
X130569425Y-61208613D01*
X130790535Y-61356354D01*
X130969799Y-61430607D01*
X130867939Y-61465387D01*
X130715722Y-61546750D01*
X130632762Y-61761340D01*
X131430000Y-62558579D01*
X132227238Y-61761340D01*
X132144278Y-61546750D01*
X131905565Y-61429560D01*
X131897750Y-61427481D01*
X132069465Y-61356354D01*
X132290575Y-61208613D01*
X132478613Y-61020575D01*
X132626354Y-60799465D01*
X132728120Y-60553780D01*
X132780000Y-60292963D01*
X132780000Y-60027037D01*
X132728120Y-59766220D01*
X132626354Y-59520535D01*
X132478613Y-59299425D01*
X132290575Y-59111387D01*
X132069465Y-58963646D01*
X131891668Y-58890000D01*
X132069465Y-58816354D01*
X132290575Y-58668613D01*
X132478613Y-58480575D01*
X132626354Y-58259465D01*
X132728120Y-58013780D01*
X132780000Y-57752963D01*
X132780000Y-57487037D01*
X132728120Y-57226220D01*
X132626354Y-56980535D01*
X132478613Y-56759425D01*
X132290575Y-56571387D01*
X132069465Y-56423646D01*
X131891668Y-56350000D01*
X132069465Y-56276354D01*
X132290575Y-56128613D01*
X132478613Y-55940575D01*
X132626354Y-55719465D01*
X132728120Y-55473780D01*
X132780000Y-55212963D01*
X132780000Y-54947037D01*
X132728120Y-54686220D01*
X132626354Y-54440535D01*
X132478613Y-54219425D01*
X132290575Y-54031387D01*
X132069465Y-53883646D01*
X131891668Y-53810000D01*
X132069465Y-53736354D01*
X132290575Y-53588613D01*
X132478613Y-53400575D01*
X132626354Y-53179465D01*
X132728120Y-52933780D01*
X132780000Y-52672963D01*
X132780000Y-52407037D01*
X132728120Y-52146220D01*
X132626354Y-51900535D01*
X132478613Y-51679425D01*
X132290575Y-51491387D01*
X132069465Y-51343646D01*
X131891668Y-51270000D01*
X132069465Y-51196354D01*
X132290575Y-51048613D01*
X132478613Y-50860575D01*
X132626354Y-50639465D01*
X132728120Y-50393780D01*
X132780000Y-50132963D01*
X132780000Y-49867037D01*
X132728120Y-49606220D01*
X132626354Y-49360535D01*
X132478613Y-49139425D01*
X132290575Y-48951387D01*
X132069465Y-48803646D01*
X131891668Y-48730000D01*
X132069465Y-48656354D01*
X132290575Y-48508613D01*
X132478613Y-48320575D01*
X132626354Y-48099465D01*
X132728120Y-47853780D01*
X132780000Y-47592963D01*
X132780000Y-47327037D01*
X132728120Y-47066220D01*
X132626354Y-46820535D01*
X132478613Y-46599425D01*
X132290575Y-46411387D01*
X132069465Y-46263646D01*
X131891668Y-46190000D01*
X132069465Y-46116354D01*
X132290575Y-45968613D01*
X132478613Y-45780575D01*
X132626354Y-45559465D01*
X132728120Y-45313780D01*
X132780000Y-45052963D01*
X132780000Y-44787037D01*
X132728120Y-44526220D01*
X132626354Y-44280535D01*
X132478613Y-44059425D01*
X132290575Y-43871387D01*
X132069465Y-43723646D01*
X131891668Y-43650000D01*
X132069465Y-43576354D01*
X132290575Y-43428613D01*
X132478613Y-43240575D01*
X132626354Y-43019465D01*
X132728120Y-42773780D01*
X132780000Y-42512963D01*
X132780000Y-42247037D01*
X132728120Y-41986220D01*
X132626354Y-41740535D01*
X132478613Y-41519425D01*
X132290575Y-41331387D01*
X132069465Y-41183646D01*
X131891668Y-41110000D01*
X132069465Y-41036354D01*
X132290575Y-40888613D01*
X132478613Y-40700575D01*
X132626354Y-40479465D01*
X132728120Y-40233780D01*
X132780000Y-39972963D01*
X132780000Y-39707037D01*
X132767146Y-39642414D01*
X133600000Y-39642414D01*
X133600000Y-39957586D01*
X133661487Y-40266703D01*
X133782098Y-40557884D01*
X133957199Y-40819941D01*
X134180059Y-41042801D01*
X134442116Y-41217902D01*
X134733297Y-41338513D01*
X135042414Y-41400000D01*
X135357586Y-41400000D01*
X135666703Y-41338513D01*
X135957884Y-41217902D01*
X136219941Y-41042801D01*
X136442801Y-40819941D01*
X136617902Y-40557884D01*
X136738513Y-40266703D01*
X136800000Y-39957586D01*
X136800000Y-39642414D01*
X136738513Y-39333297D01*
X136617902Y-39042116D01*
X136442801Y-38780059D01*
X136219941Y-38557199D01*
X135957884Y-38382098D01*
X135666703Y-38261487D01*
X135357586Y-38200000D01*
X135042414Y-38200000D01*
X134733297Y-38261487D01*
X134442116Y-38382098D01*
X134180059Y-38557199D01*
X133957199Y-38780059D01*
X133782098Y-39042116D01*
X133661487Y-39333297D01*
X133600000Y-39642414D01*
X132767146Y-39642414D01*
X132728120Y-39446220D01*
X132626354Y-39200535D01*
X132478613Y-38979425D01*
X132290575Y-38791387D01*
X132069465Y-38643646D01*
X131891668Y-38570000D01*
X132069465Y-38496354D01*
X132290575Y-38348613D01*
X132478613Y-38160575D01*
X132626354Y-37939465D01*
X132728120Y-37693780D01*
X132780000Y-37432963D01*
X132780000Y-37167037D01*
X132728120Y-36906220D01*
X132626354Y-36660535D01*
X132535792Y-36525000D01*
X132579368Y-36525000D01*
X133550088Y-36601397D01*
X134476774Y-36823875D01*
X135357256Y-37188583D01*
X136169841Y-37686534D01*
X136894526Y-38305474D01*
X137513464Y-39030157D01*
X138011417Y-39842744D01*
X138376125Y-40723226D01*
X138598602Y-41649910D01*
X138675000Y-42620632D01*
X138675001Y-94879355D01*
X138598602Y-95850090D01*
X138376125Y-96776774D01*
X138011417Y-97657256D01*
X137513464Y-98469843D01*
X136894526Y-99194526D01*
X136169841Y-99813466D01*
X135357256Y-100311417D01*
X134476774Y-100676125D01*
X133550088Y-100898603D01*
X132579368Y-100975000D01*
X107420632Y-100975000D01*
X106449910Y-100898602D01*
X105523226Y-100676125D01*
X104642744Y-100311417D01*
X103830157Y-99813464D01*
X103105474Y-99194526D01*
X102486534Y-98469841D01*
X101988583Y-97657256D01*
X101941014Y-97542414D01*
X103200000Y-97542414D01*
X103200000Y-97857586D01*
X103261487Y-98166703D01*
X103382098Y-98457884D01*
X103557199Y-98719941D01*
X103780059Y-98942801D01*
X104042116Y-99117902D01*
X104333297Y-99238513D01*
X104642414Y-99300000D01*
X104957586Y-99300000D01*
X105266703Y-99238513D01*
X105557884Y-99117902D01*
X105819941Y-98942801D01*
X106042801Y-98719941D01*
X106217902Y-98457884D01*
X106338513Y-98166703D01*
X106400000Y-97857586D01*
X106400000Y-97542414D01*
X133600000Y-97542414D01*
X133600000Y-97857586D01*
X133661487Y-98166703D01*
X133782098Y-98457884D01*
X133957199Y-98719941D01*
X134180059Y-98942801D01*
X134442116Y-99117902D01*
X134733297Y-99238513D01*
X135042414Y-99300000D01*
X135357586Y-99300000D01*
X135666703Y-99238513D01*
X135957884Y-99117902D01*
X136219941Y-98942801D01*
X136442801Y-98719941D01*
X136617902Y-98457884D01*
X136738513Y-98166703D01*
X136800000Y-97857586D01*
X136800000Y-97542414D01*
X136738513Y-97233297D01*
X136617902Y-96942116D01*
X136442801Y-96680059D01*
X136219941Y-96457199D01*
X135957884Y-96282098D01*
X135666703Y-96161487D01*
X135357586Y-96100000D01*
X135042414Y-96100000D01*
X134733297Y-96161487D01*
X134442116Y-96282098D01*
X134180059Y-96457199D01*
X133957199Y-96680059D01*
X133782098Y-96942116D01*
X133661487Y-97233297D01*
X133600000Y-97542414D01*
X106400000Y-97542414D01*
X106338513Y-97233297D01*
X106217902Y-96942116D01*
X106042801Y-96680059D01*
X105819941Y-96457199D01*
X105557884Y-96282098D01*
X105266703Y-96161487D01*
X104957586Y-96100000D01*
X104642414Y-96100000D01*
X104333297Y-96161487D01*
X104042116Y-96282098D01*
X103780059Y-96457199D01*
X103557199Y-96680059D01*
X103382098Y-96942116D01*
X103261487Y-97233297D01*
X103200000Y-97542414D01*
X101941014Y-97542414D01*
X101623875Y-96776774D01*
X101401397Y-95850088D01*
X101325000Y-94879368D01*
X101325000Y-93842414D01*
X112900000Y-93842414D01*
X112900000Y-94157586D01*
X112961487Y-94466703D01*
X113082098Y-94757884D01*
X113257199Y-95019941D01*
X113480059Y-95242801D01*
X113742116Y-95417902D01*
X114033297Y-95538513D01*
X114342414Y-95600000D01*
X114657586Y-95600000D01*
X114966703Y-95538513D01*
X115257884Y-95417902D01*
X115519941Y-95242801D01*
X115742801Y-95019941D01*
X115917902Y-94757884D01*
X116038513Y-94466703D01*
X116100000Y-94157586D01*
X116100000Y-93842414D01*
X123900000Y-93842414D01*
X123900000Y-94157586D01*
X123961487Y-94466703D01*
X124082098Y-94757884D01*
X124257199Y-95019941D01*
X124480059Y-95242801D01*
X124742116Y-95417902D01*
X125033297Y-95538513D01*
X125342414Y-95600000D01*
X125657586Y-95600000D01*
X125966703Y-95538513D01*
X126257884Y-95417902D01*
X126519941Y-95242801D01*
X126742801Y-95019941D01*
X126917902Y-94757884D01*
X127038513Y-94466703D01*
X127100000Y-94157586D01*
X127100000Y-93842414D01*
X127038513Y-93533297D01*
X126917902Y-93242116D01*
X126742801Y-92980059D01*
X126519941Y-92757199D01*
X126257884Y-92582098D01*
X125966703Y-92461487D01*
X125657586Y-92400000D01*
X125342414Y-92400000D01*
X125033297Y-92461487D01*
X124742116Y-92582098D01*
X124480059Y-92757199D01*
X124257199Y-92980059D01*
X124082098Y-93242116D01*
X123961487Y-93533297D01*
X123900000Y-93842414D01*
X116100000Y-93842414D01*
X116038513Y-93533297D01*
X115917902Y-93242116D01*
X115742801Y-92980059D01*
X115519941Y-92757199D01*
X115257884Y-92582098D01*
X114966703Y-92461487D01*
X114657586Y-92400000D01*
X114342414Y-92400000D01*
X114033297Y-92461487D01*
X113742116Y-92582098D01*
X113480059Y-92757199D01*
X113257199Y-92980059D01*
X113082098Y-93242116D01*
X112961487Y-93533297D01*
X112900000Y-93842414D01*
X101325000Y-93842414D01*
X101325000Y-87800000D01*
X108622581Y-87800000D01*
X108632235Y-87898017D01*
X108660825Y-87992267D01*
X108707254Y-88079129D01*
X108769736Y-88155264D01*
X108845871Y-88217746D01*
X108932733Y-88264175D01*
X109026983Y-88292765D01*
X109125000Y-88302419D01*
X109775000Y-88300000D01*
X109900000Y-88175000D01*
X109900000Y-87187500D01*
X110100000Y-87187500D01*
X110100000Y-88175000D01*
X110225000Y-88300000D01*
X110875000Y-88302419D01*
X110973017Y-88292765D01*
X111067267Y-88264175D01*
X111154129Y-88217746D01*
X111230264Y-88155264D01*
X111292746Y-88079129D01*
X111339175Y-87992267D01*
X111367765Y-87898017D01*
X111377419Y-87800000D01*
X111375000Y-87312500D01*
X111250000Y-87187500D01*
X110100000Y-87187500D01*
X109900000Y-87187500D01*
X108750000Y-87187500D01*
X108625000Y-87312500D01*
X108622581Y-87800000D01*
X101325000Y-87800000D01*
X101325000Y-86375000D01*
X108622581Y-86375000D01*
X108625000Y-86862500D01*
X108750000Y-86987500D01*
X109900000Y-86987500D01*
X109900000Y-86000000D01*
X110100000Y-86000000D01*
X110100000Y-86987500D01*
X111250000Y-86987500D01*
X111375000Y-86862500D01*
X111377419Y-86375000D01*
X111367765Y-86276983D01*
X111339175Y-86182733D01*
X111292746Y-86095871D01*
X111230264Y-86019736D01*
X111154129Y-85957254D01*
X111067267Y-85910825D01*
X110973017Y-85882235D01*
X110875000Y-85872581D01*
X110225000Y-85875000D01*
X110100000Y-86000000D01*
X109900000Y-86000000D01*
X109775000Y-85875000D01*
X109125000Y-85872581D01*
X109026983Y-85882235D01*
X108932733Y-85910825D01*
X108845871Y-85957254D01*
X108769736Y-86019736D01*
X108707254Y-86095871D01*
X108660825Y-86182733D01*
X108632235Y-86276983D01*
X108622581Y-86375000D01*
X101325000Y-86375000D01*
X101325000Y-82849999D01*
X102797581Y-82849999D01*
X102797581Y-83500001D01*
X102812039Y-83646790D01*
X102854855Y-83787939D01*
X102924386Y-83918022D01*
X103017959Y-84032041D01*
X103131978Y-84125614D01*
X103262061Y-84195145D01*
X103278066Y-84200000D01*
X103262061Y-84204855D01*
X103131978Y-84274386D01*
X103017959Y-84367959D01*
X102924386Y-84481978D01*
X102854855Y-84612061D01*
X102812039Y-84753210D01*
X102797581Y-84899999D01*
X102797581Y-85550001D01*
X102812039Y-85696790D01*
X102854855Y-85837939D01*
X102924386Y-85968022D01*
X103017959Y-86082041D01*
X103131978Y-86175614D01*
X103262061Y-86245145D01*
X103403210Y-86287961D01*
X103549999Y-86302419D01*
X104450001Y-86302419D01*
X104596790Y-86287961D01*
X104737939Y-86245145D01*
X104868022Y-86175614D01*
X104982041Y-86082041D01*
X105074325Y-85969592D01*
X105157733Y-86014175D01*
X105251983Y-86042765D01*
X105350000Y-86052419D01*
X106250000Y-86052419D01*
X106348017Y-86042765D01*
X106442267Y-86014175D01*
X106529129Y-85967746D01*
X106605264Y-85905264D01*
X106667746Y-85829129D01*
X106714175Y-85742267D01*
X106742765Y-85648017D01*
X106752419Y-85550000D01*
X106752419Y-84750000D01*
X106742765Y-84651983D01*
X106714175Y-84557733D01*
X106667746Y-84470871D01*
X106605264Y-84394736D01*
X106529129Y-84332254D01*
X106442267Y-84285825D01*
X106348017Y-84257235D01*
X106250000Y-84247581D01*
X106037531Y-84247581D01*
X105942369Y-84152419D01*
X106250000Y-84152419D01*
X106348017Y-84142765D01*
X106442267Y-84114175D01*
X106529129Y-84067746D01*
X106605264Y-84005264D01*
X106667746Y-83929129D01*
X106714175Y-83842267D01*
X106726996Y-83800000D01*
X106847581Y-83800000D01*
X106847581Y-84600000D01*
X106857235Y-84698017D01*
X106885825Y-84792267D01*
X106932254Y-84879129D01*
X106994736Y-84955264D01*
X107070871Y-85017746D01*
X107157733Y-85064175D01*
X107251983Y-85092765D01*
X107350000Y-85102419D01*
X108250000Y-85102419D01*
X108348017Y-85092765D01*
X108398301Y-85077512D01*
X108511358Y-85100000D01*
X108688642Y-85100000D01*
X108816336Y-85074600D01*
X108842959Y-85107041D01*
X108956978Y-85200614D01*
X109087062Y-85270145D01*
X109228210Y-85312961D01*
X109375000Y-85327419D01*
X110625000Y-85327419D01*
X110771790Y-85312961D01*
X110912938Y-85270145D01*
X111043022Y-85200614D01*
X111157041Y-85107041D01*
X111250614Y-84993022D01*
X111320145Y-84862938D01*
X111335445Y-84812500D01*
X112297581Y-84812500D01*
X112297581Y-84850000D01*
X112307235Y-84948017D01*
X112335825Y-85042267D01*
X112382254Y-85129129D01*
X112444736Y-85205264D01*
X112520871Y-85267746D01*
X112607733Y-85314175D01*
X112701983Y-85342765D01*
X112800000Y-85352419D01*
X114500000Y-85352419D01*
X114598017Y-85342765D01*
X114692267Y-85314175D01*
X114779129Y-85267746D01*
X114855264Y-85205264D01*
X114917746Y-85129129D01*
X114964175Y-85042267D01*
X114992765Y-84948017D01*
X115002419Y-84850000D01*
X115002419Y-84630267D01*
X115094345Y-84788701D01*
X115269266Y-84987298D01*
X115479570Y-85147954D01*
X115717175Y-85264494D01*
X115880625Y-85314072D01*
X116090000Y-85220912D01*
X116090000Y-84100000D01*
X116070000Y-84100000D01*
X116070000Y-83900000D01*
X116090000Y-83900000D01*
X116090000Y-82779088D01*
X116290000Y-82779088D01*
X116290000Y-83900000D01*
X116310000Y-83900000D01*
X116310000Y-84100000D01*
X116290000Y-84100000D01*
X116290000Y-85220912D01*
X116499375Y-85314072D01*
X116662825Y-85264494D01*
X116900430Y-85147954D01*
X117110734Y-84987298D01*
X117285655Y-84788701D01*
X117418470Y-84559795D01*
X117455625Y-84451106D01*
X117533646Y-84639465D01*
X117681387Y-84860575D01*
X117869425Y-85048613D01*
X118090535Y-85196354D01*
X118336220Y-85298120D01*
X118597037Y-85350000D01*
X118862963Y-85350000D01*
X119123780Y-85298120D01*
X119369465Y-85196354D01*
X119590575Y-85048613D01*
X119778613Y-84860575D01*
X119926354Y-84639465D01*
X120000000Y-84461668D01*
X120073646Y-84639465D01*
X120221387Y-84860575D01*
X120409425Y-85048613D01*
X120630535Y-85196354D01*
X120876220Y-85298120D01*
X121137037Y-85350000D01*
X121402963Y-85350000D01*
X121663780Y-85298120D01*
X121909465Y-85196354D01*
X122130575Y-85048613D01*
X122318613Y-84860575D01*
X122466354Y-84639465D01*
X122540000Y-84461668D01*
X122613646Y-84639465D01*
X122761387Y-84860575D01*
X122949425Y-85048613D01*
X123170535Y-85196354D01*
X123416220Y-85298120D01*
X123677037Y-85350000D01*
X123942963Y-85350000D01*
X124203780Y-85298120D01*
X124449465Y-85196354D01*
X124670575Y-85048613D01*
X124858613Y-84860575D01*
X125006354Y-84639465D01*
X125080000Y-84461668D01*
X125153646Y-84639465D01*
X125301387Y-84860575D01*
X125489425Y-85048613D01*
X125710535Y-85196354D01*
X125956220Y-85298120D01*
X126217037Y-85350000D01*
X126482963Y-85350000D01*
X126743780Y-85298120D01*
X126989465Y-85196354D01*
X127210575Y-85048613D01*
X127398613Y-84860575D01*
X127546354Y-84639465D01*
X127648120Y-84393780D01*
X127700000Y-84132963D01*
X127700000Y-83867037D01*
X127648120Y-83606220D01*
X127546354Y-83360535D01*
X127398613Y-83139425D01*
X127210575Y-82951387D01*
X126989465Y-82803646D01*
X126743780Y-82701880D01*
X126482963Y-82650000D01*
X126217037Y-82650000D01*
X125956220Y-82701880D01*
X125710535Y-82803646D01*
X125489425Y-82951387D01*
X125301387Y-83139425D01*
X125153646Y-83360535D01*
X125080000Y-83538332D01*
X125006354Y-83360535D01*
X124858613Y-83139425D01*
X124670575Y-82951387D01*
X124449465Y-82803646D01*
X124203780Y-82701880D01*
X123942963Y-82650000D01*
X123677037Y-82650000D01*
X123416220Y-82701880D01*
X123170535Y-82803646D01*
X122949425Y-82951387D01*
X122761387Y-83139425D01*
X122613646Y-83360535D01*
X122540000Y-83538332D01*
X122466354Y-83360535D01*
X122318613Y-83139425D01*
X122130575Y-82951387D01*
X121909465Y-82803646D01*
X121663780Y-82701880D01*
X121402963Y-82650000D01*
X121137037Y-82650000D01*
X120876220Y-82701880D01*
X120630535Y-82803646D01*
X120409425Y-82951387D01*
X120221387Y-83139425D01*
X120073646Y-83360535D01*
X120000000Y-83538332D01*
X119926354Y-83360535D01*
X119778613Y-83139425D01*
X119590575Y-82951387D01*
X119369465Y-82803646D01*
X119123780Y-82701880D01*
X118862963Y-82650000D01*
X118597037Y-82650000D01*
X118336220Y-82701880D01*
X118090535Y-82803646D01*
X117869425Y-82951387D01*
X117681387Y-83139425D01*
X117533646Y-83360535D01*
X117455625Y-83548894D01*
X117418470Y-83440205D01*
X117285655Y-83211299D01*
X117110734Y-83012702D01*
X116900430Y-82852046D01*
X116662825Y-82735506D01*
X116499375Y-82685928D01*
X116290000Y-82779088D01*
X116090000Y-82779088D01*
X115880625Y-82685928D01*
X115717175Y-82735506D01*
X115479570Y-82852046D01*
X115269266Y-83012702D01*
X115094345Y-83211299D01*
X115002419Y-83369733D01*
X115002419Y-83150000D01*
X114992765Y-83051983D01*
X114964175Y-82957733D01*
X114917746Y-82870871D01*
X114855264Y-82794736D01*
X114779129Y-82732254D01*
X114692267Y-82685825D01*
X114598017Y-82657235D01*
X114500000Y-82647581D01*
X112800000Y-82647581D01*
X112701983Y-82657235D01*
X112607733Y-82685825D01*
X112520871Y-82732254D01*
X112444736Y-82794736D01*
X112382254Y-82870871D01*
X112335825Y-82957733D01*
X112307235Y-83051983D01*
X112297581Y-83150000D01*
X112297581Y-83412500D01*
X111335445Y-83412500D01*
X111320145Y-83362062D01*
X111250614Y-83231978D01*
X111157041Y-83117959D01*
X111043022Y-83024386D01*
X110912938Y-82954855D01*
X110771790Y-82912039D01*
X110625000Y-82897581D01*
X109375000Y-82897581D01*
X109228210Y-82912039D01*
X109087062Y-82954855D01*
X108956978Y-83024386D01*
X108842959Y-83117959D01*
X108749386Y-83231978D01*
X108710684Y-83304384D01*
X108688642Y-83300000D01*
X108511358Y-83300000D01*
X108398301Y-83322488D01*
X108348017Y-83307235D01*
X108250000Y-83297581D01*
X107350000Y-83297581D01*
X107251983Y-83307235D01*
X107157733Y-83335825D01*
X107070871Y-83382254D01*
X106994736Y-83444736D01*
X106932254Y-83520871D01*
X106885825Y-83607733D01*
X106857235Y-83701983D01*
X106847581Y-83800000D01*
X106726996Y-83800000D01*
X106742765Y-83748017D01*
X106752419Y-83650000D01*
X106752419Y-82850000D01*
X106742765Y-82751983D01*
X106714175Y-82657733D01*
X106667746Y-82570871D01*
X106605264Y-82494736D01*
X106550000Y-82449382D01*
X106550000Y-82239949D01*
X111090275Y-77699675D01*
X111262520Y-77665414D01*
X111426310Y-77597570D01*
X111573717Y-77499076D01*
X111699076Y-77373717D01*
X111797570Y-77226310D01*
X111865414Y-77062520D01*
X111900000Y-76888642D01*
X111900000Y-76711358D01*
X111865414Y-76537480D01*
X111797570Y-76373690D01*
X111699076Y-76226283D01*
X111573717Y-76100924D01*
X111426310Y-76002430D01*
X111262520Y-75934586D01*
X111088642Y-75900000D01*
X110911358Y-75900000D01*
X110737480Y-75934586D01*
X110573690Y-76002430D01*
X110426283Y-76100924D01*
X110300924Y-76226283D01*
X110202430Y-76373690D01*
X110134586Y-76537480D01*
X110100325Y-76709725D01*
X105379342Y-81430709D01*
X105352631Y-81452630D01*
X105330710Y-81479341D01*
X105330708Y-81479343D01*
X105265155Y-81559219D01*
X105200155Y-81680826D01*
X105160129Y-81812777D01*
X105146613Y-81950000D01*
X105150001Y-81984397D01*
X105150001Y-82389958D01*
X105074325Y-82430408D01*
X104982041Y-82317959D01*
X104868022Y-82224386D01*
X104737939Y-82154855D01*
X104596790Y-82112039D01*
X104450001Y-82097581D01*
X103549999Y-82097581D01*
X103403210Y-82112039D01*
X103262061Y-82154855D01*
X103131978Y-82224386D01*
X103017959Y-82317959D01*
X102924386Y-82431978D01*
X102854855Y-82562061D01*
X102812039Y-82703210D01*
X102797581Y-82849999D01*
X101325000Y-82849999D01*
X101325000Y-75962819D01*
X101431978Y-76050614D01*
X101562062Y-76120145D01*
X101703210Y-76162961D01*
X101850000Y-76177419D01*
X102775000Y-76177419D01*
X102921790Y-76162961D01*
X103062938Y-76120145D01*
X103193022Y-76050614D01*
X103307041Y-75957041D01*
X103400614Y-75843022D01*
X103470145Y-75712938D01*
X103512961Y-75571790D01*
X103520032Y-75500000D01*
X104000000Y-75500000D01*
X104073259Y-75492785D01*
X104072581Y-75675000D01*
X104082235Y-75773017D01*
X104110825Y-75867267D01*
X104157254Y-75954129D01*
X104219736Y-76030264D01*
X104295871Y-76092746D01*
X104382733Y-76139175D01*
X104476983Y-76167765D01*
X104575000Y-76177419D01*
X105062500Y-76175000D01*
X105187500Y-76050000D01*
X105187500Y-74900000D01*
X105387500Y-74900000D01*
X105387500Y-76050000D01*
X105512500Y-76175000D01*
X106000000Y-76177419D01*
X106098017Y-76167765D01*
X106192267Y-76139175D01*
X106279129Y-76092746D01*
X106355264Y-76030264D01*
X106417746Y-75954129D01*
X106464175Y-75867267D01*
X106492765Y-75773017D01*
X106502419Y-75675000D01*
X106500000Y-75025000D01*
X106375000Y-74900000D01*
X105387500Y-74900000D01*
X105187500Y-74900000D01*
X105167500Y-74900000D01*
X105167500Y-74700000D01*
X105187500Y-74700000D01*
X105187500Y-74680000D01*
X105387500Y-74680000D01*
X105387500Y-74700000D01*
X106375000Y-74700000D01*
X106500000Y-74575000D01*
X106502419Y-73925000D01*
X106492765Y-73826983D01*
X106487047Y-73808134D01*
X106553553Y-73753553D01*
X106615735Y-73677785D01*
X106661940Y-73591342D01*
X106690393Y-73497545D01*
X106700000Y-73400000D01*
X106700000Y-73108661D01*
X106739129Y-73087746D01*
X106776656Y-73056949D01*
X106904249Y-73115463D01*
X106975581Y-73137094D01*
X107130000Y-73039267D01*
X107130000Y-72270000D01*
X107110000Y-72270000D01*
X107110000Y-72070000D01*
X107130000Y-72070000D01*
X107130000Y-71000000D01*
X107110000Y-71000000D01*
X107110000Y-70800000D01*
X107130000Y-70800000D01*
X107130000Y-70030733D01*
X107330000Y-70030733D01*
X107330000Y-70800000D01*
X107350000Y-70800000D01*
X107350000Y-71000000D01*
X107330000Y-71000000D01*
X107330000Y-72070000D01*
X107350000Y-72070000D01*
X107350000Y-72270000D01*
X107330000Y-72270000D01*
X107330000Y-73039267D01*
X107484419Y-73137094D01*
X107555751Y-73115463D01*
X107733942Y-73033745D01*
X107845302Y-72953175D01*
X107850155Y-72969174D01*
X107915155Y-73090781D01*
X107953270Y-73137224D01*
X108002630Y-73197369D01*
X108029343Y-73219292D01*
X109280708Y-74470658D01*
X109302630Y-74497370D01*
X109329341Y-74519291D01*
X109329342Y-74519292D01*
X109409219Y-74584845D01*
X109530825Y-74649845D01*
X109662776Y-74689872D01*
X109800000Y-74703387D01*
X109834390Y-74700000D01*
X125027666Y-74700000D01*
X125173690Y-74797570D01*
X125337480Y-74865414D01*
X125511358Y-74900000D01*
X125688642Y-74900000D01*
X125862520Y-74865414D01*
X125918046Y-74842414D01*
X134900000Y-74842414D01*
X134900000Y-75157586D01*
X134961487Y-75466703D01*
X135082098Y-75757884D01*
X135257199Y-76019941D01*
X135480059Y-76242801D01*
X135742116Y-76417902D01*
X136033297Y-76538513D01*
X136342414Y-76600000D01*
X136657586Y-76600000D01*
X136966703Y-76538513D01*
X137257884Y-76417902D01*
X137519941Y-76242801D01*
X137742801Y-76019941D01*
X137917902Y-75757884D01*
X138038513Y-75466703D01*
X138100000Y-75157586D01*
X138100000Y-74842414D01*
X138038513Y-74533297D01*
X137917902Y-74242116D01*
X137742801Y-73980059D01*
X137519941Y-73757199D01*
X137257884Y-73582098D01*
X136966703Y-73461487D01*
X136657586Y-73400000D01*
X136342414Y-73400000D01*
X136033297Y-73461487D01*
X135742116Y-73582098D01*
X135480059Y-73757199D01*
X135257199Y-73980059D01*
X135082098Y-74242116D01*
X134961487Y-74533297D01*
X134900000Y-74842414D01*
X125918046Y-74842414D01*
X126026310Y-74797570D01*
X126173717Y-74699076D01*
X126299076Y-74573717D01*
X126397570Y-74426310D01*
X126465414Y-74262520D01*
X126500000Y-74088642D01*
X126500000Y-73911358D01*
X126497741Y-73900000D01*
X126565613Y-73900000D01*
X126600000Y-73903387D01*
X126634387Y-73900000D01*
X126634390Y-73900000D01*
X126685869Y-73894930D01*
X126711358Y-73900000D01*
X126888642Y-73900000D01*
X127062520Y-73865414D01*
X127226310Y-73797570D01*
X127373717Y-73699076D01*
X127499076Y-73573717D01*
X127597570Y-73426310D01*
X127665414Y-73262520D01*
X127700000Y-73088642D01*
X127700000Y-72911358D01*
X127691773Y-72870000D01*
X127760536Y-72870000D01*
X127911358Y-72900000D01*
X128088642Y-72900000D01*
X128262520Y-72865414D01*
X128426310Y-72797570D01*
X128573717Y-72699076D01*
X128699076Y-72573717D01*
X128797570Y-72426310D01*
X128865414Y-72262520D01*
X128900000Y-72088642D01*
X128900000Y-71911358D01*
X128865414Y-71737480D01*
X128797570Y-71573690D01*
X128699076Y-71426283D01*
X128573717Y-71300924D01*
X128426310Y-71202430D01*
X128262520Y-71134586D01*
X128088642Y-71100000D01*
X127911358Y-71100000D01*
X127737480Y-71134586D01*
X127573690Y-71202430D01*
X127426283Y-71300924D01*
X127300924Y-71426283D01*
X127271713Y-71470000D01*
X125568377Y-71470000D01*
X125597570Y-71426310D01*
X125665414Y-71262520D01*
X125700000Y-71088642D01*
X125700000Y-70911358D01*
X125665414Y-70737480D01*
X125597570Y-70573690D01*
X125499076Y-70426283D01*
X125373717Y-70300924D01*
X125226310Y-70202430D01*
X125062520Y-70134586D01*
X124888642Y-70100000D01*
X124711358Y-70100000D01*
X124537480Y-70134586D01*
X124373690Y-70202430D01*
X124226283Y-70300924D01*
X124100924Y-70426283D01*
X124051668Y-70500000D01*
X111956707Y-70500000D01*
X111926189Y-70426322D01*
X111816751Y-70262537D01*
X111677463Y-70123249D01*
X111513678Y-70013811D01*
X111331689Y-69938429D01*
X111138491Y-69900000D01*
X110941509Y-69900000D01*
X110748311Y-69938429D01*
X110566322Y-70013811D01*
X110405000Y-70121603D01*
X110243678Y-70013811D01*
X110061689Y-69938429D01*
X109868491Y-69900000D01*
X109671509Y-69900000D01*
X109478311Y-69938429D01*
X109296322Y-70013811D01*
X109135000Y-70121603D01*
X108973678Y-70013811D01*
X108791689Y-69938429D01*
X108598491Y-69900000D01*
X108401509Y-69900000D01*
X108208311Y-69938429D01*
X108026322Y-70013811D01*
X107862537Y-70123249D01*
X107859029Y-70126757D01*
X107733942Y-70036255D01*
X107555751Y-69954537D01*
X107484419Y-69932906D01*
X107330000Y-70030733D01*
X107130000Y-70030733D01*
X106975581Y-69932906D01*
X106904249Y-69954537D01*
X106726058Y-70036255D01*
X106700000Y-70055108D01*
X106700000Y-69725000D01*
X106691774Y-69634676D01*
X106664703Y-69540471D01*
X106619774Y-69453358D01*
X106558714Y-69376684D01*
X106483868Y-69313395D01*
X106480999Y-69311807D01*
X106492765Y-69273017D01*
X106502419Y-69175000D01*
X106500000Y-68525000D01*
X106375000Y-68400000D01*
X105387500Y-68400000D01*
X105387500Y-68420000D01*
X105187500Y-68420000D01*
X105187500Y-68400000D01*
X105167500Y-68400000D01*
X105167500Y-68200000D01*
X105187500Y-68200000D01*
X105187500Y-68180000D01*
X105387500Y-68180000D01*
X105387500Y-68200000D01*
X106375000Y-68200000D01*
X106392526Y-68182475D01*
X106680704Y-68470653D01*
X106702630Y-68497370D01*
X106809219Y-68584845D01*
X106930825Y-68649845D01*
X107062776Y-68689872D01*
X107165610Y-68700000D01*
X107165612Y-68700000D01*
X107199999Y-68703387D01*
X107234386Y-68700000D01*
X128765613Y-68700000D01*
X128800000Y-68703387D01*
X128834387Y-68700000D01*
X128834390Y-68700000D01*
X128937224Y-68689872D01*
X129069175Y-68649845D01*
X129190781Y-68584845D01*
X129297370Y-68497370D01*
X129319296Y-68470653D01*
X131216058Y-66573892D01*
X131297037Y-66590000D01*
X131562963Y-66590000D01*
X131823780Y-66538120D01*
X132069465Y-66436354D01*
X132290575Y-66288613D01*
X132478613Y-66100575D01*
X132626354Y-65879465D01*
X132728120Y-65633780D01*
X132780000Y-65372963D01*
X132780000Y-65107037D01*
X132728120Y-64846220D01*
X132626354Y-64600535D01*
X132478613Y-64379425D01*
X132290575Y-64191387D01*
X132069465Y-64043646D01*
X131890201Y-63969393D01*
X131992061Y-63934613D01*
X132144278Y-63853250D01*
X132227238Y-63638660D01*
X131430000Y-62841421D01*
X130632762Y-63638660D01*
X130715722Y-63853250D01*
X130954435Y-63970440D01*
X130962250Y-63972519D01*
X130790535Y-64043646D01*
X130569425Y-64191387D01*
X130381387Y-64379425D01*
X130233646Y-64600535D01*
X130131880Y-64846220D01*
X130080000Y-65107037D01*
X130080000Y-65372963D01*
X130131880Y-65633780D01*
X130144882Y-65665169D01*
X128510051Y-67300000D01*
X107489949Y-67300000D01*
X106203044Y-66013095D01*
X106265414Y-65862520D01*
X106300000Y-65688642D01*
X106300000Y-65511358D01*
X106265414Y-65337480D01*
X106197570Y-65173690D01*
X106099076Y-65026283D01*
X105973717Y-64900924D01*
X105826310Y-64802430D01*
X105662520Y-64734586D01*
X105488642Y-64700000D01*
X105311358Y-64700000D01*
X105250000Y-64712205D01*
X105250000Y-63138698D01*
X105368022Y-63075614D01*
X105482041Y-62982041D01*
X105575614Y-62868022D01*
X105640403Y-62746810D01*
X107214275Y-62746810D01*
X107249458Y-63010399D01*
X107335387Y-63262061D01*
X107416750Y-63414278D01*
X107631340Y-63497238D01*
X108428579Y-62700000D01*
X108711421Y-62700000D01*
X109508660Y-63497238D01*
X109723250Y-63414278D01*
X109840440Y-63175565D01*
X109908807Y-62918577D01*
X109925725Y-62653190D01*
X109890542Y-62389601D01*
X109804613Y-62137939D01*
X109723250Y-61985722D01*
X109508660Y-61902762D01*
X108711421Y-62700000D01*
X108428579Y-62700000D01*
X107631340Y-61902762D01*
X107416750Y-61985722D01*
X107299560Y-62224435D01*
X107231193Y-62481423D01*
X107214275Y-62746810D01*
X105640403Y-62746810D01*
X105645145Y-62737939D01*
X105687961Y-62596790D01*
X105702419Y-62450001D01*
X105702419Y-61549999D01*
X105687961Y-61403210D01*
X105645145Y-61262061D01*
X105575614Y-61131978D01*
X105548271Y-61098660D01*
X107772762Y-61098660D01*
X107855722Y-61313250D01*
X108094435Y-61430440D01*
X108103346Y-61432811D01*
X108007939Y-61465387D01*
X107855722Y-61546750D01*
X107772762Y-61761340D01*
X108570000Y-62558579D01*
X109367238Y-61761340D01*
X109284278Y-61546750D01*
X109045565Y-61429560D01*
X109036654Y-61427189D01*
X109132061Y-61394613D01*
X109284278Y-61313250D01*
X109367238Y-61098660D01*
X108570000Y-60301421D01*
X107772762Y-61098660D01*
X105548271Y-61098660D01*
X105482041Y-61017959D01*
X105368022Y-60924386D01*
X105237939Y-60854855D01*
X105096790Y-60812039D01*
X104950001Y-60797581D01*
X104299999Y-60797581D01*
X104153210Y-60812039D01*
X104012061Y-60854855D01*
X103881978Y-60924386D01*
X103767959Y-61017959D01*
X103674386Y-61131978D01*
X103604855Y-61262061D01*
X103600000Y-61278066D01*
X103595145Y-61262061D01*
X103525614Y-61131978D01*
X103432041Y-61017959D01*
X103318022Y-60924386D01*
X103283836Y-60906113D01*
X103983139Y-60206810D01*
X107214275Y-60206810D01*
X107249458Y-60470399D01*
X107335387Y-60722061D01*
X107416750Y-60874278D01*
X107631340Y-60957238D01*
X108428579Y-60160000D01*
X108711421Y-60160000D01*
X109508660Y-60957238D01*
X109723250Y-60874278D01*
X109840440Y-60635565D01*
X109908807Y-60378577D01*
X109925725Y-60113190D01*
X109890542Y-59849601D01*
X109804613Y-59597939D01*
X109723250Y-59445722D01*
X109508660Y-59362762D01*
X108711421Y-60160000D01*
X108428579Y-60160000D01*
X107631340Y-59362762D01*
X107416750Y-59445722D01*
X107299560Y-59684435D01*
X107231193Y-59941423D01*
X107214275Y-60206810D01*
X103983139Y-60206810D01*
X105869950Y-58320000D01*
X107414094Y-58320000D01*
X107521387Y-58480575D01*
X107709425Y-58668613D01*
X107930535Y-58816354D01*
X108109799Y-58890607D01*
X108007939Y-58925387D01*
X107855722Y-59006750D01*
X107772762Y-59221340D01*
X108570000Y-60018579D01*
X109367238Y-59221340D01*
X109284278Y-59006750D01*
X109045565Y-58889560D01*
X109037750Y-58887481D01*
X109209465Y-58816354D01*
X109430575Y-58668613D01*
X109618613Y-58480575D01*
X109766354Y-58259465D01*
X109868120Y-58013780D01*
X109920000Y-57752963D01*
X109920000Y-57487037D01*
X109868120Y-57226220D01*
X109766354Y-56980535D01*
X109618613Y-56759425D01*
X109430575Y-56571387D01*
X109209465Y-56423646D01*
X109031668Y-56350000D01*
X109209465Y-56276354D01*
X109430575Y-56128613D01*
X109618613Y-55940575D01*
X109766354Y-55719465D01*
X109868120Y-55473780D01*
X109920000Y-55212963D01*
X109920000Y-54947037D01*
X109868120Y-54686220D01*
X109766354Y-54440535D01*
X109618613Y-54219425D01*
X109430575Y-54031387D01*
X109209465Y-53883646D01*
X109031668Y-53810000D01*
X109209465Y-53736354D01*
X109430575Y-53588613D01*
X109618613Y-53400575D01*
X109766354Y-53179465D01*
X109868120Y-52933780D01*
X109920000Y-52672963D01*
X109920000Y-52407037D01*
X109868120Y-52146220D01*
X109766354Y-51900535D01*
X109618613Y-51679425D01*
X109430575Y-51491387D01*
X109209465Y-51343646D01*
X109031668Y-51270000D01*
X109209465Y-51196354D01*
X109430575Y-51048613D01*
X109618613Y-50860575D01*
X109766354Y-50639465D01*
X109868120Y-50393780D01*
X109920000Y-50132963D01*
X109920000Y-49867037D01*
X109868120Y-49606220D01*
X109766354Y-49360535D01*
X109618613Y-49139425D01*
X109430575Y-48951387D01*
X109209465Y-48803646D01*
X109031668Y-48730000D01*
X109209465Y-48656354D01*
X109430575Y-48508613D01*
X109618613Y-48320575D01*
X109766354Y-48099465D01*
X109868120Y-47853780D01*
X109920000Y-47592963D01*
X109920000Y-47327037D01*
X109868120Y-47066220D01*
X109766354Y-46820535D01*
X109618613Y-46599425D01*
X109430575Y-46411387D01*
X109209465Y-46263646D01*
X109031668Y-46190000D01*
X109209465Y-46116354D01*
X109430575Y-45968613D01*
X109618613Y-45780575D01*
X109766354Y-45559465D01*
X109868120Y-45313780D01*
X109920000Y-45052963D01*
X109920000Y-44787037D01*
X109868120Y-44526220D01*
X109766354Y-44280535D01*
X109618613Y-44059425D01*
X109430575Y-43871387D01*
X109209465Y-43723646D01*
X109031668Y-43650000D01*
X109209465Y-43576354D01*
X109430575Y-43428613D01*
X109618613Y-43240575D01*
X109766354Y-43019465D01*
X109868120Y-42773780D01*
X109920000Y-42512963D01*
X109920000Y-42247037D01*
X109868120Y-41986220D01*
X109766354Y-41740535D01*
X109618613Y-41519425D01*
X109430575Y-41331387D01*
X109209465Y-41183646D01*
X109030201Y-41109393D01*
X109132061Y-41074613D01*
X109284278Y-40993250D01*
X109367238Y-40778660D01*
X108570000Y-39981421D01*
X107772762Y-40778660D01*
X107855722Y-40993250D01*
X108094435Y-41110440D01*
X108102250Y-41112519D01*
X107930535Y-41183646D01*
X107709425Y-41331387D01*
X107521387Y-41519425D01*
X107373646Y-41740535D01*
X107271880Y-41986220D01*
X107220000Y-42247037D01*
X107220000Y-42512963D01*
X107271880Y-42773780D01*
X107373646Y-43019465D01*
X107521387Y-43240575D01*
X107709425Y-43428613D01*
X107930535Y-43576354D01*
X108108332Y-43650000D01*
X107930535Y-43723646D01*
X107709425Y-43871387D01*
X107521387Y-44059425D01*
X107373646Y-44280535D01*
X107271880Y-44526220D01*
X107220000Y-44787037D01*
X107220000Y-45052963D01*
X107271880Y-45313780D01*
X107373646Y-45559465D01*
X107521387Y-45780575D01*
X107709425Y-45968613D01*
X107930535Y-46116354D01*
X108108332Y-46190000D01*
X107930535Y-46263646D01*
X107709425Y-46411387D01*
X107521387Y-46599425D01*
X107373646Y-46820535D01*
X107271880Y-47066220D01*
X107220000Y-47327037D01*
X107220000Y-47592963D01*
X107271880Y-47853780D01*
X107373646Y-48099465D01*
X107521387Y-48320575D01*
X107709425Y-48508613D01*
X107930535Y-48656354D01*
X108108332Y-48730000D01*
X107930535Y-48803646D01*
X107709425Y-48951387D01*
X107521387Y-49139425D01*
X107373646Y-49360535D01*
X107271880Y-49606220D01*
X107220000Y-49867037D01*
X107220000Y-50132963D01*
X107271880Y-50393780D01*
X107373646Y-50639465D01*
X107521387Y-50860575D01*
X107709425Y-51048613D01*
X107930535Y-51196354D01*
X108108332Y-51270000D01*
X107930535Y-51343646D01*
X107709425Y-51491387D01*
X107521387Y-51679425D01*
X107373646Y-51900535D01*
X107271880Y-52146220D01*
X107220000Y-52407037D01*
X107220000Y-52672963D01*
X107271880Y-52933780D01*
X107373646Y-53179465D01*
X107521387Y-53400575D01*
X107709425Y-53588613D01*
X107930535Y-53736354D01*
X108108332Y-53810000D01*
X107930535Y-53883646D01*
X107709425Y-54031387D01*
X107521387Y-54219425D01*
X107373646Y-54440535D01*
X107271880Y-54686220D01*
X107220000Y-54947037D01*
X107220000Y-55212963D01*
X107271880Y-55473780D01*
X107373646Y-55719465D01*
X107521387Y-55940575D01*
X107709425Y-56128613D01*
X107930535Y-56276354D01*
X108108332Y-56350000D01*
X107930535Y-56423646D01*
X107709425Y-56571387D01*
X107521387Y-56759425D01*
X107414094Y-56920000D01*
X105614387Y-56920000D01*
X105580000Y-56916613D01*
X105545613Y-56920000D01*
X105545610Y-56920000D01*
X105442776Y-56930128D01*
X105310825Y-56970155D01*
X105189219Y-57035155D01*
X105082630Y-57122630D01*
X105060709Y-57149341D01*
X102104342Y-60105709D01*
X102077631Y-60127630D01*
X102055710Y-60154341D01*
X102055708Y-60154343D01*
X101990155Y-60234219D01*
X101925155Y-60355826D01*
X101885129Y-60487777D01*
X101871613Y-60625000D01*
X101875001Y-60659397D01*
X101875001Y-60901390D01*
X101831978Y-60924386D01*
X101717959Y-61017959D01*
X101624386Y-61131978D01*
X101554855Y-61262061D01*
X101512039Y-61403210D01*
X101497581Y-61549999D01*
X101497581Y-62450001D01*
X101512039Y-62596790D01*
X101554855Y-62737939D01*
X101624386Y-62868022D01*
X101717959Y-62982041D01*
X101831978Y-63075614D01*
X101950001Y-63138699D01*
X101950000Y-64949382D01*
X101894736Y-64994736D01*
X101832254Y-65070871D01*
X101785825Y-65157733D01*
X101757235Y-65251983D01*
X101747581Y-65350000D01*
X101747581Y-66100000D01*
X101325000Y-66100000D01*
X101325000Y-44842414D01*
X101900000Y-44842414D01*
X101900000Y-45157586D01*
X101961487Y-45466703D01*
X102082098Y-45757884D01*
X102257199Y-46019941D01*
X102480059Y-46242801D01*
X102742116Y-46417902D01*
X103033297Y-46538513D01*
X103342414Y-46600000D01*
X103657586Y-46600000D01*
X103966703Y-46538513D01*
X104257884Y-46417902D01*
X104519941Y-46242801D01*
X104742801Y-46019941D01*
X104917902Y-45757884D01*
X105038513Y-45466703D01*
X105100000Y-45157586D01*
X105100000Y-44842414D01*
X105038513Y-44533297D01*
X104917902Y-44242116D01*
X104742801Y-43980059D01*
X104519941Y-43757199D01*
X104257884Y-43582098D01*
X103966703Y-43461487D01*
X103657586Y-43400000D01*
X103342414Y-43400000D01*
X103033297Y-43461487D01*
X102742116Y-43582098D01*
X102480059Y-43757199D01*
X102257199Y-43980059D01*
X102082098Y-44242116D01*
X101961487Y-44533297D01*
X101900000Y-44842414D01*
X101325000Y-44842414D01*
X101325000Y-42620632D01*
X101401397Y-41649912D01*
X101623875Y-40723226D01*
X101988583Y-39842744D01*
X102111344Y-39642414D01*
X103200000Y-39642414D01*
X103200000Y-39957586D01*
X103261487Y-40266703D01*
X103382098Y-40557884D01*
X103557199Y-40819941D01*
X103780059Y-41042801D01*
X104042116Y-41217902D01*
X104333297Y-41338513D01*
X104642414Y-41400000D01*
X104957586Y-41400000D01*
X105266703Y-41338513D01*
X105557884Y-41217902D01*
X105819941Y-41042801D01*
X106042801Y-40819941D01*
X106217902Y-40557884D01*
X106338513Y-40266703D01*
X106400000Y-39957586D01*
X106400000Y-39886810D01*
X107214275Y-39886810D01*
X107249458Y-40150399D01*
X107335387Y-40402061D01*
X107416750Y-40554278D01*
X107631340Y-40637238D01*
X108428579Y-39840000D01*
X108711421Y-39840000D01*
X109508660Y-40637238D01*
X109723250Y-40554278D01*
X109840440Y-40315565D01*
X109908807Y-40058577D01*
X109925725Y-39793190D01*
X109890542Y-39529601D01*
X109804613Y-39277939D01*
X109723250Y-39125722D01*
X109508660Y-39042762D01*
X108711421Y-39840000D01*
X108428579Y-39840000D01*
X107631340Y-39042762D01*
X107416750Y-39125722D01*
X107299560Y-39364435D01*
X107231193Y-39621423D01*
X107214275Y-39886810D01*
X106400000Y-39886810D01*
X106400000Y-39642414D01*
X106338513Y-39333297D01*
X106217902Y-39042116D01*
X106042801Y-38780059D01*
X105819941Y-38557199D01*
X105557884Y-38382098D01*
X105266703Y-38261487D01*
X105151944Y-38238660D01*
X107772762Y-38238660D01*
X107855722Y-38453250D01*
X108094435Y-38570440D01*
X108103346Y-38572811D01*
X108007939Y-38605387D01*
X107855722Y-38686750D01*
X107772762Y-38901340D01*
X108570000Y-39698579D01*
X109367238Y-38901340D01*
X109284278Y-38686750D01*
X109045565Y-38569560D01*
X109036654Y-38567189D01*
X109132061Y-38534613D01*
X109284278Y-38453250D01*
X109367238Y-38238660D01*
X108570000Y-37441421D01*
X107772762Y-38238660D01*
X105151944Y-38238660D01*
X104957586Y-38200000D01*
X104642414Y-38200000D01*
X104333297Y-38261487D01*
X104042116Y-38382098D01*
X103780059Y-38557199D01*
X103557199Y-38780059D01*
X103382098Y-39042116D01*
X103261487Y-39333297D01*
X103200000Y-39642414D01*
X102111344Y-39642414D01*
X102486534Y-39030159D01*
X103105474Y-38305474D01*
X103830157Y-37686536D01*
X104642744Y-37188583D01*
X105523226Y-36823875D01*
X106449910Y-36601398D01*
X107420632Y-36525000D01*
X107573818Y-36525000D01*
X107416750Y-36585722D01*
G37*
X107416750Y-36585722D02*
X107299560Y-36824435D01*
X107231193Y-37081423D01*
X107214275Y-37346810D01*
X107249458Y-37610399D01*
X107335387Y-37862061D01*
X107416750Y-38014278D01*
X107631340Y-38097238D01*
X108428579Y-37300000D01*
X108414436Y-37285858D01*
X108555858Y-37144436D01*
X108570000Y-37158579D01*
X108584142Y-37144436D01*
X108725564Y-37285858D01*
X108711421Y-37300000D01*
X109508660Y-38097238D01*
X109723250Y-38014278D01*
X109840440Y-37775565D01*
X109908807Y-37518577D01*
X109925725Y-37253190D01*
X109890542Y-36989601D01*
X109804613Y-36737939D01*
X109723250Y-36585722D01*
X109566182Y-36525000D01*
X130324208Y-36525000D01*
X130233646Y-36660535D01*
X130131880Y-36906220D01*
X130080000Y-37167037D01*
X130080000Y-37432963D01*
X130117676Y-37622374D01*
X120629342Y-47110709D01*
X120602631Y-47132630D01*
X120580710Y-47159341D01*
X120580708Y-47159343D01*
X120515155Y-47239219D01*
X120450155Y-47360826D01*
X120410129Y-47492777D01*
X120396613Y-47630000D01*
X120400001Y-47664397D01*
X120400000Y-53210051D01*
X109423435Y-64186616D01*
X109209465Y-64043646D01*
X109030201Y-63969393D01*
X109132061Y-63934613D01*
X109284278Y-63853250D01*
X109367238Y-63638660D01*
X108570000Y-62841421D01*
X107772762Y-63638660D01*
X107855722Y-63853250D01*
X108094435Y-63970440D01*
X108102250Y-63972519D01*
X107930535Y-64043646D01*
X107709425Y-64191387D01*
X107521387Y-64379425D01*
X107373646Y-64600535D01*
X107271880Y-64846220D01*
X107220000Y-65107037D01*
X107220000Y-65372963D01*
X107271880Y-65633780D01*
X107373646Y-65879465D01*
X107521387Y-66100575D01*
X107709425Y-66288613D01*
X107930535Y-66436354D01*
X108176220Y-66538120D01*
X108437037Y-66590000D01*
X108702963Y-66590000D01*
X108963780Y-66538120D01*
X109209465Y-66436354D01*
X109430575Y-66288613D01*
X109618613Y-66100575D01*
X109766354Y-65879465D01*
X109808650Y-65777353D01*
X109857370Y-65737370D01*
X109879296Y-65710653D01*
X112843139Y-62746810D01*
X130074275Y-62746810D01*
X130109458Y-63010399D01*
X130195387Y-63262061D01*
X130276750Y-63414278D01*
X130491340Y-63497238D01*
X131288579Y-62700000D01*
X131571421Y-62700000D01*
X132368660Y-63497238D01*
X132583250Y-63414278D01*
X132700440Y-63175565D01*
X132768807Y-62918577D01*
X132785725Y-62653190D01*
X132750542Y-62389601D01*
X132664613Y-62137939D01*
X132583250Y-61985722D01*
X132368660Y-61902762D01*
X131571421Y-62700000D01*
X131288579Y-62700000D01*
X130491340Y-61902762D01*
X130276750Y-61985722D01*
X130159560Y-62224435D01*
X130091193Y-62481423D01*
X130074275Y-62746810D01*
X112843139Y-62746810D01*
X121570658Y-54019291D01*
X121597369Y-53997370D01*
X121628807Y-53959063D01*
X121684845Y-53890782D01*
X121749845Y-53769175D01*
X121759801Y-53736354D01*
X121789872Y-53637224D01*
X121800000Y-53534390D01*
X121800000Y-53534388D01*
X121803387Y-53500001D01*
X121800000Y-53465614D01*
X121800000Y-47919949D01*
X130096658Y-39623292D01*
X130080000Y-39707037D01*
X130080000Y-39972963D01*
X130131880Y-40233780D01*
X130233646Y-40479465D01*
X130381387Y-40700575D01*
X130569425Y-40888613D01*
X130790535Y-41036354D01*
X130968332Y-41110000D01*
X130790535Y-41183646D01*
X130569425Y-41331387D01*
X130381387Y-41519425D01*
X130233646Y-41740535D01*
X130131880Y-41986220D01*
X130080000Y-42247037D01*
X130080000Y-42512963D01*
X130131880Y-42773780D01*
X130233646Y-43019465D01*
X130381387Y-43240575D01*
X130569425Y-43428613D01*
X130790535Y-43576354D01*
X130968332Y-43650000D01*
X130790535Y-43723646D01*
X130569425Y-43871387D01*
X130381387Y-44059425D01*
X130233646Y-44280535D01*
X130131880Y-44526220D01*
X130080000Y-44787037D01*
X130080000Y-45052963D01*
X130131880Y-45313780D01*
X130233646Y-45559465D01*
X130381387Y-45780575D01*
X130569425Y-45968613D01*
X130790535Y-46116354D01*
X130968332Y-46190000D01*
X130790535Y-46263646D01*
X130569425Y-46411387D01*
X130381387Y-46599425D01*
X130233646Y-46820535D01*
X130131880Y-47066220D01*
X130080000Y-47327037D01*
X130080000Y-47592963D01*
X130131880Y-47853780D01*
X130233646Y-48099465D01*
X130381387Y-48320575D01*
X130569425Y-48508613D01*
X130790535Y-48656354D01*
X130968332Y-48730000D01*
X130790535Y-48803646D01*
X130569425Y-48951387D01*
X130381387Y-49139425D01*
X130233646Y-49360535D01*
X130131880Y-49606220D01*
X130080000Y-49867037D01*
X130080000Y-50132963D01*
X130131880Y-50393780D01*
X130233646Y-50639465D01*
X130381387Y-50860575D01*
X130569425Y-51048613D01*
X130790535Y-51196354D01*
X130968332Y-51270000D01*
X130790535Y-51343646D01*
X130569425Y-51491387D01*
X130381387Y-51679425D01*
X130233646Y-51900535D01*
X130131880Y-52146220D01*
X130080000Y-52407037D01*
X130080000Y-52672963D01*
X130131880Y-52933780D01*
X130233646Y-53179465D01*
X130381387Y-53400575D01*
X130569425Y-53588613D01*
X130790535Y-53736354D01*
X130968332Y-53810000D01*
X130790535Y-53883646D01*
X130569425Y-54031387D01*
X130381387Y-54219425D01*
X130233646Y-54440535D01*
X130131880Y-54686220D01*
X130080000Y-54947037D01*
X130080000Y-55212963D01*
X130131880Y-55473780D01*
X130233646Y-55719465D01*
X130381387Y-55940575D01*
X130569425Y-56128613D01*
X130790535Y-56276354D01*
X130968332Y-56350000D01*
X130790535Y-56423646D01*
X130569425Y-56571387D01*
X130381387Y-56759425D01*
X130233646Y-56980535D01*
X130131880Y-57226220D01*
X130080000Y-57487037D01*
X130080000Y-57752963D01*
X130131880Y-58013780D01*
X130233646Y-58259465D01*
X130381387Y-58480575D01*
X130569425Y-58668613D01*
X130790535Y-58816354D01*
X130968332Y-58890000D01*
X130790535Y-58963646D01*
X130569425Y-59111387D01*
X130381387Y-59299425D01*
X130233646Y-59520535D01*
X130131880Y-59766220D01*
X130080000Y-60027037D01*
X130080000Y-60292963D01*
X130131880Y-60553780D01*
X130233646Y-60799465D01*
X130381387Y-61020575D01*
X130569425Y-61208613D01*
X130790535Y-61356354D01*
X130969799Y-61430607D01*
X130867939Y-61465387D01*
X130715722Y-61546750D01*
X130632762Y-61761340D01*
X131430000Y-62558579D01*
X132227238Y-61761340D01*
X132144278Y-61546750D01*
X131905565Y-61429560D01*
X131897750Y-61427481D01*
X132069465Y-61356354D01*
X132290575Y-61208613D01*
X132478613Y-61020575D01*
X132626354Y-60799465D01*
X132728120Y-60553780D01*
X132780000Y-60292963D01*
X132780000Y-60027037D01*
X132728120Y-59766220D01*
X132626354Y-59520535D01*
X132478613Y-59299425D01*
X132290575Y-59111387D01*
X132069465Y-58963646D01*
X131891668Y-58890000D01*
X132069465Y-58816354D01*
X132290575Y-58668613D01*
X132478613Y-58480575D01*
X132626354Y-58259465D01*
X132728120Y-58013780D01*
X132780000Y-57752963D01*
X132780000Y-57487037D01*
X132728120Y-57226220D01*
X132626354Y-56980535D01*
X132478613Y-56759425D01*
X132290575Y-56571387D01*
X132069465Y-56423646D01*
X131891668Y-56350000D01*
X132069465Y-56276354D01*
X132290575Y-56128613D01*
X132478613Y-55940575D01*
X132626354Y-55719465D01*
X132728120Y-55473780D01*
X132780000Y-55212963D01*
X132780000Y-54947037D01*
X132728120Y-54686220D01*
X132626354Y-54440535D01*
X132478613Y-54219425D01*
X132290575Y-54031387D01*
X132069465Y-53883646D01*
X131891668Y-53810000D01*
X132069465Y-53736354D01*
X132290575Y-53588613D01*
X132478613Y-53400575D01*
X132626354Y-53179465D01*
X132728120Y-52933780D01*
X132780000Y-52672963D01*
X132780000Y-52407037D01*
X132728120Y-52146220D01*
X132626354Y-51900535D01*
X132478613Y-51679425D01*
X132290575Y-51491387D01*
X132069465Y-51343646D01*
X131891668Y-51270000D01*
X132069465Y-51196354D01*
X132290575Y-51048613D01*
X132478613Y-50860575D01*
X132626354Y-50639465D01*
X132728120Y-50393780D01*
X132780000Y-50132963D01*
X132780000Y-49867037D01*
X132728120Y-49606220D01*
X132626354Y-49360535D01*
X132478613Y-49139425D01*
X132290575Y-48951387D01*
X132069465Y-48803646D01*
X131891668Y-48730000D01*
X132069465Y-48656354D01*
X132290575Y-48508613D01*
X132478613Y-48320575D01*
X132626354Y-48099465D01*
X132728120Y-47853780D01*
X132780000Y-47592963D01*
X132780000Y-47327037D01*
X132728120Y-47066220D01*
X132626354Y-46820535D01*
X132478613Y-46599425D01*
X132290575Y-46411387D01*
X132069465Y-46263646D01*
X131891668Y-46190000D01*
X132069465Y-46116354D01*
X132290575Y-45968613D01*
X132478613Y-45780575D01*
X132626354Y-45559465D01*
X132728120Y-45313780D01*
X132780000Y-45052963D01*
X132780000Y-44787037D01*
X132728120Y-44526220D01*
X132626354Y-44280535D01*
X132478613Y-44059425D01*
X132290575Y-43871387D01*
X132069465Y-43723646D01*
X131891668Y-43650000D01*
X132069465Y-43576354D01*
X132290575Y-43428613D01*
X132478613Y-43240575D01*
X132626354Y-43019465D01*
X132728120Y-42773780D01*
X132780000Y-42512963D01*
X132780000Y-42247037D01*
X132728120Y-41986220D01*
X132626354Y-41740535D01*
X132478613Y-41519425D01*
X132290575Y-41331387D01*
X132069465Y-41183646D01*
X131891668Y-41110000D01*
X132069465Y-41036354D01*
X132290575Y-40888613D01*
X132478613Y-40700575D01*
X132626354Y-40479465D01*
X132728120Y-40233780D01*
X132780000Y-39972963D01*
X132780000Y-39707037D01*
X132767146Y-39642414D01*
X133600000Y-39642414D01*
X133600000Y-39957586D01*
X133661487Y-40266703D01*
X133782098Y-40557884D01*
X133957199Y-40819941D01*
X134180059Y-41042801D01*
X134442116Y-41217902D01*
X134733297Y-41338513D01*
X135042414Y-41400000D01*
X135357586Y-41400000D01*
X135666703Y-41338513D01*
X135957884Y-41217902D01*
X136219941Y-41042801D01*
X136442801Y-40819941D01*
X136617902Y-40557884D01*
X136738513Y-40266703D01*
X136800000Y-39957586D01*
X136800000Y-39642414D01*
X136738513Y-39333297D01*
X136617902Y-39042116D01*
X136442801Y-38780059D01*
X136219941Y-38557199D01*
X135957884Y-38382098D01*
X135666703Y-38261487D01*
X135357586Y-38200000D01*
X135042414Y-38200000D01*
X134733297Y-38261487D01*
X134442116Y-38382098D01*
X134180059Y-38557199D01*
X133957199Y-38780059D01*
X133782098Y-39042116D01*
X133661487Y-39333297D01*
X133600000Y-39642414D01*
X132767146Y-39642414D01*
X132728120Y-39446220D01*
X132626354Y-39200535D01*
X132478613Y-38979425D01*
X132290575Y-38791387D01*
X132069465Y-38643646D01*
X131891668Y-38570000D01*
X132069465Y-38496354D01*
X132290575Y-38348613D01*
X132478613Y-38160575D01*
X132626354Y-37939465D01*
X132728120Y-37693780D01*
X132780000Y-37432963D01*
X132780000Y-37167037D01*
X132728120Y-36906220D01*
X132626354Y-36660535D01*
X132535792Y-36525000D01*
X132579368Y-36525000D01*
X133550088Y-36601397D01*
X134476774Y-36823875D01*
X135357256Y-37188583D01*
X136169841Y-37686534D01*
X136894526Y-38305474D01*
X137513464Y-39030157D01*
X138011417Y-39842744D01*
X138376125Y-40723226D01*
X138598602Y-41649910D01*
X138675000Y-42620632D01*
X138675001Y-94879355D01*
X138598602Y-95850090D01*
X138376125Y-96776774D01*
X138011417Y-97657256D01*
X137513464Y-98469843D01*
X136894526Y-99194526D01*
X136169841Y-99813466D01*
X135357256Y-100311417D01*
X134476774Y-100676125D01*
X133550088Y-100898603D01*
X132579368Y-100975000D01*
X107420632Y-100975000D01*
X106449910Y-100898602D01*
X105523226Y-100676125D01*
X104642744Y-100311417D01*
X103830157Y-99813464D01*
X103105474Y-99194526D01*
X102486534Y-98469841D01*
X101988583Y-97657256D01*
X101941014Y-97542414D01*
X103200000Y-97542414D01*
X103200000Y-97857586D01*
X103261487Y-98166703D01*
X103382098Y-98457884D01*
X103557199Y-98719941D01*
X103780059Y-98942801D01*
X104042116Y-99117902D01*
X104333297Y-99238513D01*
X104642414Y-99300000D01*
X104957586Y-99300000D01*
X105266703Y-99238513D01*
X105557884Y-99117902D01*
X105819941Y-98942801D01*
X106042801Y-98719941D01*
X106217902Y-98457884D01*
X106338513Y-98166703D01*
X106400000Y-97857586D01*
X106400000Y-97542414D01*
X133600000Y-97542414D01*
X133600000Y-97857586D01*
X133661487Y-98166703D01*
X133782098Y-98457884D01*
X133957199Y-98719941D01*
X134180059Y-98942801D01*
X134442116Y-99117902D01*
X134733297Y-99238513D01*
X135042414Y-99300000D01*
X135357586Y-99300000D01*
X135666703Y-99238513D01*
X135957884Y-99117902D01*
X136219941Y-98942801D01*
X136442801Y-98719941D01*
X136617902Y-98457884D01*
X136738513Y-98166703D01*
X136800000Y-97857586D01*
X136800000Y-97542414D01*
X136738513Y-97233297D01*
X136617902Y-96942116D01*
X136442801Y-96680059D01*
X136219941Y-96457199D01*
X135957884Y-96282098D01*
X135666703Y-96161487D01*
X135357586Y-96100000D01*
X135042414Y-96100000D01*
X134733297Y-96161487D01*
X134442116Y-96282098D01*
X134180059Y-96457199D01*
X133957199Y-96680059D01*
X133782098Y-96942116D01*
X133661487Y-97233297D01*
X133600000Y-97542414D01*
X106400000Y-97542414D01*
X106338513Y-97233297D01*
X106217902Y-96942116D01*
X106042801Y-96680059D01*
X105819941Y-96457199D01*
X105557884Y-96282098D01*
X105266703Y-96161487D01*
X104957586Y-96100000D01*
X104642414Y-96100000D01*
X104333297Y-96161487D01*
X104042116Y-96282098D01*
X103780059Y-96457199D01*
X103557199Y-96680059D01*
X103382098Y-96942116D01*
X103261487Y-97233297D01*
X103200000Y-97542414D01*
X101941014Y-97542414D01*
X101623875Y-96776774D01*
X101401397Y-95850088D01*
X101325000Y-94879368D01*
X101325000Y-93842414D01*
X112900000Y-93842414D01*
X112900000Y-94157586D01*
X112961487Y-94466703D01*
X113082098Y-94757884D01*
X113257199Y-95019941D01*
X113480059Y-95242801D01*
X113742116Y-95417902D01*
X114033297Y-95538513D01*
X114342414Y-95600000D01*
X114657586Y-95600000D01*
X114966703Y-95538513D01*
X115257884Y-95417902D01*
X115519941Y-95242801D01*
X115742801Y-95019941D01*
X115917902Y-94757884D01*
X116038513Y-94466703D01*
X116100000Y-94157586D01*
X116100000Y-93842414D01*
X123900000Y-93842414D01*
X123900000Y-94157586D01*
X123961487Y-94466703D01*
X124082098Y-94757884D01*
X124257199Y-95019941D01*
X124480059Y-95242801D01*
X124742116Y-95417902D01*
X125033297Y-95538513D01*
X125342414Y-95600000D01*
X125657586Y-95600000D01*
X125966703Y-95538513D01*
X126257884Y-95417902D01*
X126519941Y-95242801D01*
X126742801Y-95019941D01*
X126917902Y-94757884D01*
X127038513Y-94466703D01*
X127100000Y-94157586D01*
X127100000Y-93842414D01*
X127038513Y-93533297D01*
X126917902Y-93242116D01*
X126742801Y-92980059D01*
X126519941Y-92757199D01*
X126257884Y-92582098D01*
X125966703Y-92461487D01*
X125657586Y-92400000D01*
X125342414Y-92400000D01*
X125033297Y-92461487D01*
X124742116Y-92582098D01*
X124480059Y-92757199D01*
X124257199Y-92980059D01*
X124082098Y-93242116D01*
X123961487Y-93533297D01*
X123900000Y-93842414D01*
X116100000Y-93842414D01*
X116038513Y-93533297D01*
X115917902Y-93242116D01*
X115742801Y-92980059D01*
X115519941Y-92757199D01*
X115257884Y-92582098D01*
X114966703Y-92461487D01*
X114657586Y-92400000D01*
X114342414Y-92400000D01*
X114033297Y-92461487D01*
X113742116Y-92582098D01*
X113480059Y-92757199D01*
X113257199Y-92980059D01*
X113082098Y-93242116D01*
X112961487Y-93533297D01*
X112900000Y-93842414D01*
X101325000Y-93842414D01*
X101325000Y-87800000D01*
X108622581Y-87800000D01*
X108632235Y-87898017D01*
X108660825Y-87992267D01*
X108707254Y-88079129D01*
X108769736Y-88155264D01*
X108845871Y-88217746D01*
X108932733Y-88264175D01*
X109026983Y-88292765D01*
X109125000Y-88302419D01*
X109775000Y-88300000D01*
X109900000Y-88175000D01*
X109900000Y-87187500D01*
X110100000Y-87187500D01*
X110100000Y-88175000D01*
X110225000Y-88300000D01*
X110875000Y-88302419D01*
X110973017Y-88292765D01*
X111067267Y-88264175D01*
X111154129Y-88217746D01*
X111230264Y-88155264D01*
X111292746Y-88079129D01*
X111339175Y-87992267D01*
X111367765Y-87898017D01*
X111377419Y-87800000D01*
X111375000Y-87312500D01*
X111250000Y-87187500D01*
X110100000Y-87187500D01*
X109900000Y-87187500D01*
X108750000Y-87187500D01*
X108625000Y-87312500D01*
X108622581Y-87800000D01*
X101325000Y-87800000D01*
X101325000Y-86375000D01*
X108622581Y-86375000D01*
X108625000Y-86862500D01*
X108750000Y-86987500D01*
X109900000Y-86987500D01*
X109900000Y-86000000D01*
X110100000Y-86000000D01*
X110100000Y-86987500D01*
X111250000Y-86987500D01*
X111375000Y-86862500D01*
X111377419Y-86375000D01*
X111367765Y-86276983D01*
X111339175Y-86182733D01*
X111292746Y-86095871D01*
X111230264Y-86019736D01*
X111154129Y-85957254D01*
X111067267Y-85910825D01*
X110973017Y-85882235D01*
X110875000Y-85872581D01*
X110225000Y-85875000D01*
X110100000Y-86000000D01*
X109900000Y-86000000D01*
X109775000Y-85875000D01*
X109125000Y-85872581D01*
X109026983Y-85882235D01*
X108932733Y-85910825D01*
X108845871Y-85957254D01*
X108769736Y-86019736D01*
X108707254Y-86095871D01*
X108660825Y-86182733D01*
X108632235Y-86276983D01*
X108622581Y-86375000D01*
X101325000Y-86375000D01*
X101325000Y-82849999D01*
X102797581Y-82849999D01*
X102797581Y-83500001D01*
X102812039Y-83646790D01*
X102854855Y-83787939D01*
X102924386Y-83918022D01*
X103017959Y-84032041D01*
X103131978Y-84125614D01*
X103262061Y-84195145D01*
X103278066Y-84200000D01*
X103262061Y-84204855D01*
X103131978Y-84274386D01*
X103017959Y-84367959D01*
X102924386Y-84481978D01*
X102854855Y-84612061D01*
X102812039Y-84753210D01*
X102797581Y-84899999D01*
X102797581Y-85550001D01*
X102812039Y-85696790D01*
X102854855Y-85837939D01*
X102924386Y-85968022D01*
X103017959Y-86082041D01*
X103131978Y-86175614D01*
X103262061Y-86245145D01*
X103403210Y-86287961D01*
X103549999Y-86302419D01*
X104450001Y-86302419D01*
X104596790Y-86287961D01*
X104737939Y-86245145D01*
X104868022Y-86175614D01*
X104982041Y-86082041D01*
X105074325Y-85969592D01*
X105157733Y-86014175D01*
X105251983Y-86042765D01*
X105350000Y-86052419D01*
X106250000Y-86052419D01*
X106348017Y-86042765D01*
X106442267Y-86014175D01*
X106529129Y-85967746D01*
X106605264Y-85905264D01*
X106667746Y-85829129D01*
X106714175Y-85742267D01*
X106742765Y-85648017D01*
X106752419Y-85550000D01*
X106752419Y-84750000D01*
X106742765Y-84651983D01*
X106714175Y-84557733D01*
X106667746Y-84470871D01*
X106605264Y-84394736D01*
X106529129Y-84332254D01*
X106442267Y-84285825D01*
X106348017Y-84257235D01*
X106250000Y-84247581D01*
X106037531Y-84247581D01*
X105942369Y-84152419D01*
X106250000Y-84152419D01*
X106348017Y-84142765D01*
X106442267Y-84114175D01*
X106529129Y-84067746D01*
X106605264Y-84005264D01*
X106667746Y-83929129D01*
X106714175Y-83842267D01*
X106726996Y-83800000D01*
X106847581Y-83800000D01*
X106847581Y-84600000D01*
X106857235Y-84698017D01*
X106885825Y-84792267D01*
X106932254Y-84879129D01*
X106994736Y-84955264D01*
X107070871Y-85017746D01*
X107157733Y-85064175D01*
X107251983Y-85092765D01*
X107350000Y-85102419D01*
X108250000Y-85102419D01*
X108348017Y-85092765D01*
X108398301Y-85077512D01*
X108511358Y-85100000D01*
X108688642Y-85100000D01*
X108816336Y-85074600D01*
X108842959Y-85107041D01*
X108956978Y-85200614D01*
X109087062Y-85270145D01*
X109228210Y-85312961D01*
X109375000Y-85327419D01*
X110625000Y-85327419D01*
X110771790Y-85312961D01*
X110912938Y-85270145D01*
X111043022Y-85200614D01*
X111157041Y-85107041D01*
X111250614Y-84993022D01*
X111320145Y-84862938D01*
X111335445Y-84812500D01*
X112297581Y-84812500D01*
X112297581Y-84850000D01*
X112307235Y-84948017D01*
X112335825Y-85042267D01*
X112382254Y-85129129D01*
X112444736Y-85205264D01*
X112520871Y-85267746D01*
X112607733Y-85314175D01*
X112701983Y-85342765D01*
X112800000Y-85352419D01*
X114500000Y-85352419D01*
X114598017Y-85342765D01*
X114692267Y-85314175D01*
X114779129Y-85267746D01*
X114855264Y-85205264D01*
X114917746Y-85129129D01*
X114964175Y-85042267D01*
X114992765Y-84948017D01*
X115002419Y-84850000D01*
X115002419Y-84630267D01*
X115094345Y-84788701D01*
X115269266Y-84987298D01*
X115479570Y-85147954D01*
X115717175Y-85264494D01*
X115880625Y-85314072D01*
X116090000Y-85220912D01*
X116090000Y-84100000D01*
X116070000Y-84100000D01*
X116070000Y-83900000D01*
X116090000Y-83900000D01*
X116090000Y-82779088D01*
X116290000Y-82779088D01*
X116290000Y-83900000D01*
X116310000Y-83900000D01*
X116310000Y-84100000D01*
X116290000Y-84100000D01*
X116290000Y-85220912D01*
X116499375Y-85314072D01*
X116662825Y-85264494D01*
X116900430Y-85147954D01*
X117110734Y-84987298D01*
X117285655Y-84788701D01*
X117418470Y-84559795D01*
X117455625Y-84451106D01*
X117533646Y-84639465D01*
X117681387Y-84860575D01*
X117869425Y-85048613D01*
X118090535Y-85196354D01*
X118336220Y-85298120D01*
X118597037Y-85350000D01*
X118862963Y-85350000D01*
X119123780Y-85298120D01*
X119369465Y-85196354D01*
X119590575Y-85048613D01*
X119778613Y-84860575D01*
X119926354Y-84639465D01*
X120000000Y-84461668D01*
X120073646Y-84639465D01*
X120221387Y-84860575D01*
X120409425Y-85048613D01*
X120630535Y-85196354D01*
X120876220Y-85298120D01*
X121137037Y-85350000D01*
X121402963Y-85350000D01*
X121663780Y-85298120D01*
X121909465Y-85196354D01*
X122130575Y-85048613D01*
X122318613Y-84860575D01*
X122466354Y-84639465D01*
X122540000Y-84461668D01*
X122613646Y-84639465D01*
X122761387Y-84860575D01*
X122949425Y-85048613D01*
X123170535Y-85196354D01*
X123416220Y-85298120D01*
X123677037Y-85350000D01*
X123942963Y-85350000D01*
X124203780Y-85298120D01*
X124449465Y-85196354D01*
X124670575Y-85048613D01*
X124858613Y-84860575D01*
X125006354Y-84639465D01*
X125080000Y-84461668D01*
X125153646Y-84639465D01*
X125301387Y-84860575D01*
X125489425Y-85048613D01*
X125710535Y-85196354D01*
X125956220Y-85298120D01*
X126217037Y-85350000D01*
X126482963Y-85350000D01*
X126743780Y-85298120D01*
X126989465Y-85196354D01*
X127210575Y-85048613D01*
X127398613Y-84860575D01*
X127546354Y-84639465D01*
X127648120Y-84393780D01*
X127700000Y-84132963D01*
X127700000Y-83867037D01*
X127648120Y-83606220D01*
X127546354Y-83360535D01*
X127398613Y-83139425D01*
X127210575Y-82951387D01*
X126989465Y-82803646D01*
X126743780Y-82701880D01*
X126482963Y-82650000D01*
X126217037Y-82650000D01*
X125956220Y-82701880D01*
X125710535Y-82803646D01*
X125489425Y-82951387D01*
X125301387Y-83139425D01*
X125153646Y-83360535D01*
X125080000Y-83538332D01*
X125006354Y-83360535D01*
X124858613Y-83139425D01*
X124670575Y-82951387D01*
X124449465Y-82803646D01*
X124203780Y-82701880D01*
X123942963Y-82650000D01*
X123677037Y-82650000D01*
X123416220Y-82701880D01*
X123170535Y-82803646D01*
X122949425Y-82951387D01*
X122761387Y-83139425D01*
X122613646Y-83360535D01*
X122540000Y-83538332D01*
X122466354Y-83360535D01*
X122318613Y-83139425D01*
X122130575Y-82951387D01*
X121909465Y-82803646D01*
X121663780Y-82701880D01*
X121402963Y-82650000D01*
X121137037Y-82650000D01*
X120876220Y-82701880D01*
X120630535Y-82803646D01*
X120409425Y-82951387D01*
X120221387Y-83139425D01*
X120073646Y-83360535D01*
X120000000Y-83538332D01*
X119926354Y-83360535D01*
X119778613Y-83139425D01*
X119590575Y-82951387D01*
X119369465Y-82803646D01*
X119123780Y-82701880D01*
X118862963Y-82650000D01*
X118597037Y-82650000D01*
X118336220Y-82701880D01*
X118090535Y-82803646D01*
X117869425Y-82951387D01*
X117681387Y-83139425D01*
X117533646Y-83360535D01*
X117455625Y-83548894D01*
X117418470Y-83440205D01*
X117285655Y-83211299D01*
X117110734Y-83012702D01*
X116900430Y-82852046D01*
X116662825Y-82735506D01*
X116499375Y-82685928D01*
X116290000Y-82779088D01*
X116090000Y-82779088D01*
X115880625Y-82685928D01*
X115717175Y-82735506D01*
X115479570Y-82852046D01*
X115269266Y-83012702D01*
X115094345Y-83211299D01*
X115002419Y-83369733D01*
X115002419Y-83150000D01*
X114992765Y-83051983D01*
X114964175Y-82957733D01*
X114917746Y-82870871D01*
X114855264Y-82794736D01*
X114779129Y-82732254D01*
X114692267Y-82685825D01*
X114598017Y-82657235D01*
X114500000Y-82647581D01*
X112800000Y-82647581D01*
X112701983Y-82657235D01*
X112607733Y-82685825D01*
X112520871Y-82732254D01*
X112444736Y-82794736D01*
X112382254Y-82870871D01*
X112335825Y-82957733D01*
X112307235Y-83051983D01*
X112297581Y-83150000D01*
X112297581Y-83412500D01*
X111335445Y-83412500D01*
X111320145Y-83362062D01*
X111250614Y-83231978D01*
X111157041Y-83117959D01*
X111043022Y-83024386D01*
X110912938Y-82954855D01*
X110771790Y-82912039D01*
X110625000Y-82897581D01*
X109375000Y-82897581D01*
X109228210Y-82912039D01*
X109087062Y-82954855D01*
X108956978Y-83024386D01*
X108842959Y-83117959D01*
X108749386Y-83231978D01*
X108710684Y-83304384D01*
X108688642Y-83300000D01*
X108511358Y-83300000D01*
X108398301Y-83322488D01*
X108348017Y-83307235D01*
X108250000Y-83297581D01*
X107350000Y-83297581D01*
X107251983Y-83307235D01*
X107157733Y-83335825D01*
X107070871Y-83382254D01*
X106994736Y-83444736D01*
X106932254Y-83520871D01*
X106885825Y-83607733D01*
X106857235Y-83701983D01*
X106847581Y-83800000D01*
X106726996Y-83800000D01*
X106742765Y-83748017D01*
X106752419Y-83650000D01*
X106752419Y-82850000D01*
X106742765Y-82751983D01*
X106714175Y-82657733D01*
X106667746Y-82570871D01*
X106605264Y-82494736D01*
X106550000Y-82449382D01*
X106550000Y-82239949D01*
X111090275Y-77699675D01*
X111262520Y-77665414D01*
X111426310Y-77597570D01*
X111573717Y-77499076D01*
X111699076Y-77373717D01*
X111797570Y-77226310D01*
X111865414Y-77062520D01*
X111900000Y-76888642D01*
X111900000Y-76711358D01*
X111865414Y-76537480D01*
X111797570Y-76373690D01*
X111699076Y-76226283D01*
X111573717Y-76100924D01*
X111426310Y-76002430D01*
X111262520Y-75934586D01*
X111088642Y-75900000D01*
X110911358Y-75900000D01*
X110737480Y-75934586D01*
X110573690Y-76002430D01*
X110426283Y-76100924D01*
X110300924Y-76226283D01*
X110202430Y-76373690D01*
X110134586Y-76537480D01*
X110100325Y-76709725D01*
X105379342Y-81430709D01*
X105352631Y-81452630D01*
X105330710Y-81479341D01*
X105330708Y-81479343D01*
X105265155Y-81559219D01*
X105200155Y-81680826D01*
X105160129Y-81812777D01*
X105146613Y-81950000D01*
X105150001Y-81984397D01*
X105150001Y-82389958D01*
X105074325Y-82430408D01*
X104982041Y-82317959D01*
X104868022Y-82224386D01*
X104737939Y-82154855D01*
X104596790Y-82112039D01*
X104450001Y-82097581D01*
X103549999Y-82097581D01*
X103403210Y-82112039D01*
X103262061Y-82154855D01*
X103131978Y-82224386D01*
X103017959Y-82317959D01*
X102924386Y-82431978D01*
X102854855Y-82562061D01*
X102812039Y-82703210D01*
X102797581Y-82849999D01*
X101325000Y-82849999D01*
X101325000Y-75962819D01*
X101431978Y-76050614D01*
X101562062Y-76120145D01*
X101703210Y-76162961D01*
X101850000Y-76177419D01*
X102775000Y-76177419D01*
X102921790Y-76162961D01*
X103062938Y-76120145D01*
X103193022Y-76050614D01*
X103307041Y-75957041D01*
X103400614Y-75843022D01*
X103470145Y-75712938D01*
X103512961Y-75571790D01*
X103520032Y-75500000D01*
X104000000Y-75500000D01*
X104073259Y-75492785D01*
X104072581Y-75675000D01*
X104082235Y-75773017D01*
X104110825Y-75867267D01*
X104157254Y-75954129D01*
X104219736Y-76030264D01*
X104295871Y-76092746D01*
X104382733Y-76139175D01*
X104476983Y-76167765D01*
X104575000Y-76177419D01*
X105062500Y-76175000D01*
X105187500Y-76050000D01*
X105187500Y-74900000D01*
X105387500Y-74900000D01*
X105387500Y-76050000D01*
X105512500Y-76175000D01*
X106000000Y-76177419D01*
X106098017Y-76167765D01*
X106192267Y-76139175D01*
X106279129Y-76092746D01*
X106355264Y-76030264D01*
X106417746Y-75954129D01*
X106464175Y-75867267D01*
X106492765Y-75773017D01*
X106502419Y-75675000D01*
X106500000Y-75025000D01*
X106375000Y-74900000D01*
X105387500Y-74900000D01*
X105187500Y-74900000D01*
X105167500Y-74900000D01*
X105167500Y-74700000D01*
X105187500Y-74700000D01*
X105187500Y-74680000D01*
X105387500Y-74680000D01*
X105387500Y-74700000D01*
X106375000Y-74700000D01*
X106500000Y-74575000D01*
X106502419Y-73925000D01*
X106492765Y-73826983D01*
X106487047Y-73808134D01*
X106553553Y-73753553D01*
X106615735Y-73677785D01*
X106661940Y-73591342D01*
X106690393Y-73497545D01*
X106700000Y-73400000D01*
X106700000Y-73108661D01*
X106739129Y-73087746D01*
X106776656Y-73056949D01*
X106904249Y-73115463D01*
X106975581Y-73137094D01*
X107130000Y-73039267D01*
X107130000Y-72270000D01*
X107110000Y-72270000D01*
X107110000Y-72070000D01*
X107130000Y-72070000D01*
X107130000Y-71000000D01*
X107110000Y-71000000D01*
X107110000Y-70800000D01*
X107130000Y-70800000D01*
X107130000Y-70030733D01*
X107330000Y-70030733D01*
X107330000Y-70800000D01*
X107350000Y-70800000D01*
X107350000Y-71000000D01*
X107330000Y-71000000D01*
X107330000Y-72070000D01*
X107350000Y-72070000D01*
X107350000Y-72270000D01*
X107330000Y-72270000D01*
X107330000Y-73039267D01*
X107484419Y-73137094D01*
X107555751Y-73115463D01*
X107733942Y-73033745D01*
X107845302Y-72953175D01*
X107850155Y-72969174D01*
X107915155Y-73090781D01*
X107953270Y-73137224D01*
X108002630Y-73197369D01*
X108029343Y-73219292D01*
X109280708Y-74470658D01*
X109302630Y-74497370D01*
X109329341Y-74519291D01*
X109329342Y-74519292D01*
X109409219Y-74584845D01*
X109530825Y-74649845D01*
X109662776Y-74689872D01*
X109800000Y-74703387D01*
X109834390Y-74700000D01*
X125027666Y-74700000D01*
X125173690Y-74797570D01*
X125337480Y-74865414D01*
X125511358Y-74900000D01*
X125688642Y-74900000D01*
X125862520Y-74865414D01*
X125918046Y-74842414D01*
X134900000Y-74842414D01*
X134900000Y-75157586D01*
X134961487Y-75466703D01*
X135082098Y-75757884D01*
X135257199Y-76019941D01*
X135480059Y-76242801D01*
X135742116Y-76417902D01*
X136033297Y-76538513D01*
X136342414Y-76600000D01*
X136657586Y-76600000D01*
X136966703Y-76538513D01*
X137257884Y-76417902D01*
X137519941Y-76242801D01*
X137742801Y-76019941D01*
X137917902Y-75757884D01*
X138038513Y-75466703D01*
X138100000Y-75157586D01*
X138100000Y-74842414D01*
X138038513Y-74533297D01*
X137917902Y-74242116D01*
X137742801Y-73980059D01*
X137519941Y-73757199D01*
X137257884Y-73582098D01*
X136966703Y-73461487D01*
X136657586Y-73400000D01*
X136342414Y-73400000D01*
X136033297Y-73461487D01*
X135742116Y-73582098D01*
X135480059Y-73757199D01*
X135257199Y-73980059D01*
X135082098Y-74242116D01*
X134961487Y-74533297D01*
X134900000Y-74842414D01*
X125918046Y-74842414D01*
X126026310Y-74797570D01*
X126173717Y-74699076D01*
X126299076Y-74573717D01*
X126397570Y-74426310D01*
X126465414Y-74262520D01*
X126500000Y-74088642D01*
X126500000Y-73911358D01*
X126497741Y-73900000D01*
X126565613Y-73900000D01*
X126600000Y-73903387D01*
X126634387Y-73900000D01*
X126634390Y-73900000D01*
X126685869Y-73894930D01*
X126711358Y-73900000D01*
X126888642Y-73900000D01*
X127062520Y-73865414D01*
X127226310Y-73797570D01*
X127373717Y-73699076D01*
X127499076Y-73573717D01*
X127597570Y-73426310D01*
X127665414Y-73262520D01*
X127700000Y-73088642D01*
X127700000Y-72911358D01*
X127691773Y-72870000D01*
X127760536Y-72870000D01*
X127911358Y-72900000D01*
X128088642Y-72900000D01*
X128262520Y-72865414D01*
X128426310Y-72797570D01*
X128573717Y-72699076D01*
X128699076Y-72573717D01*
X128797570Y-72426310D01*
X128865414Y-72262520D01*
X128900000Y-72088642D01*
X128900000Y-71911358D01*
X128865414Y-71737480D01*
X128797570Y-71573690D01*
X128699076Y-71426283D01*
X128573717Y-71300924D01*
X128426310Y-71202430D01*
X128262520Y-71134586D01*
X128088642Y-71100000D01*
X127911358Y-71100000D01*
X127737480Y-71134586D01*
X127573690Y-71202430D01*
X127426283Y-71300924D01*
X127300924Y-71426283D01*
X127271713Y-71470000D01*
X125568377Y-71470000D01*
X125597570Y-71426310D01*
X125665414Y-71262520D01*
X125700000Y-71088642D01*
X125700000Y-70911358D01*
X125665414Y-70737480D01*
X125597570Y-70573690D01*
X125499076Y-70426283D01*
X125373717Y-70300924D01*
X125226310Y-70202430D01*
X125062520Y-70134586D01*
X124888642Y-70100000D01*
X124711358Y-70100000D01*
X124537480Y-70134586D01*
X124373690Y-70202430D01*
X124226283Y-70300924D01*
X124100924Y-70426283D01*
X124051668Y-70500000D01*
X111956707Y-70500000D01*
X111926189Y-70426322D01*
X111816751Y-70262537D01*
X111677463Y-70123249D01*
X111513678Y-70013811D01*
X111331689Y-69938429D01*
X111138491Y-69900000D01*
X110941509Y-69900000D01*
X110748311Y-69938429D01*
X110566322Y-70013811D01*
X110405000Y-70121603D01*
X110243678Y-70013811D01*
X110061689Y-69938429D01*
X109868491Y-69900000D01*
X109671509Y-69900000D01*
X109478311Y-69938429D01*
X109296322Y-70013811D01*
X109135000Y-70121603D01*
X108973678Y-70013811D01*
X108791689Y-69938429D01*
X108598491Y-69900000D01*
X108401509Y-69900000D01*
X108208311Y-69938429D01*
X108026322Y-70013811D01*
X107862537Y-70123249D01*
X107859029Y-70126757D01*
X107733942Y-70036255D01*
X107555751Y-69954537D01*
X107484419Y-69932906D01*
X107330000Y-70030733D01*
X107130000Y-70030733D01*
X106975581Y-69932906D01*
X106904249Y-69954537D01*
X106726058Y-70036255D01*
X106700000Y-70055108D01*
X106700000Y-69725000D01*
X106691774Y-69634676D01*
X106664703Y-69540471D01*
X106619774Y-69453358D01*
X106558714Y-69376684D01*
X106483868Y-69313395D01*
X106480999Y-69311807D01*
X106492765Y-69273017D01*
X106502419Y-69175000D01*
X106500000Y-68525000D01*
X106375000Y-68400000D01*
X105387500Y-68400000D01*
X105387500Y-68420000D01*
X105187500Y-68420000D01*
X105187500Y-68400000D01*
X105167500Y-68400000D01*
X105167500Y-68200000D01*
X105187500Y-68200000D01*
X105187500Y-68180000D01*
X105387500Y-68180000D01*
X105387500Y-68200000D01*
X106375000Y-68200000D01*
X106392526Y-68182475D01*
X106680704Y-68470653D01*
X106702630Y-68497370D01*
X106809219Y-68584845D01*
X106930825Y-68649845D01*
X107062776Y-68689872D01*
X107165610Y-68700000D01*
X107165612Y-68700000D01*
X107199999Y-68703387D01*
X107234386Y-68700000D01*
X128765613Y-68700000D01*
X128800000Y-68703387D01*
X128834387Y-68700000D01*
X128834390Y-68700000D01*
X128937224Y-68689872D01*
X129069175Y-68649845D01*
X129190781Y-68584845D01*
X129297370Y-68497370D01*
X129319296Y-68470653D01*
X131216058Y-66573892D01*
X131297037Y-66590000D01*
X131562963Y-66590000D01*
X131823780Y-66538120D01*
X132069465Y-66436354D01*
X132290575Y-66288613D01*
X132478613Y-66100575D01*
X132626354Y-65879465D01*
X132728120Y-65633780D01*
X132780000Y-65372963D01*
X132780000Y-65107037D01*
X132728120Y-64846220D01*
X132626354Y-64600535D01*
X132478613Y-64379425D01*
X132290575Y-64191387D01*
X132069465Y-64043646D01*
X131890201Y-63969393D01*
X131992061Y-63934613D01*
X132144278Y-63853250D01*
X132227238Y-63638660D01*
X131430000Y-62841421D01*
X130632762Y-63638660D01*
X130715722Y-63853250D01*
X130954435Y-63970440D01*
X130962250Y-63972519D01*
X130790535Y-64043646D01*
X130569425Y-64191387D01*
X130381387Y-64379425D01*
X130233646Y-64600535D01*
X130131880Y-64846220D01*
X130080000Y-65107037D01*
X130080000Y-65372963D01*
X130131880Y-65633780D01*
X130144882Y-65665169D01*
X128510051Y-67300000D01*
X107489949Y-67300000D01*
X106203044Y-66013095D01*
X106265414Y-65862520D01*
X106300000Y-65688642D01*
X106300000Y-65511358D01*
X106265414Y-65337480D01*
X106197570Y-65173690D01*
X106099076Y-65026283D01*
X105973717Y-64900924D01*
X105826310Y-64802430D01*
X105662520Y-64734586D01*
X105488642Y-64700000D01*
X105311358Y-64700000D01*
X105250000Y-64712205D01*
X105250000Y-63138698D01*
X105368022Y-63075614D01*
X105482041Y-62982041D01*
X105575614Y-62868022D01*
X105640403Y-62746810D01*
X107214275Y-62746810D01*
X107249458Y-63010399D01*
X107335387Y-63262061D01*
X107416750Y-63414278D01*
X107631340Y-63497238D01*
X108428579Y-62700000D01*
X108711421Y-62700000D01*
X109508660Y-63497238D01*
X109723250Y-63414278D01*
X109840440Y-63175565D01*
X109908807Y-62918577D01*
X109925725Y-62653190D01*
X109890542Y-62389601D01*
X109804613Y-62137939D01*
X109723250Y-61985722D01*
X109508660Y-61902762D01*
X108711421Y-62700000D01*
X108428579Y-62700000D01*
X107631340Y-61902762D01*
X107416750Y-61985722D01*
X107299560Y-62224435D01*
X107231193Y-62481423D01*
X107214275Y-62746810D01*
X105640403Y-62746810D01*
X105645145Y-62737939D01*
X105687961Y-62596790D01*
X105702419Y-62450001D01*
X105702419Y-61549999D01*
X105687961Y-61403210D01*
X105645145Y-61262061D01*
X105575614Y-61131978D01*
X105548271Y-61098660D01*
X107772762Y-61098660D01*
X107855722Y-61313250D01*
X108094435Y-61430440D01*
X108103346Y-61432811D01*
X108007939Y-61465387D01*
X107855722Y-61546750D01*
X107772762Y-61761340D01*
X108570000Y-62558579D01*
X109367238Y-61761340D01*
X109284278Y-61546750D01*
X109045565Y-61429560D01*
X109036654Y-61427189D01*
X109132061Y-61394613D01*
X109284278Y-61313250D01*
X109367238Y-61098660D01*
X108570000Y-60301421D01*
X107772762Y-61098660D01*
X105548271Y-61098660D01*
X105482041Y-61017959D01*
X105368022Y-60924386D01*
X105237939Y-60854855D01*
X105096790Y-60812039D01*
X104950001Y-60797581D01*
X104299999Y-60797581D01*
X104153210Y-60812039D01*
X104012061Y-60854855D01*
X103881978Y-60924386D01*
X103767959Y-61017959D01*
X103674386Y-61131978D01*
X103604855Y-61262061D01*
X103600000Y-61278066D01*
X103595145Y-61262061D01*
X103525614Y-61131978D01*
X103432041Y-61017959D01*
X103318022Y-60924386D01*
X103283836Y-60906113D01*
X103983139Y-60206810D01*
X107214275Y-60206810D01*
X107249458Y-60470399D01*
X107335387Y-60722061D01*
X107416750Y-60874278D01*
X107631340Y-60957238D01*
X108428579Y-60160000D01*
X108711421Y-60160000D01*
X109508660Y-60957238D01*
X109723250Y-60874278D01*
X109840440Y-60635565D01*
X109908807Y-60378577D01*
X109925725Y-60113190D01*
X109890542Y-59849601D01*
X109804613Y-59597939D01*
X109723250Y-59445722D01*
X109508660Y-59362762D01*
X108711421Y-60160000D01*
X108428579Y-60160000D01*
X107631340Y-59362762D01*
X107416750Y-59445722D01*
X107299560Y-59684435D01*
X107231193Y-59941423D01*
X107214275Y-60206810D01*
X103983139Y-60206810D01*
X105869950Y-58320000D01*
X107414094Y-58320000D01*
X107521387Y-58480575D01*
X107709425Y-58668613D01*
X107930535Y-58816354D01*
X108109799Y-58890607D01*
X108007939Y-58925387D01*
X107855722Y-59006750D01*
X107772762Y-59221340D01*
X108570000Y-60018579D01*
X109367238Y-59221340D01*
X109284278Y-59006750D01*
X109045565Y-58889560D01*
X109037750Y-58887481D01*
X109209465Y-58816354D01*
X109430575Y-58668613D01*
X109618613Y-58480575D01*
X109766354Y-58259465D01*
X109868120Y-58013780D01*
X109920000Y-57752963D01*
X109920000Y-57487037D01*
X109868120Y-57226220D01*
X109766354Y-56980535D01*
X109618613Y-56759425D01*
X109430575Y-56571387D01*
X109209465Y-56423646D01*
X109031668Y-56350000D01*
X109209465Y-56276354D01*
X109430575Y-56128613D01*
X109618613Y-55940575D01*
X109766354Y-55719465D01*
X109868120Y-55473780D01*
X109920000Y-55212963D01*
X109920000Y-54947037D01*
X109868120Y-54686220D01*
X109766354Y-54440535D01*
X109618613Y-54219425D01*
X109430575Y-54031387D01*
X109209465Y-53883646D01*
X109031668Y-53810000D01*
X109209465Y-53736354D01*
X109430575Y-53588613D01*
X109618613Y-53400575D01*
X109766354Y-53179465D01*
X109868120Y-52933780D01*
X109920000Y-52672963D01*
X109920000Y-52407037D01*
X109868120Y-52146220D01*
X109766354Y-51900535D01*
X109618613Y-51679425D01*
X109430575Y-51491387D01*
X109209465Y-51343646D01*
X109031668Y-51270000D01*
X109209465Y-51196354D01*
X109430575Y-51048613D01*
X109618613Y-50860575D01*
X109766354Y-50639465D01*
X109868120Y-50393780D01*
X109920000Y-50132963D01*
X109920000Y-49867037D01*
X109868120Y-49606220D01*
X109766354Y-49360535D01*
X109618613Y-49139425D01*
X109430575Y-48951387D01*
X109209465Y-48803646D01*
X109031668Y-48730000D01*
X109209465Y-48656354D01*
X109430575Y-48508613D01*
X109618613Y-48320575D01*
X109766354Y-48099465D01*
X109868120Y-47853780D01*
X109920000Y-47592963D01*
X109920000Y-47327037D01*
X109868120Y-47066220D01*
X109766354Y-46820535D01*
X109618613Y-46599425D01*
X109430575Y-46411387D01*
X109209465Y-46263646D01*
X109031668Y-46190000D01*
X109209465Y-46116354D01*
X109430575Y-45968613D01*
X109618613Y-45780575D01*
X109766354Y-45559465D01*
X109868120Y-45313780D01*
X109920000Y-45052963D01*
X109920000Y-44787037D01*
X109868120Y-44526220D01*
X109766354Y-44280535D01*
X109618613Y-44059425D01*
X109430575Y-43871387D01*
X109209465Y-43723646D01*
X109031668Y-43650000D01*
X109209465Y-43576354D01*
X109430575Y-43428613D01*
X109618613Y-43240575D01*
X109766354Y-43019465D01*
X109868120Y-42773780D01*
X109920000Y-42512963D01*
X109920000Y-42247037D01*
X109868120Y-41986220D01*
X109766354Y-41740535D01*
X109618613Y-41519425D01*
X109430575Y-41331387D01*
X109209465Y-41183646D01*
X109030201Y-41109393D01*
X109132061Y-41074613D01*
X109284278Y-40993250D01*
X109367238Y-40778660D01*
X108570000Y-39981421D01*
X107772762Y-40778660D01*
X107855722Y-40993250D01*
X108094435Y-41110440D01*
X108102250Y-41112519D01*
X107930535Y-41183646D01*
X107709425Y-41331387D01*
X107521387Y-41519425D01*
X107373646Y-41740535D01*
X107271880Y-41986220D01*
X107220000Y-42247037D01*
X107220000Y-42512963D01*
X107271880Y-42773780D01*
X107373646Y-43019465D01*
X107521387Y-43240575D01*
X107709425Y-43428613D01*
X107930535Y-43576354D01*
X108108332Y-43650000D01*
X107930535Y-43723646D01*
X107709425Y-43871387D01*
X107521387Y-44059425D01*
X107373646Y-44280535D01*
X107271880Y-44526220D01*
X107220000Y-44787037D01*
X107220000Y-45052963D01*
X107271880Y-45313780D01*
X107373646Y-45559465D01*
X107521387Y-45780575D01*
X107709425Y-45968613D01*
X107930535Y-46116354D01*
X108108332Y-46190000D01*
X107930535Y-46263646D01*
X107709425Y-46411387D01*
X107521387Y-46599425D01*
X107373646Y-46820535D01*
X107271880Y-47066220D01*
X107220000Y-47327037D01*
X107220000Y-47592963D01*
X107271880Y-47853780D01*
X107373646Y-48099465D01*
X107521387Y-48320575D01*
X107709425Y-48508613D01*
X107930535Y-48656354D01*
X108108332Y-48730000D01*
X107930535Y-48803646D01*
X107709425Y-48951387D01*
X107521387Y-49139425D01*
X107373646Y-49360535D01*
X107271880Y-49606220D01*
X107220000Y-49867037D01*
X107220000Y-50132963D01*
X107271880Y-50393780D01*
X107373646Y-50639465D01*
X107521387Y-50860575D01*
X107709425Y-51048613D01*
X107930535Y-51196354D01*
X108108332Y-51270000D01*
X107930535Y-51343646D01*
X107709425Y-51491387D01*
X107521387Y-51679425D01*
X107373646Y-51900535D01*
X107271880Y-52146220D01*
X107220000Y-52407037D01*
X107220000Y-52672963D01*
X107271880Y-52933780D01*
X107373646Y-53179465D01*
X107521387Y-53400575D01*
X107709425Y-53588613D01*
X107930535Y-53736354D01*
X108108332Y-53810000D01*
X107930535Y-53883646D01*
X107709425Y-54031387D01*
X107521387Y-54219425D01*
X107373646Y-54440535D01*
X107271880Y-54686220D01*
X107220000Y-54947037D01*
X107220000Y-55212963D01*
X107271880Y-55473780D01*
X107373646Y-55719465D01*
X107521387Y-55940575D01*
X107709425Y-56128613D01*
X107930535Y-56276354D01*
X108108332Y-56350000D01*
X107930535Y-56423646D01*
X107709425Y-56571387D01*
X107521387Y-56759425D01*
X107414094Y-56920000D01*
X105614387Y-56920000D01*
X105580000Y-56916613D01*
X105545613Y-56920000D01*
X105545610Y-56920000D01*
X105442776Y-56930128D01*
X105310825Y-56970155D01*
X105189219Y-57035155D01*
X105082630Y-57122630D01*
X105060709Y-57149341D01*
X102104342Y-60105709D01*
X102077631Y-60127630D01*
X102055710Y-60154341D01*
X102055708Y-60154343D01*
X101990155Y-60234219D01*
X101925155Y-60355826D01*
X101885129Y-60487777D01*
X101871613Y-60625000D01*
X101875001Y-60659397D01*
X101875001Y-60901390D01*
X101831978Y-60924386D01*
X101717959Y-61017959D01*
X101624386Y-61131978D01*
X101554855Y-61262061D01*
X101512039Y-61403210D01*
X101497581Y-61549999D01*
X101497581Y-62450001D01*
X101512039Y-62596790D01*
X101554855Y-62737939D01*
X101624386Y-62868022D01*
X101717959Y-62982041D01*
X101831978Y-63075614D01*
X101950001Y-63138699D01*
X101950000Y-64949382D01*
X101894736Y-64994736D01*
X101832254Y-65070871D01*
X101785825Y-65157733D01*
X101757235Y-65251983D01*
X101747581Y-65350000D01*
X101747581Y-66100000D01*
X101325000Y-66100000D01*
X101325000Y-44842414D01*
X101900000Y-44842414D01*
X101900000Y-45157586D01*
X101961487Y-45466703D01*
X102082098Y-45757884D01*
X102257199Y-46019941D01*
X102480059Y-46242801D01*
X102742116Y-46417902D01*
X103033297Y-46538513D01*
X103342414Y-46600000D01*
X103657586Y-46600000D01*
X103966703Y-46538513D01*
X104257884Y-46417902D01*
X104519941Y-46242801D01*
X104742801Y-46019941D01*
X104917902Y-45757884D01*
X105038513Y-45466703D01*
X105100000Y-45157586D01*
X105100000Y-44842414D01*
X105038513Y-44533297D01*
X104917902Y-44242116D01*
X104742801Y-43980059D01*
X104519941Y-43757199D01*
X104257884Y-43582098D01*
X103966703Y-43461487D01*
X103657586Y-43400000D01*
X103342414Y-43400000D01*
X103033297Y-43461487D01*
X102742116Y-43582098D01*
X102480059Y-43757199D01*
X102257199Y-43980059D01*
X102082098Y-44242116D01*
X101961487Y-44533297D01*
X101900000Y-44842414D01*
X101325000Y-44842414D01*
X101325000Y-42620632D01*
X101401397Y-41649912D01*
X101623875Y-40723226D01*
X101988583Y-39842744D01*
X102111344Y-39642414D01*
X103200000Y-39642414D01*
X103200000Y-39957586D01*
X103261487Y-40266703D01*
X103382098Y-40557884D01*
X103557199Y-40819941D01*
X103780059Y-41042801D01*
X104042116Y-41217902D01*
X104333297Y-41338513D01*
X104642414Y-41400000D01*
X104957586Y-41400000D01*
X105266703Y-41338513D01*
X105557884Y-41217902D01*
X105819941Y-41042801D01*
X106042801Y-40819941D01*
X106217902Y-40557884D01*
X106338513Y-40266703D01*
X106400000Y-39957586D01*
X106400000Y-39886810D01*
X107214275Y-39886810D01*
X107249458Y-40150399D01*
X107335387Y-40402061D01*
X107416750Y-40554278D01*
X107631340Y-40637238D01*
X108428579Y-39840000D01*
X108711421Y-39840000D01*
X109508660Y-40637238D01*
X109723250Y-40554278D01*
X109840440Y-40315565D01*
X109908807Y-40058577D01*
X109925725Y-39793190D01*
X109890542Y-39529601D01*
X109804613Y-39277939D01*
X109723250Y-39125722D01*
X109508660Y-39042762D01*
X108711421Y-39840000D01*
X108428579Y-39840000D01*
X107631340Y-39042762D01*
X107416750Y-39125722D01*
X107299560Y-39364435D01*
X107231193Y-39621423D01*
X107214275Y-39886810D01*
X106400000Y-39886810D01*
X106400000Y-39642414D01*
X106338513Y-39333297D01*
X106217902Y-39042116D01*
X106042801Y-38780059D01*
X105819941Y-38557199D01*
X105557884Y-38382098D01*
X105266703Y-38261487D01*
X105151944Y-38238660D01*
X107772762Y-38238660D01*
X107855722Y-38453250D01*
X108094435Y-38570440D01*
X108103346Y-38572811D01*
X108007939Y-38605387D01*
X107855722Y-38686750D01*
X107772762Y-38901340D01*
X108570000Y-39698579D01*
X109367238Y-38901340D01*
X109284278Y-38686750D01*
X109045565Y-38569560D01*
X109036654Y-38567189D01*
X109132061Y-38534613D01*
X109284278Y-38453250D01*
X109367238Y-38238660D01*
X108570000Y-37441421D01*
X107772762Y-38238660D01*
X105151944Y-38238660D01*
X104957586Y-38200000D01*
X104642414Y-38200000D01*
X104333297Y-38261487D01*
X104042116Y-38382098D01*
X103780059Y-38557199D01*
X103557199Y-38780059D01*
X103382098Y-39042116D01*
X103261487Y-39333297D01*
X103200000Y-39642414D01*
X102111344Y-39642414D01*
X102486534Y-39030159D01*
X103105474Y-38305474D01*
X103830157Y-37686536D01*
X104642744Y-37188583D01*
X105523226Y-36823875D01*
X106449910Y-36601398D01*
X107420632Y-36525000D01*
X107573818Y-36525000D01*
X107416750Y-36585722D01*
%TO.N,Net-(C2-Pad1)*%
G36*
X103700000Y-64625000D02*
G01*
X103825000Y-64750000D01*
X103850001Y-64750346D01*
X103850000Y-64949382D01*
X103794736Y-64994736D01*
X103732254Y-65070871D01*
X103685825Y-65157733D01*
X103657235Y-65251983D01*
X103647581Y-65350000D01*
X103647581Y-66250000D01*
X103657235Y-66348017D01*
X103685825Y-66442267D01*
X103732254Y-66529129D01*
X103794736Y-66605264D01*
X103870871Y-66667746D01*
X103900000Y-66683316D01*
X103900000Y-69200000D01*
X103901921Y-69219509D01*
X103907612Y-69238268D01*
X103916853Y-69255557D01*
X103929289Y-69270711D01*
X104429289Y-69770711D01*
X104444443Y-69783147D01*
X104461732Y-69792388D01*
X104480491Y-69798079D01*
X104498530Y-69799989D01*
X106100000Y-69823540D01*
X106100000Y-70005392D01*
X106060000Y-70030733D01*
X106060000Y-70800000D01*
X106080000Y-70800000D01*
X106080000Y-71000000D01*
X106060000Y-71000000D01*
X106060000Y-72070000D01*
X106080000Y-72070000D01*
X106080000Y-72270000D01*
X106060000Y-72270000D01*
X106060000Y-73045000D01*
X106100000Y-73085000D01*
X106100000Y-73300000D01*
X104500000Y-73300000D01*
X104480491Y-73301921D01*
X104461732Y-73307612D01*
X104444443Y-73316853D01*
X104429289Y-73329289D01*
X103929289Y-73829289D01*
X103916853Y-73844443D01*
X103907612Y-73861732D01*
X103901921Y-73880491D01*
X103900000Y-73900000D01*
X103900000Y-74900000D01*
X102192500Y-74900000D01*
X102192500Y-74700000D01*
X102212500Y-74700000D01*
X102212500Y-73550000D01*
X102412500Y-73550000D01*
X102412500Y-74700000D01*
X103400000Y-74700000D01*
X103525000Y-74575000D01*
X103527419Y-73925000D01*
X103517765Y-73826983D01*
X103489175Y-73732733D01*
X103442746Y-73645871D01*
X103380264Y-73569736D01*
X103304129Y-73507254D01*
X103217267Y-73460825D01*
X103123017Y-73432235D01*
X103025000Y-73422581D01*
X102537500Y-73425000D01*
X102412500Y-73550000D01*
X102212500Y-73550000D01*
X102087500Y-73425000D01*
X101600000Y-73422581D01*
X101501983Y-73432235D01*
X101407733Y-73460825D01*
X101325000Y-73505047D01*
X101325000Y-72670000D01*
X104957581Y-72670000D01*
X104967235Y-72768017D01*
X104995825Y-72862267D01*
X105042254Y-72949129D01*
X105104736Y-73025264D01*
X105180871Y-73087746D01*
X105267733Y-73134175D01*
X105361983Y-73162765D01*
X105460000Y-73172419D01*
X105735000Y-73170000D01*
X105860000Y-73045000D01*
X105860000Y-72270000D01*
X105085000Y-72270000D01*
X104960000Y-72395000D01*
X104957581Y-72670000D01*
X101325000Y-72670000D01*
X101325000Y-71670000D01*
X104957581Y-71670000D01*
X104960000Y-71945000D01*
X105085000Y-72070000D01*
X105860000Y-72070000D01*
X105860000Y-71000000D01*
X105090007Y-71000000D01*
X104992900Y-71154420D01*
X105061117Y-71338203D01*
X105071557Y-71355164D01*
X105042254Y-71390871D01*
X104995825Y-71477733D01*
X104967235Y-71571983D01*
X104957581Y-71670000D01*
X101325000Y-71670000D01*
X101325000Y-70645580D01*
X104992900Y-70645580D01*
X105090007Y-70800000D01*
X105860000Y-70800000D01*
X105860000Y-70030733D01*
X105705581Y-69932906D01*
X105634249Y-69954537D01*
X105456058Y-70036255D01*
X105297233Y-70151166D01*
X105163878Y-70294854D01*
X105061117Y-70461797D01*
X104992900Y-70645580D01*
X101325000Y-70645580D01*
X101325000Y-69594953D01*
X101407733Y-69639175D01*
X101501983Y-69667765D01*
X101600000Y-69677419D01*
X102087500Y-69675000D01*
X102212500Y-69550000D01*
X102212500Y-68400000D01*
X102412500Y-68400000D01*
X102412500Y-69550000D01*
X102537500Y-69675000D01*
X103025000Y-69677419D01*
X103123017Y-69667765D01*
X103217267Y-69639175D01*
X103304129Y-69592746D01*
X103380264Y-69530264D01*
X103442746Y-69454129D01*
X103489175Y-69367267D01*
X103517765Y-69273017D01*
X103527419Y-69175000D01*
X103525000Y-68525000D01*
X103400000Y-68400000D01*
X102412500Y-68400000D01*
X102212500Y-68400000D01*
X102192500Y-68400000D01*
X102192500Y-68200000D01*
X102212500Y-68200000D01*
X102212500Y-67050000D01*
X102412500Y-67050000D01*
X102412500Y-68200000D01*
X103400000Y-68200000D01*
X103525000Y-68075000D01*
X103527419Y-67425000D01*
X103517765Y-67326983D01*
X103489175Y-67232733D01*
X103442746Y-67145871D01*
X103380264Y-67069736D01*
X103304129Y-67007254D01*
X103217267Y-66960825D01*
X103123017Y-66932235D01*
X103025000Y-66922581D01*
X102537500Y-66925000D01*
X102412500Y-67050000D01*
X102212500Y-67050000D01*
X102087500Y-66925000D01*
X101600000Y-66922581D01*
X101501983Y-66932235D01*
X101407733Y-66960825D01*
X101325000Y-67005047D01*
X101325000Y-66700000D01*
X102031214Y-66700000D01*
X102057733Y-66714175D01*
X102151983Y-66742765D01*
X102250000Y-66752419D01*
X103050000Y-66752419D01*
X103148017Y-66742765D01*
X103242267Y-66714175D01*
X103329129Y-66667746D01*
X103405264Y-66605264D01*
X103467746Y-66529129D01*
X103514175Y-66442267D01*
X103542765Y-66348017D01*
X103552419Y-66250000D01*
X103552419Y-65350000D01*
X103542765Y-65251983D01*
X103514175Y-65157733D01*
X103467746Y-65070871D01*
X103405264Y-64994736D01*
X103350000Y-64949382D01*
X103350000Y-64750346D01*
X103375000Y-64750000D01*
X103500000Y-64625000D01*
X103500000Y-63900000D01*
X103700000Y-63900000D01*
X103700000Y-64625000D01*
G37*
X103700000Y-64625000D02*
X103825000Y-64750000D01*
X103850001Y-64750346D01*
X103850000Y-64949382D01*
X103794736Y-64994736D01*
X103732254Y-65070871D01*
X103685825Y-65157733D01*
X103657235Y-65251983D01*
X103647581Y-65350000D01*
X103647581Y-66250000D01*
X103657235Y-66348017D01*
X103685825Y-66442267D01*
X103732254Y-66529129D01*
X103794736Y-66605264D01*
X103870871Y-66667746D01*
X103900000Y-66683316D01*
X103900000Y-69200000D01*
X103901921Y-69219509D01*
X103907612Y-69238268D01*
X103916853Y-69255557D01*
X103929289Y-69270711D01*
X104429289Y-69770711D01*
X104444443Y-69783147D01*
X104461732Y-69792388D01*
X104480491Y-69798079D01*
X104498530Y-69799989D01*
X106100000Y-69823540D01*
X106100000Y-70005392D01*
X106060000Y-70030733D01*
X106060000Y-70800000D01*
X106080000Y-70800000D01*
X106080000Y-71000000D01*
X106060000Y-71000000D01*
X106060000Y-72070000D01*
X106080000Y-72070000D01*
X106080000Y-72270000D01*
X106060000Y-72270000D01*
X106060000Y-73045000D01*
X106100000Y-73085000D01*
X106100000Y-73300000D01*
X104500000Y-73300000D01*
X104480491Y-73301921D01*
X104461732Y-73307612D01*
X104444443Y-73316853D01*
X104429289Y-73329289D01*
X103929289Y-73829289D01*
X103916853Y-73844443D01*
X103907612Y-73861732D01*
X103901921Y-73880491D01*
X103900000Y-73900000D01*
X103900000Y-74900000D01*
X102192500Y-74900000D01*
X102192500Y-74700000D01*
X102212500Y-74700000D01*
X102212500Y-73550000D01*
X102412500Y-73550000D01*
X102412500Y-74700000D01*
X103400000Y-74700000D01*
X103525000Y-74575000D01*
X103527419Y-73925000D01*
X103517765Y-73826983D01*
X103489175Y-73732733D01*
X103442746Y-73645871D01*
X103380264Y-73569736D01*
X103304129Y-73507254D01*
X103217267Y-73460825D01*
X103123017Y-73432235D01*
X103025000Y-73422581D01*
X102537500Y-73425000D01*
X102412500Y-73550000D01*
X102212500Y-73550000D01*
X102087500Y-73425000D01*
X101600000Y-73422581D01*
X101501983Y-73432235D01*
X101407733Y-73460825D01*
X101325000Y-73505047D01*
X101325000Y-72670000D01*
X104957581Y-72670000D01*
X104967235Y-72768017D01*
X104995825Y-72862267D01*
X105042254Y-72949129D01*
X105104736Y-73025264D01*
X105180871Y-73087746D01*
X105267733Y-73134175D01*
X105361983Y-73162765D01*
X105460000Y-73172419D01*
X105735000Y-73170000D01*
X105860000Y-73045000D01*
X105860000Y-72270000D01*
X105085000Y-72270000D01*
X104960000Y-72395000D01*
X104957581Y-72670000D01*
X101325000Y-72670000D01*
X101325000Y-71670000D01*
X104957581Y-71670000D01*
X104960000Y-71945000D01*
X105085000Y-72070000D01*
X105860000Y-72070000D01*
X105860000Y-71000000D01*
X105090007Y-71000000D01*
X104992900Y-71154420D01*
X105061117Y-71338203D01*
X105071557Y-71355164D01*
X105042254Y-71390871D01*
X104995825Y-71477733D01*
X104967235Y-71571983D01*
X104957581Y-71670000D01*
X101325000Y-71670000D01*
X101325000Y-70645580D01*
X104992900Y-70645580D01*
X105090007Y-70800000D01*
X105860000Y-70800000D01*
X105860000Y-70030733D01*
X105705581Y-69932906D01*
X105634249Y-69954537D01*
X105456058Y-70036255D01*
X105297233Y-70151166D01*
X105163878Y-70294854D01*
X105061117Y-70461797D01*
X104992900Y-70645580D01*
X101325000Y-70645580D01*
X101325000Y-69594953D01*
X101407733Y-69639175D01*
X101501983Y-69667765D01*
X101600000Y-69677419D01*
X102087500Y-69675000D01*
X102212500Y-69550000D01*
X102212500Y-68400000D01*
X102412500Y-68400000D01*
X102412500Y-69550000D01*
X102537500Y-69675000D01*
X103025000Y-69677419D01*
X103123017Y-69667765D01*
X103217267Y-69639175D01*
X103304129Y-69592746D01*
X103380264Y-69530264D01*
X103442746Y-69454129D01*
X103489175Y-69367267D01*
X103517765Y-69273017D01*
X103527419Y-69175000D01*
X103525000Y-68525000D01*
X103400000Y-68400000D01*
X102412500Y-68400000D01*
X102212500Y-68400000D01*
X102192500Y-68400000D01*
X102192500Y-68200000D01*
X102212500Y-68200000D01*
X102212500Y-67050000D01*
X102412500Y-67050000D01*
X102412500Y-68200000D01*
X103400000Y-68200000D01*
X103525000Y-68075000D01*
X103527419Y-67425000D01*
X103517765Y-67326983D01*
X103489175Y-67232733D01*
X103442746Y-67145871D01*
X103380264Y-67069736D01*
X103304129Y-67007254D01*
X103217267Y-66960825D01*
X103123017Y-66932235D01*
X103025000Y-66922581D01*
X102537500Y-66925000D01*
X102412500Y-67050000D01*
X102212500Y-67050000D01*
X102087500Y-66925000D01*
X101600000Y-66922581D01*
X101501983Y-66932235D01*
X101407733Y-66960825D01*
X101325000Y-67005047D01*
X101325000Y-66700000D01*
X102031214Y-66700000D01*
X102057733Y-66714175D01*
X102151983Y-66742765D01*
X102250000Y-66752419D01*
X103050000Y-66752419D01*
X103148017Y-66742765D01*
X103242267Y-66714175D01*
X103329129Y-66667746D01*
X103405264Y-66605264D01*
X103467746Y-66529129D01*
X103514175Y-66442267D01*
X103542765Y-66348017D01*
X103552419Y-66250000D01*
X103552419Y-65350000D01*
X103542765Y-65251983D01*
X103514175Y-65157733D01*
X103467746Y-65070871D01*
X103405264Y-64994736D01*
X103350000Y-64949382D01*
X103350000Y-64750346D01*
X103375000Y-64750000D01*
X103500000Y-64625000D01*
X103500000Y-63900000D01*
X103700000Y-63900000D01*
X103700000Y-64625000D01*
%TD*%
M02*
