%TF.GenerationSoftware,KiCad,Pcbnew,5.1.6*%
%TF.CreationDate,2020-09-04T21:44:15-07:00*%
%TF.ProjectId,sniffer,736e6966-6665-4722-9e6b-696361645f70,rev?*%
%TF.SameCoordinates,Original*%
%TF.FileFunction,Soldermask,Bot*%
%TF.FilePolarity,Negative*%
%FSLAX46Y46*%
G04 Gerber Fmt 4.6, Leading zero omitted, Abs format (unit mm)*
G04 Created by KiCad (PCBNEW 5.1.6) date 2020-09-04 21:44:15*
%MOMM*%
%LPD*%
G01*
G04 APERTURE LIST*
%ADD10C,2.300000*%
%ADD11O,1.800000X1.800000*%
%ADD12R,1.800000X1.800000*%
%ADD13O,1.100000X1.100000*%
%ADD14R,1.100000X1.100000*%
%ADD15C,1.800000*%
%ADD16C,0.100000*%
G04 APERTURE END LIST*
D10*
%TO.C,J1*%
X125500000Y-94000000D03*
X114500000Y-94000000D03*
D11*
X126350000Y-84000000D03*
X123810000Y-84000000D03*
X121270000Y-84000000D03*
X118730000Y-84000000D03*
X116190000Y-84000000D03*
D12*
X113650000Y-84000000D03*
%TD*%
D13*
%TO.C,J2*%
X107230000Y-70900000D03*
X105960000Y-70900000D03*
X109770000Y-70900000D03*
X111040000Y-72170000D03*
X111040000Y-70900000D03*
X107230000Y-72170000D03*
X108500000Y-70900000D03*
X109770000Y-72170000D03*
D14*
X105960000Y-72170000D03*
D13*
X108500000Y-72170000D03*
D10*
X103500000Y-45000000D03*
X136500000Y-75000000D03*
%TD*%
%TO.C,H4*%
X135200000Y-97700000D03*
%TD*%
%TO.C,H3*%
X135200000Y-39800000D03*
%TD*%
%TO.C,H2*%
X104800000Y-97700000D03*
%TD*%
%TO.C,H1*%
X104800000Y-39800000D03*
%TD*%
D15*
%TO.C,U1*%
X108570000Y-65240000D03*
X108570000Y-62700000D03*
X108570000Y-60160000D03*
X108570000Y-57620000D03*
X108570000Y-55080000D03*
X108570000Y-52540000D03*
X108570000Y-50000000D03*
X108570000Y-47460000D03*
X108570000Y-44920000D03*
X108570000Y-42380000D03*
X108570000Y-39840000D03*
X108570000Y-37300000D03*
X131430000Y-65240000D03*
X131430000Y-62700000D03*
X131430000Y-60160000D03*
X131430000Y-57620000D03*
X131430000Y-55080000D03*
X131430000Y-52540000D03*
X131430000Y-50000000D03*
X131430000Y-47460000D03*
X131430000Y-44920000D03*
X131430000Y-42380000D03*
X131430000Y-39840000D03*
X131430000Y-37300000D03*
%TD*%
D16*
%TO.C,JP1*%
G36*
X106659755Y-83400961D02*
G01*
X106669134Y-83403806D01*
X106677779Y-83408427D01*
X106685355Y-83414645D01*
X106691573Y-83422221D01*
X106696194Y-83430866D01*
X106699039Y-83440245D01*
X106700000Y-83450000D01*
X106700000Y-84950000D01*
X106699039Y-84959755D01*
X106696194Y-84969134D01*
X106691573Y-84977779D01*
X106685355Y-84985355D01*
X106677779Y-84991573D01*
X106669134Y-84996194D01*
X106659755Y-84999039D01*
X106650000Y-85000000D01*
X106150000Y-85000000D01*
X106143889Y-84999398D01*
X106125466Y-84999398D01*
X106120565Y-84999157D01*
X106071734Y-84994347D01*
X106066881Y-84993627D01*
X106018756Y-84984055D01*
X106013995Y-84982863D01*
X105967040Y-84968619D01*
X105962421Y-84966966D01*
X105917088Y-84948189D01*
X105912651Y-84946091D01*
X105869378Y-84922960D01*
X105865171Y-84920438D01*
X105824372Y-84893178D01*
X105820430Y-84890254D01*
X105782501Y-84859126D01*
X105778866Y-84855831D01*
X105744169Y-84821134D01*
X105740874Y-84817499D01*
X105709746Y-84779570D01*
X105706822Y-84775628D01*
X105679562Y-84734829D01*
X105677040Y-84730622D01*
X105653909Y-84687349D01*
X105651811Y-84682912D01*
X105633034Y-84637579D01*
X105631381Y-84632960D01*
X105617137Y-84586005D01*
X105615945Y-84581244D01*
X105606373Y-84533119D01*
X105605653Y-84528266D01*
X105600843Y-84479435D01*
X105600602Y-84474534D01*
X105600602Y-84456111D01*
X105600000Y-84450000D01*
X105600000Y-83950000D01*
X105600602Y-83943889D01*
X105600602Y-83925466D01*
X105600843Y-83920565D01*
X105605653Y-83871734D01*
X105606373Y-83866881D01*
X105615945Y-83818756D01*
X105617137Y-83813995D01*
X105631381Y-83767040D01*
X105633034Y-83762421D01*
X105651811Y-83717088D01*
X105653909Y-83712651D01*
X105677040Y-83669378D01*
X105679562Y-83665171D01*
X105706822Y-83624372D01*
X105709746Y-83620430D01*
X105740874Y-83582501D01*
X105744169Y-83578866D01*
X105778866Y-83544169D01*
X105782501Y-83540874D01*
X105820430Y-83509746D01*
X105824372Y-83506822D01*
X105865171Y-83479562D01*
X105869378Y-83477040D01*
X105912651Y-83453909D01*
X105917088Y-83451811D01*
X105962421Y-83433034D01*
X105967040Y-83431381D01*
X106013995Y-83417137D01*
X106018756Y-83415945D01*
X106066881Y-83406373D01*
X106071734Y-83405653D01*
X106120565Y-83400843D01*
X106125466Y-83400602D01*
X106143889Y-83400602D01*
X106150000Y-83400000D01*
X106650000Y-83400000D01*
X106659755Y-83400961D01*
G37*
G36*
X107456111Y-83400602D02*
G01*
X107474534Y-83400602D01*
X107479435Y-83400843D01*
X107528266Y-83405653D01*
X107533119Y-83406373D01*
X107581244Y-83415945D01*
X107586005Y-83417137D01*
X107632960Y-83431381D01*
X107637579Y-83433034D01*
X107682912Y-83451811D01*
X107687349Y-83453909D01*
X107730622Y-83477040D01*
X107734829Y-83479562D01*
X107775628Y-83506822D01*
X107779570Y-83509746D01*
X107817499Y-83540874D01*
X107821134Y-83544169D01*
X107855831Y-83578866D01*
X107859126Y-83582501D01*
X107890254Y-83620430D01*
X107893178Y-83624372D01*
X107920438Y-83665171D01*
X107922960Y-83669378D01*
X107946091Y-83712651D01*
X107948189Y-83717088D01*
X107966966Y-83762421D01*
X107968619Y-83767040D01*
X107982863Y-83813995D01*
X107984055Y-83818756D01*
X107993627Y-83866881D01*
X107994347Y-83871734D01*
X107999157Y-83920565D01*
X107999398Y-83925466D01*
X107999398Y-83943889D01*
X108000000Y-83950000D01*
X108000000Y-84450000D01*
X107999398Y-84456111D01*
X107999398Y-84474534D01*
X107999157Y-84479435D01*
X107994347Y-84528266D01*
X107993627Y-84533119D01*
X107984055Y-84581244D01*
X107982863Y-84586005D01*
X107968619Y-84632960D01*
X107966966Y-84637579D01*
X107948189Y-84682912D01*
X107946091Y-84687349D01*
X107922960Y-84730622D01*
X107920438Y-84734829D01*
X107893178Y-84775628D01*
X107890254Y-84779570D01*
X107859126Y-84817499D01*
X107855831Y-84821134D01*
X107821134Y-84855831D01*
X107817499Y-84859126D01*
X107779570Y-84890254D01*
X107775628Y-84893178D01*
X107734829Y-84920438D01*
X107730622Y-84922960D01*
X107687349Y-84946091D01*
X107682912Y-84948189D01*
X107637579Y-84966966D01*
X107632960Y-84968619D01*
X107586005Y-84982863D01*
X107581244Y-84984055D01*
X107533119Y-84993627D01*
X107528266Y-84994347D01*
X107479435Y-84999157D01*
X107474534Y-84999398D01*
X107456111Y-84999398D01*
X107450000Y-85000000D01*
X106950000Y-85000000D01*
X106940245Y-84999039D01*
X106930866Y-84996194D01*
X106922221Y-84991573D01*
X106914645Y-84985355D01*
X106908427Y-84977779D01*
X106903806Y-84969134D01*
X106900961Y-84959755D01*
X106900000Y-84950000D01*
X106900000Y-83450000D01*
X106900961Y-83440245D01*
X106903806Y-83430866D01*
X106908427Y-83422221D01*
X106914645Y-83414645D01*
X106922221Y-83408427D01*
X106930866Y-83403806D01*
X106940245Y-83400961D01*
X106950000Y-83400000D01*
X107450000Y-83400000D01*
X107456111Y-83400602D01*
G37*
%TD*%
%TO.C,JP2*%
G36*
X117800961Y-80140245D02*
G01*
X117803806Y-80130866D01*
X117808427Y-80122221D01*
X117814645Y-80114645D01*
X117822221Y-80108427D01*
X117830866Y-80103806D01*
X117840245Y-80100961D01*
X117850000Y-80100000D01*
X119350000Y-80100000D01*
X119359755Y-80100961D01*
X119369134Y-80103806D01*
X119377779Y-80108427D01*
X119385355Y-80114645D01*
X119391573Y-80122221D01*
X119396194Y-80130866D01*
X119399039Y-80140245D01*
X119400000Y-80150000D01*
X119400000Y-80650000D01*
X119399398Y-80656111D01*
X119399398Y-80674534D01*
X119399157Y-80679435D01*
X119394347Y-80728266D01*
X119393627Y-80733119D01*
X119384055Y-80781244D01*
X119382863Y-80786005D01*
X119368619Y-80832960D01*
X119366966Y-80837579D01*
X119348189Y-80882912D01*
X119346091Y-80887349D01*
X119322960Y-80930622D01*
X119320438Y-80934829D01*
X119293178Y-80975628D01*
X119290254Y-80979570D01*
X119259126Y-81017499D01*
X119255831Y-81021134D01*
X119221134Y-81055831D01*
X119217499Y-81059126D01*
X119179570Y-81090254D01*
X119175628Y-81093178D01*
X119134829Y-81120438D01*
X119130622Y-81122960D01*
X119087349Y-81146091D01*
X119082912Y-81148189D01*
X119037579Y-81166966D01*
X119032960Y-81168619D01*
X118986005Y-81182863D01*
X118981244Y-81184055D01*
X118933119Y-81193627D01*
X118928266Y-81194347D01*
X118879435Y-81199157D01*
X118874534Y-81199398D01*
X118856111Y-81199398D01*
X118850000Y-81200000D01*
X118350000Y-81200000D01*
X118343889Y-81199398D01*
X118325466Y-81199398D01*
X118320565Y-81199157D01*
X118271734Y-81194347D01*
X118266881Y-81193627D01*
X118218756Y-81184055D01*
X118213995Y-81182863D01*
X118167040Y-81168619D01*
X118162421Y-81166966D01*
X118117088Y-81148189D01*
X118112651Y-81146091D01*
X118069378Y-81122960D01*
X118065171Y-81120438D01*
X118024372Y-81093178D01*
X118020430Y-81090254D01*
X117982501Y-81059126D01*
X117978866Y-81055831D01*
X117944169Y-81021134D01*
X117940874Y-81017499D01*
X117909746Y-80979570D01*
X117906822Y-80975628D01*
X117879562Y-80934829D01*
X117877040Y-80930622D01*
X117853909Y-80887349D01*
X117851811Y-80882912D01*
X117833034Y-80837579D01*
X117831381Y-80832960D01*
X117817137Y-80786005D01*
X117815945Y-80781244D01*
X117806373Y-80733119D01*
X117805653Y-80728266D01*
X117800843Y-80679435D01*
X117800602Y-80674534D01*
X117800602Y-80656111D01*
X117800000Y-80650000D01*
X117800000Y-80150000D01*
X117800961Y-80140245D01*
G37*
G36*
X117800602Y-79343889D02*
G01*
X117800602Y-79325466D01*
X117800843Y-79320565D01*
X117805653Y-79271734D01*
X117806373Y-79266881D01*
X117815945Y-79218756D01*
X117817137Y-79213995D01*
X117831381Y-79167040D01*
X117833034Y-79162421D01*
X117851811Y-79117088D01*
X117853909Y-79112651D01*
X117877040Y-79069378D01*
X117879562Y-79065171D01*
X117906822Y-79024372D01*
X117909746Y-79020430D01*
X117940874Y-78982501D01*
X117944169Y-78978866D01*
X117978866Y-78944169D01*
X117982501Y-78940874D01*
X118020430Y-78909746D01*
X118024372Y-78906822D01*
X118065171Y-78879562D01*
X118069378Y-78877040D01*
X118112651Y-78853909D01*
X118117088Y-78851811D01*
X118162421Y-78833034D01*
X118167040Y-78831381D01*
X118213995Y-78817137D01*
X118218756Y-78815945D01*
X118266881Y-78806373D01*
X118271734Y-78805653D01*
X118320565Y-78800843D01*
X118325466Y-78800602D01*
X118343889Y-78800602D01*
X118350000Y-78800000D01*
X118850000Y-78800000D01*
X118856111Y-78800602D01*
X118874534Y-78800602D01*
X118879435Y-78800843D01*
X118928266Y-78805653D01*
X118933119Y-78806373D01*
X118981244Y-78815945D01*
X118986005Y-78817137D01*
X119032960Y-78831381D01*
X119037579Y-78833034D01*
X119082912Y-78851811D01*
X119087349Y-78853909D01*
X119130622Y-78877040D01*
X119134829Y-78879562D01*
X119175628Y-78906822D01*
X119179570Y-78909746D01*
X119217499Y-78940874D01*
X119221134Y-78944169D01*
X119255831Y-78978866D01*
X119259126Y-78982501D01*
X119290254Y-79020430D01*
X119293178Y-79024372D01*
X119320438Y-79065171D01*
X119322960Y-79069378D01*
X119346091Y-79112651D01*
X119348189Y-79117088D01*
X119366966Y-79162421D01*
X119368619Y-79167040D01*
X119382863Y-79213995D01*
X119384055Y-79218756D01*
X119393627Y-79266881D01*
X119394347Y-79271734D01*
X119399157Y-79320565D01*
X119399398Y-79325466D01*
X119399398Y-79343889D01*
X119400000Y-79350000D01*
X119400000Y-79850000D01*
X119399039Y-79859755D01*
X119396194Y-79869134D01*
X119391573Y-79877779D01*
X119385355Y-79885355D01*
X119377779Y-79891573D01*
X119369134Y-79896194D01*
X119359755Y-79899039D01*
X119350000Y-79900000D01*
X117850000Y-79900000D01*
X117840245Y-79899039D01*
X117830866Y-79896194D01*
X117822221Y-79891573D01*
X117814645Y-79885355D01*
X117808427Y-79877779D01*
X117803806Y-79869134D01*
X117800961Y-79859755D01*
X117800000Y-79850000D01*
X117800000Y-79350000D01*
X117800602Y-79343889D01*
G37*
%TD*%
%TO.C,JP3*%
G36*
X120400961Y-80140245D02*
G01*
X120403806Y-80130866D01*
X120408427Y-80122221D01*
X120414645Y-80114645D01*
X120422221Y-80108427D01*
X120430866Y-80103806D01*
X120440245Y-80100961D01*
X120450000Y-80100000D01*
X121950000Y-80100000D01*
X121959755Y-80100961D01*
X121969134Y-80103806D01*
X121977779Y-80108427D01*
X121985355Y-80114645D01*
X121991573Y-80122221D01*
X121996194Y-80130866D01*
X121999039Y-80140245D01*
X122000000Y-80150000D01*
X122000000Y-80650000D01*
X121999398Y-80656111D01*
X121999398Y-80674534D01*
X121999157Y-80679435D01*
X121994347Y-80728266D01*
X121993627Y-80733119D01*
X121984055Y-80781244D01*
X121982863Y-80786005D01*
X121968619Y-80832960D01*
X121966966Y-80837579D01*
X121948189Y-80882912D01*
X121946091Y-80887349D01*
X121922960Y-80930622D01*
X121920438Y-80934829D01*
X121893178Y-80975628D01*
X121890254Y-80979570D01*
X121859126Y-81017499D01*
X121855831Y-81021134D01*
X121821134Y-81055831D01*
X121817499Y-81059126D01*
X121779570Y-81090254D01*
X121775628Y-81093178D01*
X121734829Y-81120438D01*
X121730622Y-81122960D01*
X121687349Y-81146091D01*
X121682912Y-81148189D01*
X121637579Y-81166966D01*
X121632960Y-81168619D01*
X121586005Y-81182863D01*
X121581244Y-81184055D01*
X121533119Y-81193627D01*
X121528266Y-81194347D01*
X121479435Y-81199157D01*
X121474534Y-81199398D01*
X121456111Y-81199398D01*
X121450000Y-81200000D01*
X120950000Y-81200000D01*
X120943889Y-81199398D01*
X120925466Y-81199398D01*
X120920565Y-81199157D01*
X120871734Y-81194347D01*
X120866881Y-81193627D01*
X120818756Y-81184055D01*
X120813995Y-81182863D01*
X120767040Y-81168619D01*
X120762421Y-81166966D01*
X120717088Y-81148189D01*
X120712651Y-81146091D01*
X120669378Y-81122960D01*
X120665171Y-81120438D01*
X120624372Y-81093178D01*
X120620430Y-81090254D01*
X120582501Y-81059126D01*
X120578866Y-81055831D01*
X120544169Y-81021134D01*
X120540874Y-81017499D01*
X120509746Y-80979570D01*
X120506822Y-80975628D01*
X120479562Y-80934829D01*
X120477040Y-80930622D01*
X120453909Y-80887349D01*
X120451811Y-80882912D01*
X120433034Y-80837579D01*
X120431381Y-80832960D01*
X120417137Y-80786005D01*
X120415945Y-80781244D01*
X120406373Y-80733119D01*
X120405653Y-80728266D01*
X120400843Y-80679435D01*
X120400602Y-80674534D01*
X120400602Y-80656111D01*
X120400000Y-80650000D01*
X120400000Y-80150000D01*
X120400961Y-80140245D01*
G37*
G36*
X120400602Y-79343889D02*
G01*
X120400602Y-79325466D01*
X120400843Y-79320565D01*
X120405653Y-79271734D01*
X120406373Y-79266881D01*
X120415945Y-79218756D01*
X120417137Y-79213995D01*
X120431381Y-79167040D01*
X120433034Y-79162421D01*
X120451811Y-79117088D01*
X120453909Y-79112651D01*
X120477040Y-79069378D01*
X120479562Y-79065171D01*
X120506822Y-79024372D01*
X120509746Y-79020430D01*
X120540874Y-78982501D01*
X120544169Y-78978866D01*
X120578866Y-78944169D01*
X120582501Y-78940874D01*
X120620430Y-78909746D01*
X120624372Y-78906822D01*
X120665171Y-78879562D01*
X120669378Y-78877040D01*
X120712651Y-78853909D01*
X120717088Y-78851811D01*
X120762421Y-78833034D01*
X120767040Y-78831381D01*
X120813995Y-78817137D01*
X120818756Y-78815945D01*
X120866881Y-78806373D01*
X120871734Y-78805653D01*
X120920565Y-78800843D01*
X120925466Y-78800602D01*
X120943889Y-78800602D01*
X120950000Y-78800000D01*
X121450000Y-78800000D01*
X121456111Y-78800602D01*
X121474534Y-78800602D01*
X121479435Y-78800843D01*
X121528266Y-78805653D01*
X121533119Y-78806373D01*
X121581244Y-78815945D01*
X121586005Y-78817137D01*
X121632960Y-78831381D01*
X121637579Y-78833034D01*
X121682912Y-78851811D01*
X121687349Y-78853909D01*
X121730622Y-78877040D01*
X121734829Y-78879562D01*
X121775628Y-78906822D01*
X121779570Y-78909746D01*
X121817499Y-78940874D01*
X121821134Y-78944169D01*
X121855831Y-78978866D01*
X121859126Y-78982501D01*
X121890254Y-79020430D01*
X121893178Y-79024372D01*
X121920438Y-79065171D01*
X121922960Y-79069378D01*
X121946091Y-79112651D01*
X121948189Y-79117088D01*
X121966966Y-79162421D01*
X121968619Y-79167040D01*
X121982863Y-79213995D01*
X121984055Y-79218756D01*
X121993627Y-79266881D01*
X121994347Y-79271734D01*
X121999157Y-79320565D01*
X121999398Y-79325466D01*
X121999398Y-79343889D01*
X122000000Y-79350000D01*
X122000000Y-79850000D01*
X121999039Y-79859755D01*
X121996194Y-79869134D01*
X121991573Y-79877779D01*
X121985355Y-79885355D01*
X121977779Y-79891573D01*
X121969134Y-79896194D01*
X121959755Y-79899039D01*
X121950000Y-79900000D01*
X120450000Y-79900000D01*
X120440245Y-79899039D01*
X120430866Y-79896194D01*
X120422221Y-79891573D01*
X120414645Y-79885355D01*
X120408427Y-79877779D01*
X120403806Y-79869134D01*
X120400961Y-79859755D01*
X120400000Y-79850000D01*
X120400000Y-79350000D01*
X120400602Y-79343889D01*
G37*
%TD*%
%TO.C,JP4*%
G36*
X128640245Y-53299039D02*
G01*
X128630866Y-53296194D01*
X128622221Y-53291573D01*
X128614645Y-53285355D01*
X128608427Y-53277779D01*
X128603806Y-53269134D01*
X128600961Y-53259755D01*
X128600000Y-53250000D01*
X128600000Y-51750000D01*
X128600961Y-51740245D01*
X128603806Y-51730866D01*
X128608427Y-51722221D01*
X128614645Y-51714645D01*
X128622221Y-51708427D01*
X128630866Y-51703806D01*
X128640245Y-51700961D01*
X128650000Y-51700000D01*
X129150000Y-51700000D01*
X129156111Y-51700602D01*
X129174534Y-51700602D01*
X129179435Y-51700843D01*
X129228266Y-51705653D01*
X129233119Y-51706373D01*
X129281244Y-51715945D01*
X129286005Y-51717137D01*
X129332960Y-51731381D01*
X129337579Y-51733034D01*
X129382912Y-51751811D01*
X129387349Y-51753909D01*
X129430622Y-51777040D01*
X129434829Y-51779562D01*
X129475628Y-51806822D01*
X129479570Y-51809746D01*
X129517499Y-51840874D01*
X129521134Y-51844169D01*
X129555831Y-51878866D01*
X129559126Y-51882501D01*
X129590254Y-51920430D01*
X129593178Y-51924372D01*
X129620438Y-51965171D01*
X129622960Y-51969378D01*
X129646091Y-52012651D01*
X129648189Y-52017088D01*
X129666966Y-52062421D01*
X129668619Y-52067040D01*
X129682863Y-52113995D01*
X129684055Y-52118756D01*
X129693627Y-52166881D01*
X129694347Y-52171734D01*
X129699157Y-52220565D01*
X129699398Y-52225466D01*
X129699398Y-52243889D01*
X129700000Y-52250000D01*
X129700000Y-52750000D01*
X129699398Y-52756111D01*
X129699398Y-52774534D01*
X129699157Y-52779435D01*
X129694347Y-52828266D01*
X129693627Y-52833119D01*
X129684055Y-52881244D01*
X129682863Y-52886005D01*
X129668619Y-52932960D01*
X129666966Y-52937579D01*
X129648189Y-52982912D01*
X129646091Y-52987349D01*
X129622960Y-53030622D01*
X129620438Y-53034829D01*
X129593178Y-53075628D01*
X129590254Y-53079570D01*
X129559126Y-53117499D01*
X129555831Y-53121134D01*
X129521134Y-53155831D01*
X129517499Y-53159126D01*
X129479570Y-53190254D01*
X129475628Y-53193178D01*
X129434829Y-53220438D01*
X129430622Y-53222960D01*
X129387349Y-53246091D01*
X129382912Y-53248189D01*
X129337579Y-53266966D01*
X129332960Y-53268619D01*
X129286005Y-53282863D01*
X129281244Y-53284055D01*
X129233119Y-53293627D01*
X129228266Y-53294347D01*
X129179435Y-53299157D01*
X129174534Y-53299398D01*
X129156111Y-53299398D01*
X129150000Y-53300000D01*
X128650000Y-53300000D01*
X128640245Y-53299039D01*
G37*
G36*
X127843889Y-53299398D02*
G01*
X127825466Y-53299398D01*
X127820565Y-53299157D01*
X127771734Y-53294347D01*
X127766881Y-53293627D01*
X127718756Y-53284055D01*
X127713995Y-53282863D01*
X127667040Y-53268619D01*
X127662421Y-53266966D01*
X127617088Y-53248189D01*
X127612651Y-53246091D01*
X127569378Y-53222960D01*
X127565171Y-53220438D01*
X127524372Y-53193178D01*
X127520430Y-53190254D01*
X127482501Y-53159126D01*
X127478866Y-53155831D01*
X127444169Y-53121134D01*
X127440874Y-53117499D01*
X127409746Y-53079570D01*
X127406822Y-53075628D01*
X127379562Y-53034829D01*
X127377040Y-53030622D01*
X127353909Y-52987349D01*
X127351811Y-52982912D01*
X127333034Y-52937579D01*
X127331381Y-52932960D01*
X127317137Y-52886005D01*
X127315945Y-52881244D01*
X127306373Y-52833119D01*
X127305653Y-52828266D01*
X127300843Y-52779435D01*
X127300602Y-52774534D01*
X127300602Y-52756111D01*
X127300000Y-52750000D01*
X127300000Y-52250000D01*
X127300602Y-52243889D01*
X127300602Y-52225466D01*
X127300843Y-52220565D01*
X127305653Y-52171734D01*
X127306373Y-52166881D01*
X127315945Y-52118756D01*
X127317137Y-52113995D01*
X127331381Y-52067040D01*
X127333034Y-52062421D01*
X127351811Y-52017088D01*
X127353909Y-52012651D01*
X127377040Y-51969378D01*
X127379562Y-51965171D01*
X127406822Y-51924372D01*
X127409746Y-51920430D01*
X127440874Y-51882501D01*
X127444169Y-51878866D01*
X127478866Y-51844169D01*
X127482501Y-51840874D01*
X127520430Y-51809746D01*
X127524372Y-51806822D01*
X127565171Y-51779562D01*
X127569378Y-51777040D01*
X127612651Y-51753909D01*
X127617088Y-51751811D01*
X127662421Y-51733034D01*
X127667040Y-51731381D01*
X127713995Y-51717137D01*
X127718756Y-51715945D01*
X127766881Y-51706373D01*
X127771734Y-51705653D01*
X127820565Y-51700843D01*
X127825466Y-51700602D01*
X127843889Y-51700602D01*
X127850000Y-51700000D01*
X128350000Y-51700000D01*
X128359755Y-51700961D01*
X128369134Y-51703806D01*
X128377779Y-51708427D01*
X128385355Y-51714645D01*
X128391573Y-51722221D01*
X128396194Y-51730866D01*
X128399039Y-51740245D01*
X128400000Y-51750000D01*
X128400000Y-53250000D01*
X128399039Y-53259755D01*
X128396194Y-53269134D01*
X128391573Y-53277779D01*
X128385355Y-53285355D01*
X128377779Y-53291573D01*
X128369134Y-53296194D01*
X128359755Y-53299039D01*
X128350000Y-53300000D01*
X127850000Y-53300000D01*
X127843889Y-53299398D01*
G37*
%TD*%
%TO.C,JP5*%
G36*
X128640245Y-55799039D02*
G01*
X128630866Y-55796194D01*
X128622221Y-55791573D01*
X128614645Y-55785355D01*
X128608427Y-55777779D01*
X128603806Y-55769134D01*
X128600961Y-55759755D01*
X128600000Y-55750000D01*
X128600000Y-54250000D01*
X128600961Y-54240245D01*
X128603806Y-54230866D01*
X128608427Y-54222221D01*
X128614645Y-54214645D01*
X128622221Y-54208427D01*
X128630866Y-54203806D01*
X128640245Y-54200961D01*
X128650000Y-54200000D01*
X129150000Y-54200000D01*
X129156111Y-54200602D01*
X129174534Y-54200602D01*
X129179435Y-54200843D01*
X129228266Y-54205653D01*
X129233119Y-54206373D01*
X129281244Y-54215945D01*
X129286005Y-54217137D01*
X129332960Y-54231381D01*
X129337579Y-54233034D01*
X129382912Y-54251811D01*
X129387349Y-54253909D01*
X129430622Y-54277040D01*
X129434829Y-54279562D01*
X129475628Y-54306822D01*
X129479570Y-54309746D01*
X129517499Y-54340874D01*
X129521134Y-54344169D01*
X129555831Y-54378866D01*
X129559126Y-54382501D01*
X129590254Y-54420430D01*
X129593178Y-54424372D01*
X129620438Y-54465171D01*
X129622960Y-54469378D01*
X129646091Y-54512651D01*
X129648189Y-54517088D01*
X129666966Y-54562421D01*
X129668619Y-54567040D01*
X129682863Y-54613995D01*
X129684055Y-54618756D01*
X129693627Y-54666881D01*
X129694347Y-54671734D01*
X129699157Y-54720565D01*
X129699398Y-54725466D01*
X129699398Y-54743889D01*
X129700000Y-54750000D01*
X129700000Y-55250000D01*
X129699398Y-55256111D01*
X129699398Y-55274534D01*
X129699157Y-55279435D01*
X129694347Y-55328266D01*
X129693627Y-55333119D01*
X129684055Y-55381244D01*
X129682863Y-55386005D01*
X129668619Y-55432960D01*
X129666966Y-55437579D01*
X129648189Y-55482912D01*
X129646091Y-55487349D01*
X129622960Y-55530622D01*
X129620438Y-55534829D01*
X129593178Y-55575628D01*
X129590254Y-55579570D01*
X129559126Y-55617499D01*
X129555831Y-55621134D01*
X129521134Y-55655831D01*
X129517499Y-55659126D01*
X129479570Y-55690254D01*
X129475628Y-55693178D01*
X129434829Y-55720438D01*
X129430622Y-55722960D01*
X129387349Y-55746091D01*
X129382912Y-55748189D01*
X129337579Y-55766966D01*
X129332960Y-55768619D01*
X129286005Y-55782863D01*
X129281244Y-55784055D01*
X129233119Y-55793627D01*
X129228266Y-55794347D01*
X129179435Y-55799157D01*
X129174534Y-55799398D01*
X129156111Y-55799398D01*
X129150000Y-55800000D01*
X128650000Y-55800000D01*
X128640245Y-55799039D01*
G37*
G36*
X127843889Y-55799398D02*
G01*
X127825466Y-55799398D01*
X127820565Y-55799157D01*
X127771734Y-55794347D01*
X127766881Y-55793627D01*
X127718756Y-55784055D01*
X127713995Y-55782863D01*
X127667040Y-55768619D01*
X127662421Y-55766966D01*
X127617088Y-55748189D01*
X127612651Y-55746091D01*
X127569378Y-55722960D01*
X127565171Y-55720438D01*
X127524372Y-55693178D01*
X127520430Y-55690254D01*
X127482501Y-55659126D01*
X127478866Y-55655831D01*
X127444169Y-55621134D01*
X127440874Y-55617499D01*
X127409746Y-55579570D01*
X127406822Y-55575628D01*
X127379562Y-55534829D01*
X127377040Y-55530622D01*
X127353909Y-55487349D01*
X127351811Y-55482912D01*
X127333034Y-55437579D01*
X127331381Y-55432960D01*
X127317137Y-55386005D01*
X127315945Y-55381244D01*
X127306373Y-55333119D01*
X127305653Y-55328266D01*
X127300843Y-55279435D01*
X127300602Y-55274534D01*
X127300602Y-55256111D01*
X127300000Y-55250000D01*
X127300000Y-54750000D01*
X127300602Y-54743889D01*
X127300602Y-54725466D01*
X127300843Y-54720565D01*
X127305653Y-54671734D01*
X127306373Y-54666881D01*
X127315945Y-54618756D01*
X127317137Y-54613995D01*
X127331381Y-54567040D01*
X127333034Y-54562421D01*
X127351811Y-54517088D01*
X127353909Y-54512651D01*
X127377040Y-54469378D01*
X127379562Y-54465171D01*
X127406822Y-54424372D01*
X127409746Y-54420430D01*
X127440874Y-54382501D01*
X127444169Y-54378866D01*
X127478866Y-54344169D01*
X127482501Y-54340874D01*
X127520430Y-54309746D01*
X127524372Y-54306822D01*
X127565171Y-54279562D01*
X127569378Y-54277040D01*
X127612651Y-54253909D01*
X127617088Y-54251811D01*
X127662421Y-54233034D01*
X127667040Y-54231381D01*
X127713995Y-54217137D01*
X127718756Y-54215945D01*
X127766881Y-54206373D01*
X127771734Y-54205653D01*
X127820565Y-54200843D01*
X127825466Y-54200602D01*
X127843889Y-54200602D01*
X127850000Y-54200000D01*
X128350000Y-54200000D01*
X128359755Y-54200961D01*
X128369134Y-54203806D01*
X128377779Y-54208427D01*
X128385355Y-54214645D01*
X128391573Y-54222221D01*
X128396194Y-54230866D01*
X128399039Y-54240245D01*
X128400000Y-54250000D01*
X128400000Y-55750000D01*
X128399039Y-55759755D01*
X128396194Y-55769134D01*
X128391573Y-55777779D01*
X128385355Y-55785355D01*
X128377779Y-55791573D01*
X128369134Y-55796194D01*
X128359755Y-55799039D01*
X128350000Y-55800000D01*
X127850000Y-55800000D01*
X127843889Y-55799398D01*
G37*
%TD*%
%TO.C,JP6*%
G36*
X128640245Y-58299039D02*
G01*
X128630866Y-58296194D01*
X128622221Y-58291573D01*
X128614645Y-58285355D01*
X128608427Y-58277779D01*
X128603806Y-58269134D01*
X128600961Y-58259755D01*
X128600000Y-58250000D01*
X128600000Y-56750000D01*
X128600961Y-56740245D01*
X128603806Y-56730866D01*
X128608427Y-56722221D01*
X128614645Y-56714645D01*
X128622221Y-56708427D01*
X128630866Y-56703806D01*
X128640245Y-56700961D01*
X128650000Y-56700000D01*
X129150000Y-56700000D01*
X129156111Y-56700602D01*
X129174534Y-56700602D01*
X129179435Y-56700843D01*
X129228266Y-56705653D01*
X129233119Y-56706373D01*
X129281244Y-56715945D01*
X129286005Y-56717137D01*
X129332960Y-56731381D01*
X129337579Y-56733034D01*
X129382912Y-56751811D01*
X129387349Y-56753909D01*
X129430622Y-56777040D01*
X129434829Y-56779562D01*
X129475628Y-56806822D01*
X129479570Y-56809746D01*
X129517499Y-56840874D01*
X129521134Y-56844169D01*
X129555831Y-56878866D01*
X129559126Y-56882501D01*
X129590254Y-56920430D01*
X129593178Y-56924372D01*
X129620438Y-56965171D01*
X129622960Y-56969378D01*
X129646091Y-57012651D01*
X129648189Y-57017088D01*
X129666966Y-57062421D01*
X129668619Y-57067040D01*
X129682863Y-57113995D01*
X129684055Y-57118756D01*
X129693627Y-57166881D01*
X129694347Y-57171734D01*
X129699157Y-57220565D01*
X129699398Y-57225466D01*
X129699398Y-57243889D01*
X129700000Y-57250000D01*
X129700000Y-57750000D01*
X129699398Y-57756111D01*
X129699398Y-57774534D01*
X129699157Y-57779435D01*
X129694347Y-57828266D01*
X129693627Y-57833119D01*
X129684055Y-57881244D01*
X129682863Y-57886005D01*
X129668619Y-57932960D01*
X129666966Y-57937579D01*
X129648189Y-57982912D01*
X129646091Y-57987349D01*
X129622960Y-58030622D01*
X129620438Y-58034829D01*
X129593178Y-58075628D01*
X129590254Y-58079570D01*
X129559126Y-58117499D01*
X129555831Y-58121134D01*
X129521134Y-58155831D01*
X129517499Y-58159126D01*
X129479570Y-58190254D01*
X129475628Y-58193178D01*
X129434829Y-58220438D01*
X129430622Y-58222960D01*
X129387349Y-58246091D01*
X129382912Y-58248189D01*
X129337579Y-58266966D01*
X129332960Y-58268619D01*
X129286005Y-58282863D01*
X129281244Y-58284055D01*
X129233119Y-58293627D01*
X129228266Y-58294347D01*
X129179435Y-58299157D01*
X129174534Y-58299398D01*
X129156111Y-58299398D01*
X129150000Y-58300000D01*
X128650000Y-58300000D01*
X128640245Y-58299039D01*
G37*
G36*
X127843889Y-58299398D02*
G01*
X127825466Y-58299398D01*
X127820565Y-58299157D01*
X127771734Y-58294347D01*
X127766881Y-58293627D01*
X127718756Y-58284055D01*
X127713995Y-58282863D01*
X127667040Y-58268619D01*
X127662421Y-58266966D01*
X127617088Y-58248189D01*
X127612651Y-58246091D01*
X127569378Y-58222960D01*
X127565171Y-58220438D01*
X127524372Y-58193178D01*
X127520430Y-58190254D01*
X127482501Y-58159126D01*
X127478866Y-58155831D01*
X127444169Y-58121134D01*
X127440874Y-58117499D01*
X127409746Y-58079570D01*
X127406822Y-58075628D01*
X127379562Y-58034829D01*
X127377040Y-58030622D01*
X127353909Y-57987349D01*
X127351811Y-57982912D01*
X127333034Y-57937579D01*
X127331381Y-57932960D01*
X127317137Y-57886005D01*
X127315945Y-57881244D01*
X127306373Y-57833119D01*
X127305653Y-57828266D01*
X127300843Y-57779435D01*
X127300602Y-57774534D01*
X127300602Y-57756111D01*
X127300000Y-57750000D01*
X127300000Y-57250000D01*
X127300602Y-57243889D01*
X127300602Y-57225466D01*
X127300843Y-57220565D01*
X127305653Y-57171734D01*
X127306373Y-57166881D01*
X127315945Y-57118756D01*
X127317137Y-57113995D01*
X127331381Y-57067040D01*
X127333034Y-57062421D01*
X127351811Y-57017088D01*
X127353909Y-57012651D01*
X127377040Y-56969378D01*
X127379562Y-56965171D01*
X127406822Y-56924372D01*
X127409746Y-56920430D01*
X127440874Y-56882501D01*
X127444169Y-56878866D01*
X127478866Y-56844169D01*
X127482501Y-56840874D01*
X127520430Y-56809746D01*
X127524372Y-56806822D01*
X127565171Y-56779562D01*
X127569378Y-56777040D01*
X127612651Y-56753909D01*
X127617088Y-56751811D01*
X127662421Y-56733034D01*
X127667040Y-56731381D01*
X127713995Y-56717137D01*
X127718756Y-56715945D01*
X127766881Y-56706373D01*
X127771734Y-56705653D01*
X127820565Y-56700843D01*
X127825466Y-56700602D01*
X127843889Y-56700602D01*
X127850000Y-56700000D01*
X128350000Y-56700000D01*
X128359755Y-56700961D01*
X128369134Y-56703806D01*
X128377779Y-56708427D01*
X128385355Y-56714645D01*
X128391573Y-56722221D01*
X128396194Y-56730866D01*
X128399039Y-56740245D01*
X128400000Y-56750000D01*
X128400000Y-58250000D01*
X128399039Y-58259755D01*
X128396194Y-58269134D01*
X128391573Y-58277779D01*
X128385355Y-58285355D01*
X128377779Y-58291573D01*
X128369134Y-58296194D01*
X128359755Y-58299039D01*
X128350000Y-58300000D01*
X127850000Y-58300000D01*
X127843889Y-58299398D01*
G37*
%TD*%
%TO.C,JP7*%
G36*
X128640245Y-60799039D02*
G01*
X128630866Y-60796194D01*
X128622221Y-60791573D01*
X128614645Y-60785355D01*
X128608427Y-60777779D01*
X128603806Y-60769134D01*
X128600961Y-60759755D01*
X128600000Y-60750000D01*
X128600000Y-59250000D01*
X128600961Y-59240245D01*
X128603806Y-59230866D01*
X128608427Y-59222221D01*
X128614645Y-59214645D01*
X128622221Y-59208427D01*
X128630866Y-59203806D01*
X128640245Y-59200961D01*
X128650000Y-59200000D01*
X129150000Y-59200000D01*
X129156111Y-59200602D01*
X129174534Y-59200602D01*
X129179435Y-59200843D01*
X129228266Y-59205653D01*
X129233119Y-59206373D01*
X129281244Y-59215945D01*
X129286005Y-59217137D01*
X129332960Y-59231381D01*
X129337579Y-59233034D01*
X129382912Y-59251811D01*
X129387349Y-59253909D01*
X129430622Y-59277040D01*
X129434829Y-59279562D01*
X129475628Y-59306822D01*
X129479570Y-59309746D01*
X129517499Y-59340874D01*
X129521134Y-59344169D01*
X129555831Y-59378866D01*
X129559126Y-59382501D01*
X129590254Y-59420430D01*
X129593178Y-59424372D01*
X129620438Y-59465171D01*
X129622960Y-59469378D01*
X129646091Y-59512651D01*
X129648189Y-59517088D01*
X129666966Y-59562421D01*
X129668619Y-59567040D01*
X129682863Y-59613995D01*
X129684055Y-59618756D01*
X129693627Y-59666881D01*
X129694347Y-59671734D01*
X129699157Y-59720565D01*
X129699398Y-59725466D01*
X129699398Y-59743889D01*
X129700000Y-59750000D01*
X129700000Y-60250000D01*
X129699398Y-60256111D01*
X129699398Y-60274534D01*
X129699157Y-60279435D01*
X129694347Y-60328266D01*
X129693627Y-60333119D01*
X129684055Y-60381244D01*
X129682863Y-60386005D01*
X129668619Y-60432960D01*
X129666966Y-60437579D01*
X129648189Y-60482912D01*
X129646091Y-60487349D01*
X129622960Y-60530622D01*
X129620438Y-60534829D01*
X129593178Y-60575628D01*
X129590254Y-60579570D01*
X129559126Y-60617499D01*
X129555831Y-60621134D01*
X129521134Y-60655831D01*
X129517499Y-60659126D01*
X129479570Y-60690254D01*
X129475628Y-60693178D01*
X129434829Y-60720438D01*
X129430622Y-60722960D01*
X129387349Y-60746091D01*
X129382912Y-60748189D01*
X129337579Y-60766966D01*
X129332960Y-60768619D01*
X129286005Y-60782863D01*
X129281244Y-60784055D01*
X129233119Y-60793627D01*
X129228266Y-60794347D01*
X129179435Y-60799157D01*
X129174534Y-60799398D01*
X129156111Y-60799398D01*
X129150000Y-60800000D01*
X128650000Y-60800000D01*
X128640245Y-60799039D01*
G37*
G36*
X127843889Y-60799398D02*
G01*
X127825466Y-60799398D01*
X127820565Y-60799157D01*
X127771734Y-60794347D01*
X127766881Y-60793627D01*
X127718756Y-60784055D01*
X127713995Y-60782863D01*
X127667040Y-60768619D01*
X127662421Y-60766966D01*
X127617088Y-60748189D01*
X127612651Y-60746091D01*
X127569378Y-60722960D01*
X127565171Y-60720438D01*
X127524372Y-60693178D01*
X127520430Y-60690254D01*
X127482501Y-60659126D01*
X127478866Y-60655831D01*
X127444169Y-60621134D01*
X127440874Y-60617499D01*
X127409746Y-60579570D01*
X127406822Y-60575628D01*
X127379562Y-60534829D01*
X127377040Y-60530622D01*
X127353909Y-60487349D01*
X127351811Y-60482912D01*
X127333034Y-60437579D01*
X127331381Y-60432960D01*
X127317137Y-60386005D01*
X127315945Y-60381244D01*
X127306373Y-60333119D01*
X127305653Y-60328266D01*
X127300843Y-60279435D01*
X127300602Y-60274534D01*
X127300602Y-60256111D01*
X127300000Y-60250000D01*
X127300000Y-59750000D01*
X127300602Y-59743889D01*
X127300602Y-59725466D01*
X127300843Y-59720565D01*
X127305653Y-59671734D01*
X127306373Y-59666881D01*
X127315945Y-59618756D01*
X127317137Y-59613995D01*
X127331381Y-59567040D01*
X127333034Y-59562421D01*
X127351811Y-59517088D01*
X127353909Y-59512651D01*
X127377040Y-59469378D01*
X127379562Y-59465171D01*
X127406822Y-59424372D01*
X127409746Y-59420430D01*
X127440874Y-59382501D01*
X127444169Y-59378866D01*
X127478866Y-59344169D01*
X127482501Y-59340874D01*
X127520430Y-59309746D01*
X127524372Y-59306822D01*
X127565171Y-59279562D01*
X127569378Y-59277040D01*
X127612651Y-59253909D01*
X127617088Y-59251811D01*
X127662421Y-59233034D01*
X127667040Y-59231381D01*
X127713995Y-59217137D01*
X127718756Y-59215945D01*
X127766881Y-59206373D01*
X127771734Y-59205653D01*
X127820565Y-59200843D01*
X127825466Y-59200602D01*
X127843889Y-59200602D01*
X127850000Y-59200000D01*
X128350000Y-59200000D01*
X128359755Y-59200961D01*
X128369134Y-59203806D01*
X128377779Y-59208427D01*
X128385355Y-59214645D01*
X128391573Y-59222221D01*
X128396194Y-59230866D01*
X128399039Y-59240245D01*
X128400000Y-59250000D01*
X128400000Y-60750000D01*
X128399039Y-60759755D01*
X128396194Y-60769134D01*
X128391573Y-60777779D01*
X128385355Y-60785355D01*
X128377779Y-60791573D01*
X128369134Y-60796194D01*
X128359755Y-60799039D01*
X128350000Y-60800000D01*
X127850000Y-60800000D01*
X127843889Y-60799398D01*
G37*
%TD*%
%TO.C,JP8*%
G36*
X103740245Y-66399039D02*
G01*
X103730866Y-66396194D01*
X103722221Y-66391573D01*
X103714645Y-66385355D01*
X103708427Y-66377779D01*
X103703806Y-66369134D01*
X103700961Y-66359755D01*
X103700000Y-66350000D01*
X103700000Y-64850000D01*
X103700961Y-64840245D01*
X103703806Y-64830866D01*
X103708427Y-64822221D01*
X103714645Y-64814645D01*
X103722221Y-64808427D01*
X103730866Y-64803806D01*
X103740245Y-64800961D01*
X103750000Y-64800000D01*
X104250000Y-64800000D01*
X104256111Y-64800602D01*
X104274534Y-64800602D01*
X104279435Y-64800843D01*
X104328266Y-64805653D01*
X104333119Y-64806373D01*
X104381244Y-64815945D01*
X104386005Y-64817137D01*
X104432960Y-64831381D01*
X104437579Y-64833034D01*
X104482912Y-64851811D01*
X104487349Y-64853909D01*
X104530622Y-64877040D01*
X104534829Y-64879562D01*
X104575628Y-64906822D01*
X104579570Y-64909746D01*
X104617499Y-64940874D01*
X104621134Y-64944169D01*
X104655831Y-64978866D01*
X104659126Y-64982501D01*
X104690254Y-65020430D01*
X104693178Y-65024372D01*
X104720438Y-65065171D01*
X104722960Y-65069378D01*
X104746091Y-65112651D01*
X104748189Y-65117088D01*
X104766966Y-65162421D01*
X104768619Y-65167040D01*
X104782863Y-65213995D01*
X104784055Y-65218756D01*
X104793627Y-65266881D01*
X104794347Y-65271734D01*
X104799157Y-65320565D01*
X104799398Y-65325466D01*
X104799398Y-65343889D01*
X104800000Y-65350000D01*
X104800000Y-65850000D01*
X104799398Y-65856111D01*
X104799398Y-65874534D01*
X104799157Y-65879435D01*
X104794347Y-65928266D01*
X104793627Y-65933119D01*
X104784055Y-65981244D01*
X104782863Y-65986005D01*
X104768619Y-66032960D01*
X104766966Y-66037579D01*
X104748189Y-66082912D01*
X104746091Y-66087349D01*
X104722960Y-66130622D01*
X104720438Y-66134829D01*
X104693178Y-66175628D01*
X104690254Y-66179570D01*
X104659126Y-66217499D01*
X104655831Y-66221134D01*
X104621134Y-66255831D01*
X104617499Y-66259126D01*
X104579570Y-66290254D01*
X104575628Y-66293178D01*
X104534829Y-66320438D01*
X104530622Y-66322960D01*
X104487349Y-66346091D01*
X104482912Y-66348189D01*
X104437579Y-66366966D01*
X104432960Y-66368619D01*
X104386005Y-66382863D01*
X104381244Y-66384055D01*
X104333119Y-66393627D01*
X104328266Y-66394347D01*
X104279435Y-66399157D01*
X104274534Y-66399398D01*
X104256111Y-66399398D01*
X104250000Y-66400000D01*
X103750000Y-66400000D01*
X103740245Y-66399039D01*
G37*
G36*
X102943889Y-66399398D02*
G01*
X102925466Y-66399398D01*
X102920565Y-66399157D01*
X102871734Y-66394347D01*
X102866881Y-66393627D01*
X102818756Y-66384055D01*
X102813995Y-66382863D01*
X102767040Y-66368619D01*
X102762421Y-66366966D01*
X102717088Y-66348189D01*
X102712651Y-66346091D01*
X102669378Y-66322960D01*
X102665171Y-66320438D01*
X102624372Y-66293178D01*
X102620430Y-66290254D01*
X102582501Y-66259126D01*
X102578866Y-66255831D01*
X102544169Y-66221134D01*
X102540874Y-66217499D01*
X102509746Y-66179570D01*
X102506822Y-66175628D01*
X102479562Y-66134829D01*
X102477040Y-66130622D01*
X102453909Y-66087349D01*
X102451811Y-66082912D01*
X102433034Y-66037579D01*
X102431381Y-66032960D01*
X102417137Y-65986005D01*
X102415945Y-65981244D01*
X102406373Y-65933119D01*
X102405653Y-65928266D01*
X102400843Y-65879435D01*
X102400602Y-65874534D01*
X102400602Y-65856111D01*
X102400000Y-65850000D01*
X102400000Y-65350000D01*
X102400602Y-65343889D01*
X102400602Y-65325466D01*
X102400843Y-65320565D01*
X102405653Y-65271734D01*
X102406373Y-65266881D01*
X102415945Y-65218756D01*
X102417137Y-65213995D01*
X102431381Y-65167040D01*
X102433034Y-65162421D01*
X102451811Y-65117088D01*
X102453909Y-65112651D01*
X102477040Y-65069378D01*
X102479562Y-65065171D01*
X102506822Y-65024372D01*
X102509746Y-65020430D01*
X102540874Y-64982501D01*
X102544169Y-64978866D01*
X102578866Y-64944169D01*
X102582501Y-64940874D01*
X102620430Y-64909746D01*
X102624372Y-64906822D01*
X102665171Y-64879562D01*
X102669378Y-64877040D01*
X102712651Y-64853909D01*
X102717088Y-64851811D01*
X102762421Y-64833034D01*
X102767040Y-64831381D01*
X102813995Y-64817137D01*
X102818756Y-64815945D01*
X102866881Y-64806373D01*
X102871734Y-64805653D01*
X102920565Y-64800843D01*
X102925466Y-64800602D01*
X102943889Y-64800602D01*
X102950000Y-64800000D01*
X103450000Y-64800000D01*
X103459755Y-64800961D01*
X103469134Y-64803806D01*
X103477779Y-64808427D01*
X103485355Y-64814645D01*
X103491573Y-64822221D01*
X103496194Y-64830866D01*
X103499039Y-64840245D01*
X103500000Y-64850000D01*
X103500000Y-66350000D01*
X103499039Y-66359755D01*
X103496194Y-66369134D01*
X103491573Y-66377779D01*
X103485355Y-66385355D01*
X103477779Y-66391573D01*
X103469134Y-66396194D01*
X103459755Y-66399039D01*
X103450000Y-66400000D01*
X102950000Y-66400000D01*
X102943889Y-66399398D01*
G37*
%TD*%
M02*
