M48
METRIC
T1C0.400
T2C0.700
T3C1.000
T4C2.200
%
G90
G05
T1
X103.6Y-67.0
X105.0Y-84.2
X105.4Y-65.6
X108.6Y-84.2
X111.0Y-76.8
X124.8Y-71.0
X125.6Y-74.0
X126.8Y-73.0
X128.0Y-72.0
T2
X105.96Y-70.9
X105.96Y-72.17
X107.23Y-70.9
X107.23Y-72.17
X108.5Y-70.9
X108.5Y-72.17
X109.77Y-70.9
X109.77Y-72.17
X111.04Y-70.9
X111.04Y-72.17
T3
X113.65Y-84.0
X116.19Y-84.0
X118.73Y-84.0
X121.27Y-84.0
X123.81Y-84.0
X126.35Y-84.0
X108.57Y-37.3
X108.57Y-39.84
X108.57Y-42.38
X108.57Y-44.92
X108.57Y-47.46
X108.57Y-50.0
X108.57Y-52.54
X108.57Y-55.08
X108.57Y-57.62
X108.57Y-60.16
X108.57Y-62.7
X108.57Y-65.24
X131.43Y-37.3
X131.43Y-39.84
X131.43Y-42.38
X131.43Y-44.92
X131.43Y-47.46
X131.43Y-50.0
X131.43Y-52.54
X131.43Y-55.08
X131.43Y-57.62
X131.43Y-60.16
X131.43Y-62.7
X131.43Y-65.24
T4
X104.8Y-39.8
X104.8Y-97.7
X135.2Y-97.7
X114.5Y-94.0
X125.5Y-94.0
X103.5Y-45.0
X136.5Y-75.0
X135.2Y-39.8
T0
M30
